<?xml version="1.0" encoding="utf-8"?>
<!-- Generator: Adobe Illustrator 21.1.0, SVG Export Plug-In . SVG Version: 6.00 Build 0)  -->
<svg version="1.1" id="Layer_1" xmlns="http://www.w3.org/2000/svg" xmlns:xlink="http://www.w3.org/1999/xlink" x="0px" y="0px"
	 viewBox="0 0 140 60" style="enable-background:new 0 0 140 60;" xml:space="preserve">
<style type="text/css">
	.st0{fill-rule:evenodd;clip-rule:evenodd;fill:#231F20;}
	.st1{fill-rule:evenodd;clip-rule:evenodd;fill:#006B54;}
	.st2{fill-rule:evenodd;clip-rule:evenodd;fill:#FFFFFF;}
</style>
<g>
	<path class="st0" d="M1.9,13.6V4.1h1.5l1.8,6.7l0.4,1.4c0.1-0.3,0.2-0.9,0.4-1.5L8,4.1h1.4v9.5h-1V5.7l-2.3,7.9H5.2L2.9,5.6v8.1
		H1.9L1.9,13.6z M10.1,13.6l3-9.5h1.1l3.2,9.5h-1.2l-0.9-2.9h-3.2l-0.9,2.9H10.1L10.1,13.6z M12.4,9.7H15l-0.8-2.6
		c-0.2-0.8-0.4-1.5-0.5-2c-0.1,0.6-0.2,1.2-0.4,1.8L12.4,9.7L12.4,9.7z M18.2,13.6V4.1h1.1l4.1,7.4V4.1h1v9.5h-1.1l-4.1-7.4v7.4
		H18.2L18.2,13.6z M31.1,4.1h1v5.5c0,0.9-0.1,1.7-0.3,2.3c-0.2,0.6-0.5,1.1-1,1.4c-0.5,0.3-1.1,0.5-1.8,0.5c-1,0-1.8-0.3-2.3-0.9
		c-0.5-0.6-0.8-1.7-0.8-3.2V4.1h1v5.5c0,0.9,0.1,1.5,0.2,1.9c0.1,0.4,0.4,0.7,0.7,0.9c0.3,0.2,0.7,0.3,1.1,0.3
		c0.7,0,1.3-0.2,1.6-0.6c0.3-0.4,0.5-1.2,0.5-2.4V4.1L31.1,4.1z M33.9,13.6V4.1h5.2v1.1H35v2.9h3.6v1.1H35v4.3H33.9L33.9,13.6z
		 M39,13.6h1.1l0.9-2.9h3.2l0.9,2.9h1.2l-3.2-9.5H42L39,13.6L39,13.6z M41.3,9.7l0.9-2.8c0.2-0.6,0.3-1.2,0.4-1.8
		c0.1,0.5,0.3,1.2,0.5,2l0.8,2.6H41.3L41.3,9.7z M52.6,10.3l1,0.3c-0.2,1.1-0.6,1.9-1.2,2.4c-0.6,0.5-1.3,0.8-2.1,0.8
		c-0.7,0-1.3-0.2-1.8-0.5c-0.5-0.4-0.9-0.9-1.3-1.7c-0.3-0.8-0.5-1.7-0.5-2.7c0-1,0.2-1.9,0.5-2.6c0.3-0.7,0.8-1.3,1.3-1.6
		C49.2,4.2,49.8,4,50.5,4c0.8,0,1.4,0.2,1.9,0.7c0.5,0.5,0.9,1.2,1.1,2.1l-1,0.3c-0.3-1.3-1-2-2.1-2c-0.5,0-1,0.1-1.3,0.4
		c-0.4,0.3-0.7,0.7-0.9,1.2C48,7.2,47.9,8,47.9,8.8c0,1.3,0.2,2.3,0.7,2.9c0.5,0.6,1.1,1,1.8,1c0.6,0,1-0.2,1.4-0.6
		C52.2,11.7,52.5,11.1,52.6,10.3L52.6,10.3z M56.9,13.6V5.3h-2.6V4.1h6.1v1.1h-2.6v8.3H56.9L56.9,13.6z M66.6,4.1h1v5.5
		c0,0.9-0.1,1.7-0.3,2.3c-0.2,0.6-0.5,1.1-1,1.4c-0.5,0.3-1.1,0.5-1.8,0.5c-1,0-1.8-0.3-2.3-0.9c-0.5-0.6-0.8-1.7-0.8-3.2V4.1h1v5.5
		c0,0.9,0.1,1.5,0.2,1.9c0.1,0.4,0.4,0.7,0.7,0.9c0.3,0.2,0.7,0.3,1.1,0.3c0.7,0,1.3-0.2,1.6-0.6c0.3-0.4,0.5-1.2,0.5-2.4V4.1
		L66.6,4.1z M69.4,13.6V4.1h3.4c0.7,0,1.2,0.1,1.6,0.3c0.3,0.2,0.6,0.5,0.8,0.9c0.2,0.4,0.3,0.9,0.3,1.4c0,0.7-0.2,1.3-0.6,1.7
		c-0.4,0.4-0.9,0.7-1.6,0.8c0.3,0.2,0.5,0.3,0.7,0.5c0.3,0.4,0.6,0.8,0.8,1.2l1.4,2.6h-1.3l-1-2c-0.4-0.8-0.7-1.3-0.9-1.6
		c-0.2-0.3-0.4-0.4-0.6-0.5c-0.2-0.1-0.5-0.1-0.8-0.1h-1.2v4.2H69.4L69.4,13.6z M70.4,8.3h2.2c0.5,0,0.8-0.1,1.1-0.2
		c0.2-0.1,0.4-0.3,0.6-0.5c0.1-0.2,0.2-0.5,0.2-0.9c0-0.5-0.1-0.9-0.4-1.1c-0.3-0.3-0.7-0.4-1.2-0.4h-2.5V8.3L70.4,8.3z M77.2,13.6
		V4.1h5.6v1.1h-4.6v2.9h4.3v1.1h-4.3v3.2H83v1.1H77.2L77.2,13.6z M84.4,13.6V4.1h2.7c0.7,0,1.2,0.1,1.5,0.2c0.4,0.2,0.8,0.4,1.2,0.8
		c0.3,0.4,0.6,0.9,0.8,1.5c0.2,0.6,0.3,1.3,0.3,2.2c0,1.1-0.2,2-0.5,2.7c-0.3,0.7-0.7,1.3-1.2,1.6c-0.5,0.3-1.1,0.5-1.9,0.5H84.4
		L84.4,13.6z M85.4,12.5h1.7c0.7,0,1.2-0.1,1.5-0.3c0.3-0.2,0.6-0.6,0.8-1c0.2-0.6,0.4-1.4,0.4-2.3c0-1-0.1-1.7-0.4-2.3
		c-0.3-0.6-0.6-0.9-1-1.1c-0.3-0.1-0.7-0.2-1.3-0.2h-1.6V12.5L85.4,12.5z M95.2,13.6V4.1h2.9c0.6,0,1.1,0.1,1.4,0.3
		c0.3,0.2,0.6,0.5,0.8,0.9c0.2,0.4,0.3,0.8,0.3,1.3c0,0.4-0.1,0.8-0.3,1.2c-0.2,0.3-0.5,0.6-0.8,0.8c0.5,0.2,0.8,0.4,1.1,0.8
		c0.3,0.4,0.4,0.9,0.4,1.5c0,0.6-0.1,1.1-0.4,1.5c-0.2,0.4-0.5,0.7-0.9,0.9c-0.4,0.2-0.9,0.3-1.6,0.3H95.2L95.2,13.6z M96.2,8.1h1.7
		c0.4,0,0.8,0,0.9-0.1c0.3-0.1,0.5-0.2,0.6-0.5c0.1-0.2,0.2-0.5,0.2-0.9c0-0.3-0.1-0.6-0.2-0.9c-0.1-0.2-0.3-0.4-0.5-0.5
		c-0.2-0.1-0.6-0.1-1.2-0.1h-1.6V8.1L96.2,8.1z M96.2,12.5h1.9c0.4,0,0.7,0,0.9-0.1c0.3-0.1,0.5-0.3,0.7-0.6c0.2-0.3,0.2-0.6,0.2-1
		c0-0.4-0.1-0.7-0.2-0.9c-0.1-0.2-0.3-0.4-0.6-0.5C99,9.3,98.6,9.2,98,9.2h-1.8V12.5L96.2,12.5z M104.7,13.6v-4l-3-5.5h1.3l1.5,2.9
		c0.3,0.6,0.6,1.1,0.8,1.6c0.2-0.5,0.5-1.1,0.8-1.7l1.5-2.8h1.2l-3.1,5.5v4H104.7z"/>
	<g>
		<g>
			<path class="st1" d="M1.1,19.5v26.9h8.3c4.9,0,8.6-2.4,8.6-7.6c0-3-1.4-6.2-4.6-6.8c1.7-1.1,2.4-3.3,2.4-5.2
				c0-5.4-3.1-7.3-8.1-7.3H1.1z"/>
			<path class="st1" d="M25.7,28.9v9.5c0,2,0.3,4.4,2.9,4.4c2.5,0,2.9-2.4,2.9-4.4v-9.5h5v10.3c0,5.1-2.6,7.8-7.9,7.8
				s-7.9-2.7-7.9-7.8V28.9H25.7z"/>
			<path class="st1" d="M51.8,34.2c-1.1-1.1-2.1-1.7-3.7-1.7c-2.8,0-4.4,2.6-4.4,5.2c0,2.7,1.8,5,4.6,5c1.4,0,2.6-0.7,3.5-1.7v4.8
				C50.4,46.7,49,47,47.5,47c-5.2,0-8.9-4.3-8.9-9.3c0-5.2,3.8-9.4,9.1-9.4c1.4,0,2.9,0.4,4.1,1.1V34.2z"/>
			<polygon class="st1" points="59.9,35.3 60,35.3 65.2,28.9 71.7,28.9 64.4,36.6 72.3,46.4 65.7,46.4 60,38.9 59.9,38.9 59.9,46.4 
				54.9,46.4 54.9,16.1 59.9,16.1 			"/>
			<path class="st1" d="M79.4,30.4L79.4,30.4c1-1.4,2.8-2.1,4.4-2.1c2.2,0,3.9,0.9,5,2.8c1.1-1.7,3.1-2.8,5.1-2.8
				c4.5,0,5.6,3.4,5.6,7.2v10.9h-5v-9.2c0-1.7,0.1-4.9-2.4-4.9c-2.7,0-2.7,3.7-2.7,5.5v8.6h-5v-8.9c0-1.7,0.2-5.2-2.4-5.2
				c-2.8,0-2.6,3.6-2.6,5.5v8.6h-5V28.9h5V30.4z"/>
			<path class="st1" d="M115.2,37.6c0-2.4-1.6-4.9-4.2-4.9c-2.6,0-4.1,2.5-4.1,4.9c0,2.4,1.6,4.9,4.1,4.9
				C113.6,42.6,115.2,40,115.2,37.6L115.2,37.6z M119.7,46.4h-4.9v-1.6h-0.1c-1.1,1.4-2.9,2.2-4.8,2.2c-5.2,0-8.1-4.7-8.1-9.4
				c0-4.6,3-9.3,8-9.3c1.8,0,3.7,0.8,4.9,2.2v-1.6h4.9V46.4z"/>
			<path class="st1" d="M128.3,30.5L128.3,30.5c1.1-1.6,2.9-2.2,4.6-2.2c4.7,0,6.1,3.3,6.1,7.4v10.7h-5v-9.3c0-2.1,0.1-4.8-2.7-4.8
				c-3,0-3,3.3-3,5.4v8.7h-5V28.9h5V30.5z"/>
			<path class="st2" d="M6.4,42.2h1.1c2.8,0,5.3-0.4,5.3-3.9c0-3.5-2.9-3.6-5.5-3.6H6.4V42.2z"/>
			<path class="st2" d="M6.4,30.7H7c2.6,0,3.8-0.7,3.8-3.5c0-2.7-1.6-3.5-3.8-3.5H6.4V30.7z"/>
		</g>
		<path class="st0" d="M80.9,51.3l-1.2,2.7h2.4L80.9,51.3L80.9,51.3z M80.9,49.4l3.4,7.7h-1l-1-2.3h-2.9l-1,2.3h-1L80.9,49.4
			L80.9,49.4z M87.8,53c0.5,0.2,0.8,0.5,1.1,0.8c0.2,0.3,0.4,0.7,0.4,1.2c0,0.7-0.2,1.2-0.7,1.7c-0.4,0.4-1,0.6-1.7,0.6
			c-0.6,0-1.1-0.1-1.5-0.4c-0.4-0.3-0.7-0.7-0.8-1.3l0.8-0.4c0.1,0.5,0.3,0.8,0.5,1c0.3,0.2,0.6,0.3,0.9,0.3c0.4,0,0.8-0.1,1.1-0.4
			c0.3-0.3,0.4-0.6,0.4-1c0-0.3-0.1-0.6-0.3-0.9c-0.2-0.2-0.5-0.5-0.9-0.6l-0.9-0.4c-0.5-0.2-0.9-0.5-1.1-0.8
			c-0.2-0.3-0.4-0.7-0.4-1.2c0-0.5,0.2-1,0.6-1.3c0.4-0.3,0.9-0.5,1.5-0.5c0.4,0,0.8,0.1,1.2,0.3c0.3,0.2,0.6,0.5,0.8,0.8l-0.7,0.5
			c-0.2-0.3-0.4-0.5-0.6-0.6c-0.2-0.1-0.4-0.2-0.7-0.2c-0.3,0-0.6,0.1-0.8,0.3c-0.2,0.2-0.3,0.5-0.3,0.8c0,0.3,0.1,0.5,0.2,0.7
			c0.2,0.2,0.4,0.4,0.8,0.5L87.8,53L87.8,53z M90.4,57.1v-7.4h0.9v7.4H90.4L90.4,57.1z M95.5,51.3l-1.2,2.7h2.4L95.5,51.3L95.5,51.3
			z M95.5,49.4l3.4,7.7h-1l-1-2.3H94l-1,2.3h-1L95.5,49.4L95.5,49.4z M99.4,54.4h2.4v0.8h-2.4V54.4L99.4,54.4z M104.3,53.8v3.3h-0.9
			v-7.4h1.6c0.5,0,0.9,0,1.2,0.1c0.3,0.1,0.5,0.2,0.7,0.3c0.2,0.2,0.4,0.4,0.6,0.7c0.1,0.3,0.2,0.6,0.2,1c0,0.4-0.1,0.7-0.2,1
			c-0.1,0.3-0.3,0.5-0.6,0.7c-0.2,0.1-0.4,0.2-0.7,0.3c-0.3,0.1-0.7,0.1-1.2,0.1h-0.2H104.3L104.3,53.8z M104.3,53h0.4
			c0.8,0,1.3-0.1,1.5-0.3c0.3-0.2,0.4-0.5,0.4-0.9c0-0.5-0.1-0.8-0.4-1c-0.3-0.2-0.8-0.3-1.5-0.3h-0.4V53L104.3,53z M110.5,51.3
			l-1.2,2.7h2.4L110.5,51.3L110.5,51.3z M110.5,49.4l-3.4,7.7h1l1-2.3h2.9l1,2.3h1L110.5,49.4L110.5,49.4z M120.5,51.4
			c-0.4-0.4-0.7-0.7-1.1-0.9c-0.4-0.2-0.9-0.3-1.3-0.3c-0.4,0-0.8,0.1-1.2,0.2c-0.4,0.2-0.7,0.4-1,0.7c-0.3,0.3-0.5,0.6-0.6,1
			c-0.1,0.4-0.2,0.8-0.2,1.2c0,0.3,0,0.7,0.1,1c0.1,0.3,0.2,0.6,0.4,0.8c0.3,0.4,0.7,0.8,1.1,1c0.4,0.2,0.9,0.3,1.4,0.3
			c0.5,0,0.9-0.1,1.3-0.3c0.4-0.2,0.8-0.5,1.1-0.9v1.2c-0.4,0.3-0.8,0.5-1.2,0.6c-0.4,0.1-0.9,0.2-1.3,0.2c-0.4,0-0.8-0.1-1.2-0.2
			c-0.4-0.1-0.7-0.3-1-0.5c-0.5-0.4-1-0.8-1.2-1.4c-0.3-0.5-0.4-1.2-0.4-1.8c0-0.6,0.1-1.1,0.3-1.6c0.2-0.5,0.5-0.9,0.9-1.3
			c0.4-0.4,0.8-0.6,1.3-0.8c0.5-0.2,1-0.3,1.5-0.3c0.4,0,0.8,0.1,1.2,0.2c0.4,0.1,0.8,0.3,1.2,0.6V51.4L120.5,51.4z M122,57.1v-7.4
			h0.9v7.4H122L122,57.1z M124.7,57.1v-7.4h3.9v0.8h-3v2.1h3v0.8h-3v3.7H124.7L124.7,57.1z M130,57.1v-7.4h0.9v7.4H130L130,57.1z
			 M138.7,51.4c-0.4-0.4-0.7-0.7-1.1-0.9c-0.4-0.2-0.9-0.3-1.3-0.3c-0.4,0-0.8,0.1-1.2,0.2c-0.4,0.2-0.7,0.4-1,0.7
			c-0.3,0.3-0.5,0.6-0.6,1c-0.1,0.4-0.2,0.8-0.2,1.2c0,0.3,0,0.7,0.1,1c0.1,0.3,0.2,0.6,0.4,0.8c0.3,0.4,0.7,0.8,1.1,1
			c0.4,0.2,0.9,0.3,1.4,0.3c0.5,0,0.9-0.1,1.3-0.3c0.4-0.2,0.8-0.5,1.1-0.9v1.2c-0.4,0.3-0.8,0.5-1.2,0.6c-0.4,0.1-0.9,0.2-1.3,0.2
			c-0.4,0-0.8-0.1-1.2-0.2c-0.4-0.1-0.7-0.3-1-0.5c-0.5-0.4-1-0.8-1.2-1.4c-0.3-0.5-0.4-1.2-0.4-1.8c0-0.6,0.1-1.1,0.3-1.6
			c0.2-0.5,0.5-0.9,0.9-1.3c0.4-0.4,0.8-0.6,1.3-0.8c0.5-0.2,1-0.3,1.5-0.3c0.4,0,0.8,0.1,1.2,0.2c0.4,0.1,0.8,0.3,1.2,0.6V51.4z"/>
	</g>
</g>
</svg>
