<?xml version="1.0" encoding="utf-8"?>
<!-- Generator: Adobe Illustrator 21.1.0, SVG Export Plug-In . SVG Version: 6.00 Build 0)  -->
<svg version="1.1" id="Layer_1" xmlns="http://www.w3.org/2000/svg" xmlns:xlink="http://www.w3.org/1999/xlink" x="0px" y="0px"
	 viewBox="0 0 379.3 120" style="enable-background:new 0 0 379.3 120;" xml:space="preserve">
<style type="text/css">
	.st0{fill:#535353;}
	.st1{fill:#082843;}
	.st2{fill:#FFD670;}
	.st3{fill:#F8A488;}
	.st4{fill:#43ACB7;}
	.st5{fill:#734949;}
	.st6{fill:#FFFFFF;}
	.st7{fill:#E47B49;}
	.st8{fill:#FDE3E2;}
	.st9{fill:#595A5C;}
	.st10{fill:none;stroke:#4E4E4E;stroke-linecap:square;stroke-linejoin:round;stroke-miterlimit:10;}
</style>
<g>
	<g>
		<g>
			<path class="st0" d="M93.6,61.6V41.2h13.7v2.6H96.4v6.1h9.5v2.5h-9.5v9.2H93.6L93.6,61.6z M109.9,61.6V41.2h2.5v20.4H109.9
				L109.9,61.6z M125.5,59.6c-0.8,0.8-1.6,1.4-2.5,1.8c-0.9,0.4-1.8,0.6-2.8,0.6c-1.5,0-2.7-0.4-3.5-1.2c-0.9-0.8-1.3-1.9-1.3-3.3
				c0-1.4,0.4-2.4,1.3-3.2c0.8-0.8,2.1-1.3,3.8-1.5c0.4,0,1-0.1,1.8-0.2c1.3-0.1,2-0.3,2.3-0.4c0.3-0.1,0.5-0.3,0.6-0.4
				c0.1-0.2,0.1-0.6,0.1-1.2c0-0.8-0.3-1.3-0.8-1.7c-0.6-0.4-1.4-0.6-2.5-0.6c-1.2,0-2,0.2-2.6,0.7s-0.9,1.1-0.9,2.1h-2.4V51
				c0-1.5,0.5-2.7,1.6-3.6c1.1-0.9,2.5-1.3,4.3-1.3c2,0,3.4,0.4,4.4,1.1c0.9,0.7,1.4,1.9,1.4,3.5v7.4c0,0.6,0.1,1,0.2,1.2
				c0.1,0.2,0.4,0.3,0.7,0.3c0.1,0,0.2,0,0.3,0s0.2,0,0.4-0.1v1.9c-0.3,0.1-0.6,0.1-0.8,0.2c-0.2,0-0.4,0-0.6,0
				c-0.8,0-1.5-0.2-1.9-0.5C125.7,60.9,125.5,60.4,125.5,59.6L125.5,59.6L125.5,59.6z M125.2,54c-0.7,0.4-1.8,0.6-3.4,0.8
				c-0.6,0.1-1,0.1-1.3,0.2c-0.9,0.1-1.6,0.4-2,0.8c-0.4,0.4-0.6,1-0.6,1.7s0.2,1.3,0.7,1.7s1.1,0.6,2,0.6c1.3,0,2.4-0.3,3.3-1
				s1.3-1.5,1.3-2.6V54L125.2,54z M149.8,61.6v-9.1c0-1.5-0.2-2.5-0.6-3.1c-0.4-0.5-1.1-0.8-2.1-0.8c-1.2,0-2.1,0.4-2.8,1.1
				c-0.7,0.7-1,1.8-1,3.1v8.8h-2.5v-9.1c0-1.5-0.2-2.5-0.6-3.1c-0.4-0.5-1.1-0.8-2.1-0.8c-1.2,0-2.1,0.4-2.8,1.1
				c-0.7,0.8-1,1.8-1,3.1v8.8h-2.5V46.7h2.4v2.1c0.6-0.8,1.2-1.5,2-1.9s1.6-0.6,2.7-0.6c0.9,0,1.7,0.2,2.4,0.6
				c0.7,0.4,1.2,1,1.7,1.8c0.6-0.8,1.4-1.4,2.1-1.8c0.8-0.4,1.6-0.6,2.6-0.6s1.8,0.2,2.5,0.5s1.3,0.8,1.6,1.5
				c0.2,0.4,0.4,0.8,0.5,1.4c0.1,0.5,0.1,1.4,0.1,2.5v0.4v8.9L149.8,61.6L149.8,61.6z M157.9,52.8h8.1c0-1.4-0.4-2.5-1.1-3.2
				c-0.7-0.8-1.7-1.1-2.9-1.1s-2.2,0.4-2.9,1.1C158.5,50.3,158.1,51.4,157.9,52.8L157.9,52.8z M166,56.8h2.5c-0.3,1.6-1,2.9-2.1,3.9
				c-1.2,0.9-2.6,1.4-4.4,1.4c-2.1,0-3.7-0.7-4.9-2.1c-1.2-1.4-1.8-3.3-1.8-5.7c0-2.5,0.6-4.5,1.8-5.9s2.8-2.1,4.9-2.1
				c2.1,0,3.8,0.7,5,2s1.8,3.2,1.8,5.6c0,0.3,0,0.5,0,0.7c0,0.1,0,0.3,0,0.4H158c0,1.6,0.4,2.8,1.2,3.6c0.7,0.9,1.8,1.3,3.1,1.3
				c1,0,1.9-0.3,2.5-0.8C165.4,58.5,165.8,57.7,166,56.8L166,56.8z M174,54c0,1.8,0.4,3.3,1.1,4.3c0.8,1,1.8,1.5,3.2,1.5
				s2.4-0.5,3.2-1.5s1.2-2.3,1.2-4c0-1.9-0.4-3.3-1.1-4.3c-0.8-1-1.8-1.5-3.2-1.5c-1.5,0-2.6,0.5-3.3,1.4
				C174.3,50.8,174,52.2,174,54L174,54z M171.6,61.6V41.2h2.4v7.6c0.6-0.8,1.3-1.5,2.1-1.9s1.7-0.6,2.7-0.6c2,0,3.5,0.7,4.7,2.2
				c1.2,1.4,1.8,3.4,1.8,5.8c0,2.4-0.6,4.3-1.8,5.7s-2.8,2.1-4.7,2.1c-1,0-2-0.2-2.7-0.6c-0.8-0.4-1.5-1-2.1-1.8v1.9L171.6,61.6
				L171.6,61.6z M188.4,61.6V41.2h2.5v20.4H188.4L188.4,61.6z M196.6,54.1c0,1.8,0.4,3.2,1.2,4.2s1.9,1.5,3.4,1.5s2.6-0.5,3.4-1.5
				c0.8-1,1.2-2.4,1.2-4.2s-0.4-3.2-1.2-4.2s-1.9-1.5-3.4-1.5s-2.6,0.5-3.4,1.5C197,50.9,196.6,52.3,196.6,54.1L196.6,54.1z
				 M194.1,54.1c0-2.5,0.6-4.4,1.9-5.8c1.2-1.4,3-2.1,5.2-2.1c2.3,0,4,0.7,5.2,2.1c1.2,1.4,1.9,3.3,1.9,5.8s-0.6,4.4-1.9,5.8
				c-1.2,1.4-3,2.1-5.2,2.1c-2.3,0-4-0.7-5.2-2.1C194.7,58.6,194.1,56.6,194.1,54.1L194.1,54.1z M221.1,51.7c-0.1-1-0.4-1.8-1.1-2.3
				c-0.7-0.5-1.6-0.8-2.7-0.8c-1.3,0-2.4,0.5-3.1,1.5c-0.7,1-1.1,2.4-1.1,4.2s0.4,3.2,1.1,4.2c0.7,1,1.7,1.5,3,1.5
				c1.2,0,2.1-0.3,2.8-0.9c0.7-0.6,1.1-1.5,1.3-2.6h2.4c-0.1,1.8-0.8,3.2-1.9,4.3c-1.2,1-2.7,1.5-4.7,1.5s-3.6-0.7-4.8-2.1
				c-1.2-1.4-1.7-3.3-1.7-5.7c0-2.5,0.6-4.4,1.8-5.8c1.2-1.4,2.9-2.1,5-2.1c1.9,0,3.4,0.5,4.5,1.5s1.7,2.3,1.8,4h-2.6V51.7z"/>
			<path class="st0" d="M93.3,82V71.7h6.9V73h-5.5v3.1h4.8v1.3h-4.8V82H93.3L93.3,82z M105.2,73.1v-1.4h1.3v1.4H105.2L105.2,73.1z
				 M105.2,82v-7.5h1.3V82H105.2L105.2,82z M112.1,82v-7.5h1.2v1.3c0.2-0.5,0.5-0.9,0.8-1.1s0.8-0.4,1.3-0.4c0.1,0,0.2,0,0.2,0h0.1
				v1.3h-0.1c0,0-0.1,0-0.2,0c-0.7,0-1.2,0.2-1.5,0.5c-0.3,0.4-0.5,0.9-0.5,1.6V82H112.1L112.1,82z M121.5,77.5h4.1
				c0-0.7-0.2-1.2-0.5-1.6s-0.8-0.6-1.5-0.6c-0.6,0-1.1,0.2-1.5,0.6C121.8,76.3,121.6,76.8,121.5,77.5L121.5,77.5z M125.6,79.6h1.2
				c-0.1,0.8-0.5,1.5-1.1,1.9c-0.6,0.5-1.3,0.7-2.2,0.7c-1,0-1.8-0.3-2.4-1s-0.9-1.7-0.9-2.9c0-1.3,0.3-2.3,0.9-3s1.4-1.1,2.5-1.1
				s1.9,0.3,2.5,1s0.9,1.6,0.9,2.8c0,0.2,0,0.3,0,0.3c0,0.1,0,0.1,0,0.2h-5.4c0,0.8,0.2,1.4,0.6,1.8s0.9,0.6,1.6,0.6
				c0.5,0,0.9-0.1,1.3-0.4C125.3,80.4,125.5,80,125.6,79.6L125.6,79.6z M137.5,72.9v3.5h2.4c0.9,0,1.5-0.1,1.8-0.4
				c0.4-0.3,0.5-0.7,0.5-1.4c0-0.6-0.2-1-0.5-1.3c-0.3-0.2-1-0.4-1.9-0.4L137.5,72.9L137.5,72.9z M136.1,71.7h4c0.6,0,1.1,0,1.4,0.1
				c0.3,0.1,0.6,0.1,0.8,0.3c0.4,0.2,0.8,0.6,1,1s0.3,0.9,0.3,1.5s-0.1,1-0.4,1.4c-0.2,0.4-0.6,0.7-1.1,0.9c0.4,0.1,0.7,0.3,0.9,0.6
				c0.2,0.3,0.3,0.7,0.3,1.3l0.1,1.7c0,0.4,0.1,0.6,0.1,0.8c0.1,0.2,0.2,0.3,0.3,0.4V82h-1.6c-0.1-0.2-0.2-0.7-0.3-1.4l0,0l-0.1-1.3
				c0-0.7-0.2-1.1-0.4-1.3c-0.2-0.2-0.9-0.3-1.8-0.3h-2.3V82h-1.4V71.7H136.1z M150.1,77.5h4.1c0-0.7-0.2-1.2-0.5-1.6
				s-0.8-0.6-1.5-0.6c-0.6,0-1.1,0.2-1.5,0.6C150.4,76.3,150.2,76.8,150.1,77.5L150.1,77.5z M154.2,79.6h1.2
				c-0.1,0.8-0.5,1.5-1.1,1.9c-0.6,0.5-1.3,0.7-2.2,0.7c-1,0-1.8-0.3-2.4-1c-0.6-0.7-0.9-1.7-0.9-2.9c0-1.3,0.3-2.3,0.9-3
				c0.6-0.7,1.4-1.1,2.5-1.1s1.9,0.3,2.5,1s0.9,1.6,0.9,2.8c0,0.2,0,0.3,0,0.3c0,0.1,0,0.1,0,0.2h-5.4c0,0.8,0.2,1.4,0.6,1.8
				c0.4,0.4,0.9,0.6,1.6,0.6c0.5,0,0.9-0.1,1.3-0.4C153.9,80.4,154.1,80,154.2,79.6L154.2,79.6z M162.2,80.1c0,0.3,0,0.6,0.1,0.7
				s0.3,0.2,0.5,0.2c0.1,0,0.2,0,0.3,0s0.2,0,0.4,0v1c-0.2,0-0.4,0.1-0.6,0.1c-0.2,0-0.3,0-0.4,0c-0.6,0-1-0.1-1.2-0.3
				c-0.2-0.2-0.4-0.6-0.4-1.2v-5h-1.1v-1h1.1v-2.1h1.3v2.1h1.3v1h-1.3L162.2,80.1L162.2,80.1z M173,81c-0.4,0.4-0.8,0.7-1.2,0.9
				c-0.4,0.2-0.9,0.3-1.4,0.3c-0.8,0-1.4-0.2-1.8-0.6c-0.4-0.4-0.6-0.9-0.6-1.6s0.2-1.2,0.6-1.6c0.4-0.4,1.1-0.6,1.9-0.7
				c0.2,0,0.5-0.1,0.9-0.1c0.6-0.1,1-0.1,1.2-0.2c0.1-0.1,0.2-0.1,0.3-0.2c0-0.1,0.1-0.3,0.1-0.6c0-0.4-0.1-0.7-0.4-0.9
				c-0.3-0.2-0.7-0.3-1.3-0.3s-1,0.1-1.3,0.3c-0.3,0.2-0.4,0.6-0.4,1h-1.2v-0.1c0-0.8,0.3-1.4,0.8-1.8s1.3-0.7,2.2-0.7
				c1,0,1.7,0.2,2.2,0.6s0.7,1,0.7,1.8v3.7c0,0.3,0,0.5,0.1,0.6s0.2,0.1,0.4,0.1h0.1c0.1,0,0.1,0,0.2,0v1c-0.2,0-0.3,0.1-0.4,0.1
				c-0.1,0-0.2,0-0.3,0c-0.4,0-0.7-0.1-0.9-0.3C173.1,81.7,173,81.4,173,81L173,81L173,81z M172.9,78.2c-0.3,0.2-0.9,0.3-1.7,0.4
				c-0.3,0-0.5,0.1-0.6,0.1c-0.5,0.1-0.8,0.2-1,0.4c-0.2,0.2-0.3,0.5-0.3,0.9s0.1,0.7,0.3,0.9c0.2,0.2,0.6,0.3,1,0.3
				c0.7,0,1.2-0.2,1.7-0.5c0.4-0.3,0.6-0.8,0.6-1.3V78.2L172.9,78.2z M179.9,82v-7.5h1.2v1.3c0.2-0.5,0.5-0.9,0.8-1.1
				s0.8-0.4,1.3-0.4c0.1,0,0.2,0,0.2,0h0.1v1.3h-0.1c0,0-0.1,0-0.2,0c-0.7,0-1.2,0.2-1.5,0.5c-0.3,0.4-0.5,0.9-0.5,1.6V82H179.9
				L179.9,82z M193.7,78.2c0-0.9-0.2-1.6-0.6-2.1c-0.4-0.5-0.9-0.7-1.7-0.7c-0.7,0-1.3,0.3-1.6,0.8c-0.4,0.5-0.6,1.2-0.6,2.2
				c0,0.9,0.2,1.5,0.6,2s0.9,0.7,1.6,0.7c0.7,0,1.2-0.2,1.6-0.8C193.5,79.8,193.7,79.1,193.7,78.2L193.7,78.2z M194.8,71.7V82h-1.2
				v-1c-0.3,0.4-0.7,0.7-1.1,0.9c-0.4,0.2-0.8,0.3-1.3,0.3c-1,0-1.8-0.4-2.4-1.1c-0.6-0.7-0.9-1.7-0.9-2.9c0-1.2,0.3-2.2,0.9-2.9
				c0.6-0.7,1.4-1.1,2.4-1.1c0.5,0,1,0.1,1.4,0.3c0.4,0.2,0.7,0.5,1,0.9v-3.7L194.8,71.7L194.8,71.7z M205.1,81
				c-0.4,0.4-0.8,0.7-1.2,0.9c-0.4,0.2-0.9,0.3-1.4,0.3c-0.8,0-1.4-0.2-1.8-0.6c-0.4-0.4-0.6-0.9-0.6-1.6s0.2-1.2,0.6-1.6
				c0.4-0.4,1.1-0.6,1.9-0.7c0.2,0,0.5-0.1,0.9-0.1c0.6-0.1,1-0.1,1.2-0.2c0.1-0.1,0.2-0.1,0.3-0.2c0-0.1,0.1-0.3,0.1-0.6
				c0-0.4-0.1-0.7-0.4-0.9c-0.3-0.2-0.7-0.3-1.3-0.3s-1,0.1-1.3,0.3c-0.3,0.2-0.4,0.6-0.4,1h-1.2v-0.1c0-0.8,0.3-1.4,0.8-1.8
				s1.3-0.7,2.2-0.7c1,0,1.7,0.2,2.2,0.6s0.7,1,0.7,1.8v3.7c0,0.3,0,0.5,0.1,0.6s0.2,0.1,0.4,0.1h0.1c0.1,0,0.1,0,0.2,0v1
				c-0.2,0-0.3,0.1-0.4,0.1c-0.1,0-0.2,0-0.3,0c-0.4,0-0.7-0.1-0.9-0.3C205.2,81.7,205.1,81.4,205.1,81L205.1,81L205.1,81z
				 M205,78.2c-0.3,0.2-0.9,0.3-1.7,0.4c-0.3,0-0.5,0.1-0.6,0.1c-0.5,0.1-0.8,0.2-1,0.4c-0.2,0.2-0.3,0.5-0.3,0.9s0.1,0.7,0.3,0.9
				c0.2,0.2,0.6,0.3,1,0.3c0.7,0,1.2-0.2,1.7-0.5c0.4-0.3,0.6-0.8,0.6-1.3V78.2L205,78.2z M216.9,82v-4.6c0-0.7-0.1-1.2-0.3-1.5
				s-0.6-0.4-1.2-0.4c-0.7,0-1.2,0.2-1.6,0.6c-0.4,0.4-0.6,1-0.6,1.7V82H212v-7.5h1.2v1.1c0.3-0.4,0.6-0.8,1-1s0.9-0.3,1.4-0.3
				c0.6,0,1,0.1,1.4,0.3c0.4,0.2,0.7,0.4,0.9,0.8c0.1,0.2,0.2,0.4,0.3,0.6s0.1,0.6,0.1,1.2v0.4V82H216.9L216.9,82z M225.3,80.1
				c0,0.3,0,0.6,0.1,0.7s0.3,0.2,0.5,0.2c0.1,0,0.2,0,0.3,0s0.2,0,0.4,0v1c-0.2,0-0.4,0.1-0.6,0.1c-0.2,0-0.3,0-0.4,0
				c-0.6,0-1-0.1-1.2-0.3c-0.2-0.2-0.4-0.6-0.4-1.2v-5h-1.1v-1h1.1v-2.1h1.3v2.1h1.3v1h-1.3L225.3,80.1L225.3,80.1z"/>
		</g>
		<g>
			<path class="st0" d="M226.2,39.5c-0.1-0.3-0.3-0.6-0.6-0.9c-0.2-0.2-0.6-0.5-0.9-0.6s-0.7-0.2-1.1-0.2c-0.4,0-0.7,0.1-1.1,0.2
				c-0.3,0.1-0.6,0.3-0.9,0.6c-0.2,0.2-0.5,0.6-0.6,0.9c-0.1,0.4-0.2,0.7-0.2,1.1c0,0.4,0.1,0.8,0.2,1.1c0.1,0.3,0.3,0.6,0.6,0.9
				c0.3,0.2,0.6,0.5,0.9,0.6c0.4,0.1,0.7,0.2,1.1,0.2c0.4,0,0.8-0.1,1.1-0.2c0.3-0.1,0.6-0.3,0.9-0.6c0.3-0.3,0.5-0.6,0.6-0.9
				c0.1-0.4,0.2-0.7,0.2-1.1C226.4,40.2,226.3,39.8,226.2,39.5z M225.7,41.5c-0.1,0.2-0.2,0.5-0.5,0.7c-0.2,0.2-0.5,0.4-0.7,0.5
				c-0.2,0.1-0.6,0.2-0.9,0.2c-0.3,0-0.6-0.1-0.9-0.2c-0.2-0.1-0.5-0.3-0.7-0.5c-0.2-0.2-0.4-0.5-0.5-0.7c-0.1-0.2-0.2-0.6-0.2-0.9
				c0-0.3,0.1-0.6,0.2-0.9c0.1-0.2,0.3-0.6,0.5-0.7c0.2-0.2,0.5-0.4,0.7-0.5c0.3-0.1,0.6-0.2,0.9-0.2c0.3,0,0.6,0.1,0.9,0.2
				c0.2,0.1,0.6,0.3,0.7,0.5c0.2,0.2,0.4,0.5,0.5,0.7c0.1,0.2,0.2,0.6,0.2,0.9C225.8,40.9,225.8,41.2,225.7,41.5z"/>
		</g>
		<g>
			<path class="st0" d="M224.7,40.4c0.1-0.2,0.2-0.4,0.2-0.6c0-0.3-0.1-0.6-0.3-0.7c-0.2-0.1-0.6-0.2-0.9-0.2h-1.2v3.1h0.6v-1.3h0.6
				l0.7,1.3h0.7l-0.7-1.4C224.4,40.6,224.6,40.6,224.7,40.4z M224.2,40.3c-0.1,0.1-0.3,0.1-0.6,0.1h-0.5v-1h0.5c0.3,0,0.5,0,0.6,0.2
				c0.1,0.1,0.2,0.2,0.2,0.4S224.2,40.2,224.2,40.3z"/>
		</g>
	</g>
	<g>
		<g id="XMLID_1_">
			<g>
				<g id="XMLID_197_">
					<path id="XMLID_199_" class="st1" d="M15.9,84.4c-1.8-0.4-4.3-0.5-5.1-1c-0.6-0.4-1-0.8-0.3-1.2c0,0-0.1,0-0.2,0
						c-0.9,0.3-0.5,0.8,0.2,1.3c0.4,0.2,0.9,0.3,1.7,0.4C13.4,84.1,14.6,84.3,15.9,84.4C15.9,84.5,16,84.4,15.9,84.4z"/>
					<path id="XMLID_198_" class="st1" d="M11.3,84.1c-1.1-0.2-2.1-0.4-2.7-0.7H8.5C9,83.6,9.9,83.9,11.3,84.1
						C11.4,84.1,11.4,84.1,11.3,84.1z"/>
				</g>
				<g id="XMLID_193_">
					<path id="XMLID_196_" class="st1" d="M44.3,83.9c-1-0.4-2.5-0.7-3.5-1.1h-0.1c0.8,0.3,2.1,0.6,3,1c1.1,0.4,1.2,0.7,1.5,1.1h0.2
						C45.5,84.6,45.1,84.2,44.3,83.9z"/>
					<path id="XMLID_195_" class="st1" d="M45.7,83.7C45.6,83.7,45.5,83.7,45.7,83.7c0.5,0.2,0.6,0.5,0.7,0.7h0.1
						C46.8,84.2,46.3,83.9,45.7,83.7z"/>
					<path id="XMLID_194_" class="st1" d="M47.5,83.9h-0.2c0.1,0.1,0.1,0.2,0.2,0.3c0,0,0.1,0,0.2,0C47.7,84.2,47.6,84,47.5,83.9z"
						/>
				</g>
				<g id="XMLID_190_">
					<path id="XMLID_192_" class="st1" d="M14.1,78.6c-1.1,0.2-2.6,0.4-1.9,0.8h0.1C12,79,13.1,78.8,14.1,78.6
						C14.2,78.6,14.2,78.6,14.1,78.6z"/>
					<path id="XMLID_191_" class="st1" d="M10.8,78.8c0,0-0.1,0-0.1,0.1c0,0-0.1,0-0.1,0.1h0.1C10.8,78.9,10.8,78.9,10.8,78.8H11
						H10.8z"/>
				</g>
				<g id="XMLID_187_">
					<path id="XMLID_189_" class="st1" d="M22.6,76.6C22.5,76.6,22.5,76.6,22.6,76.6c1.1,0.2,2.3,0.4,2.6,0.7h0.2
						C25.7,77.1,23.7,76.8,22.6,76.6z"/>
					<path id="XMLID_188_" class="st1" d="M25.5,76.9C25.4,76.9,25.4,76.9,25.5,76.9c0.1,0.1,0.3,0.1,0.4,0.1s0.1,0.1,0.2,0.1h0.1
						C26.2,77.1,25.8,77,25.5,76.9z"/>
				</g>
				<g id="XMLID_184_">
					<g id="XMLID_185_">
						<g id="XMLID_186_">
							<path class="st1" d="M81.1,92.9c0.5,0.1,0.4,0.2,0.5,0.3c0.1,0.1-0.2,0.1-0.4,0.1c-0.3,0-0.5,0-0.5-0.1
								c-0.1-0.1,0.1-0.1,0.4-0.2C81,93,81.2,93,81.1,92.9C81.1,93,81.1,93,81.1,92.9L81.1,92.9z"/>
							<path class="st1" d="M74.6,92.2c1.4,0.2,2.7,0.4,4.1,0.6c0.4,0.1,0.8,0.1,1.3,0.2c0.4,0,0.2,0.1,0.2,0.1
								c-0.1,0.1-0.3,0-0.4,0c-0.5-0.1-1-0.2-1.6-0.3c-1.8-0.3-3.6-0.6-5.4-0.9h0.1C73.4,92,74,92.1,74.6,92.2z"/>
							<path class="st1" d="M69.1,91.1c1.6,0.3,3.5,0.5,5,0.8C72.4,91.6,70.6,91.4,69.1,91.1z"/>
							<path class="st1" d="M61.5,90c0.9,0.1,1.7,0.3,2.8,0.4C63.3,90.3,62.5,90.1,61.5,90z M68.5,91.1c-0.5-0.1-1-0.2-1.7-0.3
								C67.3,90.9,67.8,91,68.5,91.1z M65.9,90.5c3.8,0.6,7.6,1.2,11.3,1.8c1.3,0.2,2.6,0.4,3.8,0.6h-0.1c-0.1,0-0.1,0-0.2,0
								s-0.3,0-0.4,0c-0.2,0.1-0.5,0-0.7,0c-1.9-0.3-3.7-0.6-5.8-0.9c-0.9-0.1-1.6-0.3-2.5-0.4c-0.2,0-0.5-0.1-0.7-0.1
								c0.7,0.2,1.4,0.3,2.1,0.4h-0.1c-2-0.3-4-0.6-6-1c-3.1-0.5-6.1-1-9.2-1.5c-0.6-0.1-1.2-0.2-1.8-0.3l0.2-0.1
								c1.2,0.2,2.4,0.3,3.6,0.5c0.5,0.1,1,0.2,1.6,0.2c-0.5-0.1-1.1-0.2-1.7-0.3l0.2-0.1c0.7,0.1,1.4,0.2,2.1,0.3
								C63.1,90.1,64.5,90.3,65.9,90.5z M74.1,91.9c-1.5-0.3-3.4-0.5-5-0.8C70.6,91.4,72.4,91.6,74.1,91.9z"/>
							<path class="st1" d="M66.8,90.8c0.7,0.1,1.1,0.2,1.7,0.3C67.8,91,67.3,90.9,66.8,90.8z"/>
							<path class="st1" d="M61.5,90c1,0.1,1.8,0.3,2.8,0.4C63.2,90.3,62.4,90.1,61.5,90z"/>
							<path class="st1" d="M59.4,89.6c0.6,0.1,1.2,0.2,1.7,0.3c-0.6-0.1-1-0.2-1.6-0.2c-1.2-0.2-2.4-0.3-3.6-0.5
								c-0.1,0-0.2,0-0.2,0c-1-0.2-2-0.3-3-0.5c-1.1-0.2-2.2-0.4-3.2-0.6c-0.1,0-0.1,0-0.1-0.1c0.3,0,0.5,0.1,0.8,0.1
								s0.5,0.1,0.8,0.1c2.5,0.5,5.2,0.9,8,1.3C59.1,89.5,59.3,89.6,59.4,89.6z"/>
							<path class="st1" d="M48.7,88c-3.7-0.6-7.2-1.3-10.8-1.9c0.3-0.1,0.6,0,1,0c1.8,0.3,3.7,0.6,5.6,0.9c1.5,0.2,3,0.5,4.5,0.7
								c3,0.5,5.7,1,8.6,1.5c0.6,0.1,1.3,0.2,1.9,0.3l-0.2,0.1c-0.1,0-0.3,0-0.4-0.1c-2.8-0.4-5.5-0.8-8-1.3c-0.3,0-0.5-0.1-0.8-0.1
								S49.6,88,49.3,88c0,0,0.1,0,0.1,0.1c1,0.2,2.1,0.4,3.2,0.6c1,0.2,2,0.3,3,0.5c0.1,0,0.2,0,0.2,0l-0.2,0.1
								c-2.8-0.5-5.7-0.9-8.5-1.4l0.1-0.1C47.8,87.8,48.3,87.9,48.7,88z"/>
							<path class="st1" d="M39.6,83c3,0.8,3.6,1.6,3.8,2.2c0.2,0.4-0.6,1-1.4,1.3c0,0-0.2,0-0.4-0.1c-0.8-0.1-1.6-0.2-2.4-0.4
								c-0.1,0-0.3,0-0.4-0.1c-0.4-0.1-0.8-0.3-1.3-0.4c0.2,0,1.3-0.1,1.6-0.7c0.1-0.2-0.4-0.4-0.9-0.6c-0.4-0.2-1.1-0.3-1.5-0.5
								c-0.9-0.3-2.2-0.5-3.5-0.6c-2.5-0.1-4.9-0.1-7.2,0c-1.5,0.1-2.8,0.2-3.1,0.5c-0.3,0.4,0.8,0.9,1.3,1.2
								c0.4,0.2,1.1,0.5,2.2,0.6c0.7,0.1,1.3,0.2,2,0.3c1.5,0.2,4.3,0.5,6.8,0.2c1,0.1,1.9,0.3,2.8,0.4c1.1,0.2,1.7,0.2,2.8,0.5
								c0,0-0.3,0-0.5,0.1c-1.2,0.1-2.1,0.2-3.4,0.2c-1,0-2,0-3-0.1c-1.9-0.1-3.8-0.2-5.6-0.4c-1.7-0.1-5.3-0.7-7.4-1.3
								c-0.9-0.3-2-0.6-3.2-0.8c-1.1-0.2-2.1-0.4-2.7-0.5c-1.2-0.2-1.6-0.4-1.9-0.5c-0.5-0.2-1.3-0.6-1.1-0.8c0.2-0.2,1-0.5,1.6-0.5
								c1.3-0.1,3.6-0.4,3.9-0.8l0,0c0.2-0.2-0.5-0.7-1.7-0.9c-0.3,0-0.5-0.1-0.8-0.1c-0.7-0.1-1.2-0.2-1.2-0.4
								c0-0.2,0.3-0.5,1.1-0.6c1.2-0.2,2.5-0.3,3.8-0.5c0.8-0.1,1.1-0.3,1.1-0.5c0-0.1-0.2-0.2-0.3-0.3c-0.2-0.2-0.4-0.5-1-0.7
								c-0.9-0.4-2.3-0.6-3.8-0.9c-0.6-0.1-1.2-0.2-1.8-0.3c-1.3-0.2-1.8-0.6-0.7-0.8c0.4-0.1,0.8-0.2,1.2-0.2
								c0.5-0.1,0.6-0.4-0.5-0.5c-0.3,0-0.6-0.1-0.8-0.2c-0.4-0.1-0.5-0.2-0.4-0.3l0,0c0.5-0.2,1.6-0.2,2.7-0.2c0.1,0,0.2,0,0.3,0
								c0.5,0.1,0.7,0.2,0.9,0.3c0.1,0.1-0.2,0.2-0.4,0.2c-0.1,0-0.1,0.1-0.1,0.1c0,0.1,0.3,0.3,0.6,0.4c0.2,0.1,0.5,0.2,0.1,0.3
								c-0.4,0.1-0.5,0.2-0.4,0.4c0.2,0.2,1,0.4,1.9,0.5s1.8,0.2,2.7,0.4c1.3,0.2,2.6,0.5,3.5,0.8c1,0.4,1.4,0.6,0.3,0.8
								c-0.3,0.1-0.6,0.1-1,0.2c-1.2,0.2-1.3,0.5-0.9,0.9s1.5,0.9,3.4,1.4c0.2,0.1,0.5,0.1,0.8,0.2c0.1,0,0.3,0,0.4,0.1
								c2.1,0.4,4.4,0.7,6.6,1C34.6,82,37,82.3,39.6,83z"/>
							<path class="st1" d="M45.9,87.6c-2.4-0.4-4.9-0.8-7.2-1.2c-0.6-0.1-0.6-0.1-0.7-0.3c3.2,0.6,6.3,1.1,9.5,1.6l-0.1,0.1
								C46.8,87.8,46.3,87.7,45.9,87.6z"/>
							<path class="st1" d="M36.1,83.7c1.7,0.4,4.5,1.2,1.5,1.9c-0.7-0.2-1.5-0.3-2.3-0.5c-1.8-0.4-3.9-0.6-6.1-0.8
								c-0.6,0-0.8,0-0.9,0.1c0,0.1,0.1,0.2,0.4,0.3c0.8,0.3,1.8,0.5,3,0.7c1.1,0.2,2.3,0.3,3.5,0.5c-0.3,0-1.9,0.1-3.5,0
								c-1.5-0.1-3-0.2-4.3-0.5c-1-0.2-2.1-0.3-2.6-0.6c-0.2-0.1-0.5-0.2-0.7-0.3c-0.2-0.1-1.1-0.5-0.9-0.9s1.3-0.4,1.7-0.4
								c2.1-0.2,4.4-0.2,6.9-0.1C33.5,83.3,35,83.5,36.1,83.7z"/>
							<path class="st1" d="M35.9,85.4c0.7,0.2,1.5,0.4,2.3,0.5c-0.9,0-1.1,0.1-1.1,0.2c-1.6-0.2-3.2-0.4-4.8-0.7
								c-1.2-0.2-2.1-0.4-3-0.6c-0.1,0-0.2,0-0.2-0.1c-0.2-0.1-0.5-0.2-0.2-0.3c0.2-0.1,0.6,0,1,0c0.2,0,0.5,0,0.7,0.1
								c0,0-0.2,0-0.3,0c-0.4,0-0.4,0.2,0.1,0.2c0.5,0.1,1,0.1,1.6,0.1c0.3,0,0.5,0,0.5-0.1c0,0,0-0.1-0.2-0.1h0.1
								C33.7,84.9,34.9,85.1,35.9,85.4z"/>
							<path class="st1" d="M32.2,84.7c0.1,0,0.1,0,0.2,0h-0.1C32.2,84.7,32.1,84.7,32.2,84.7c-0.5,0.1-1,0-1.5,0
								c-0.2,0-0.3,0-0.3-0.1c0,0,0.1,0,0.3-0.1C31.2,84.6,31.7,84.7,32.2,84.7z"/>
							<path class="st1" d="M25.6,80.5c2.2,0.4,7.8,1.2,8.8,1.3c1.1,0.2,3.9,0.7,5.3,1.1c1.9,0.6,3.1,0.8,3.9,2.1
								c0.3,0.5-0.5,1.2-1.3,1.5H42c0.8-0.3,1.5-0.9,1.4-1.3c-0.3-0.7-0.8-1.4-3.8-2.2c-2.5-0.7-4.9-1.1-6.4-1.3
								c-2.2-0.3-4.5-0.6-6.6-1C26.3,80.7,25.9,80.6,25.6,80.5z"/>
							<path class="st1" d="M26.6,80.8c-0.1,0-0.3,0-0.4-0.1c-0.3-0.1-0.6-0.1-0.8-0.2C25.7,80.6,26.2,80.7,26.6,80.8z"/>
							<path class="st1" d="M25.6,80.5c0.3,0.1,0.7,0.2,1,0.3c-0.4-0.1-0.9-0.2-1.2-0.3c-0.3-0.1-0.5-0.1-0.6-0.2
								C24.9,80.4,25.2,80.4,25.6,80.5z"/>
							<path class="st1" d="M38.2,85.9c-0.8-0.2-1.5-0.4-2.3-0.5c-1-0.2-2.2-0.5-3.5-0.6c-0.1,0-0.1,0-0.2,0c-0.5-0.1-1-0.1-1.5-0.1
								c-0.1,0-0.3,0-0.3,0.1c0,0,0.1,0.1,0.3,0.1c0.5,0.1,1,0.1,1.4,0c0.1,0,0.2,0,0.2,0c0.1,0,0.2,0,0.2,0.1s-0.2,0.1-0.5,0.1
								c-0.6,0-1.1-0.1-1.6-0.1c-0.5-0.1-0.5-0.2-0.1-0.2c0.1,0,0.3,0,0.3,0c-0.2,0-0.5,0-0.7-0.1c-0.3,0-0.8-0.1-1,0
								s0.1,0.2,0.2,0.3c0,0,0.1,0,0.2,0.1c0.8,0.2,1.8,0.5,3,0.6c1.6,0.2,3.1,0.5,4.8,0.7C37.1,86,37.3,85.9,38.2,85.9z M43.6,87.3
								c-0.2,0-2.1-0.3-2.3-0.4l-0.5-0.1c-1.1-0.2-1.6-0.3-2.8-0.5c-0.9-0.1-1.9-0.3-2.8-0.4c-1.2-0.2-2.4-0.3-3.5-0.5
								c-1.2-0.2-2.2-0.4-3-0.7c-0.3-0.1-0.4-0.2-0.4-0.3c0-0.1,0.2-0.2,0.9-0.1c2.3,0.1,4.3,0.4,6.1,0.8c0.8,0.2,1.6,0.3,2.3,0.5
								c0.5,0.1,0.9,0.2,1.3,0.4c0.1,0,0.2,0.1,0.4,0.1c0.8,0.1,1.6,0.2,2.4,0.4c0.3,0,0.4,0.1,0.4,0.1l0.3,0.1
								c2.3,0.3,4.5,0.7,6.8,1.1c3.5,0.6,6.9,1.2,10.5,1.7c2.4,0.4,4.7,0.8,7,1.1c2.7,0.4,5.5,0.9,8.2,1.3c1.9,0.3,3.9,0.6,5.8,0.9
								c0.6,0.1,1.2,0.2,1.4,0.4c0.1,0.2-0.2,0.2-1,0.2s-1.4-0.2-2.1-0.3c-2.5-0.4-4.9-0.8-7.3-1.2c-2.2-0.4-4.4-0.7-6.6-1.1
								c-2.7-0.4-5.4-0.9-8.1-1.3c-1.7-0.3-3.3-0.6-5-0.8C49.1,88.2,46.4,87.7,43.6,87.3z M38.6,86.4c2.3,0.4,4.8,0.8,7.2,1.2
								c0.5,0.1,0.9,0.1,1.4,0.2c2.9,0.5,5.7,0.9,8.5,1.4c0.6,0.1,1.2,0.2,1.8,0.3c3.1,0.5,6.1,1,9.2,1.5c2,0.3,4,0.6,6,1
								c1.8,0.3,3.6,0.6,5.4,0.9c0.5,0.1,1,0.2,1.6,0.3c0.1,0,0.4,0.1,0.4,0c0,0,0.2-0.1-0.2-0.1c-0.4-0.1-0.8-0.1-1.3-0.2
								c-1.3-0.2-2.7-0.4-4.1-0.6C74,92.1,73.4,92,72.8,92c-0.7-0.1-1.4-0.3-2.1-0.4c0.2,0,0.5,0.1,0.7,0.1c0.8,0.1,1.6,0.3,2.5,0.4
								c2,0.2,3.9,0.6,5.8,0.9c0.2,0,0.5,0.1,0.7,0c0,0,0.2,0,0.4,0c0.1,0,0.1,0,0.2,0s0.1,0,0.1,0c0.1,0-0.1,0-0.2,0
								c-0.3,0-0.4,0.1-0.4,0.2s0.2,0.1,0.5,0.1c0.2,0,0.5,0,0.4-0.1s0-0.2-0.5-0.3c-1.3-0.2-2.6-0.4-3.8-0.6
								c-3.8-0.6-7.5-1.2-11.3-1.8c-1.4-0.2-2.8-0.4-4.2-0.7c-0.7-0.1-1.4-0.2-2.1-0.3c-0.7-0.1-1.3-0.2-1.9-0.3
								c-2.9-0.5-5.7-1-8.6-1.5c-1.5-0.2-3-0.5-4.5-0.7c-1.9-0.3-3.8-0.6-5.6-0.9c-0.4-0.1-0.7-0.1-1,0c3.6,0.6,7.2,1.3,10.8,1.9
								c-0.5-0.1-0.9-0.1-1.4-0.2c-3.2-0.5-6.3-1.1-9.5-1.6C38,86.3,38,86.3,38.6,86.4z"/>
							<path class="st1" d="M15.6,74.8c0.2,0.1,0.5,0.2,0.6,0.4c0,0,0.1,0.1-0.1,0.1c-1.1,0.3-0.5,0.5,0.9,0.8
								c0.7,0.1,1.5,0.2,2.3,0.3c1.8,0.3,3.3,0.6,4.6,1c0.4,0.1,0.5,0.2,0.8,0.4c0.4,0.2,0,0.3-0.5,0.5c-0.5,0.1-1,0.2-1.6,0.3
								c-0.7,0.1-0.7,0.3-0.5,0.6c0.6,0.7,1.9,1.1,3.4,1.5c-0.4-0.1-0.7-0.1-0.8-0.2c0.2,0.1,0.4,0.2,0.6,0.2
								c-1.9-0.4-3-0.9-3.4-1.4c-0.3-0.4-0.3-0.7,0.9-0.9c0.4-0.1,0.6-0.1,1-0.2c1.1-0.2,0.7-0.4-0.3-0.8c-0.9-0.3-2.2-0.6-3.5-0.8
								c-0.8-0.1-1.8-0.3-2.7-0.4c-0.9-0.1-1.8-0.3-1.9-0.5c-0.1-0.1-0.1-0.3,0.4-0.4c0.4-0.1,0.1-0.2-0.1-0.3
								c-0.3-0.1-0.6-0.3-0.6-0.4c0,0,0-0.1,0.1-0.1c0.2,0,0.5-0.1,0.4-0.2c-0.2-0.1-0.4-0.2-0.9-0.3c-0.1,0-0.2,0-0.3,0
								c-1.1,0-2.2,0-2.7,0.2l0,0h-0.1c0.2-0.1,0.7-0.2,1.3-0.2c0.1,0,0.9-0.1,1.7,0s1.9,0.5,1.1,0.6C15.1,74.5,15.4,74.7,15.6,74.8
								z"/>
							<path class="st1" d="M37.6,85.6c3-0.7,0.2-1.5-1.5-1.9c-1.1-0.3-2.5-0.5-4.1-0.6c-2.6-0.1-4.9-0.1-6.9,0.1
								c-0.5,0-1.6,0.1-1.7,0.4c-0.2,0.4,0.7,0.8,0.9,0.9c0.2,0.1,0.4,0.2,0.7,0.3c0.5,0.3,1.6,0.4,2.6,0.6c1.3,0.2,2.8,0.4,4.3,0.5
								c1.6,0.1,3.1,0,3.5,0c-2.5,0.3-5.3,0-6.8-0.2c-0.7-0.1-1.3-0.2-2-0.3c-1.1-0.2-1.7-0.4-2.2-0.6c-0.5-0.3-1.6-0.7-1.3-1.2
								c0.2-0.3,1.6-0.5,3.1-0.5c2.3-0.1,4.7-0.1,7.2,0.1c1.3,0.1,2.6,0.3,3.5,0.6c0.5,0.2,1.2,0.3,1.5,0.5c0.4,0.2,1,0.4,0.9,0.6
								C38.9,85.5,37.8,85.6,37.6,85.6z"/>
							<path class="st1" d="M17.4,81.1L17.4,81.1L17.4,81.1c-0.1,0.2-0.2,0.2-0.4,0.2l0.1-0.1C17.3,81.3,17.4,81.2,17.4,81.1z"/>
							<path class="st1" d="M18.4,77.3c0.6,0.2,0.8,0.5,1,0.7c0.1,0.1,0.2,0.2,0.3,0.3c0.1,0.2-0.3,0.4-1.1,0.5
								c-1.3,0.2-2.6,0.3-3.8,0.5c-0.8,0.1-1.1,0.3-1.1,0.6c0,0.2,0.4,0.3,1.2,0.4c0.3,0,0.6,0.1,0.8,0.1c1.3,0.2,2,0.6,1.7,0.9
								v-0.1c-0.1,0.1-0.2,0.1-0.3,0.2c0.1-0.1,0-0.3-0.1-0.4c-0.3-0.3-1-0.4-2-0.6c-1.3-0.2-1.7-0.3-1.6-0.7c0.1-0.3,1-0.5,2.1-0.6
								c1-0.1,1.9-0.2,2.9-0.3c0.9-0.1,1.1-0.3,0.9-0.6C19,78,19,77.8,18.8,77.6c-0.2-0.2-0.9-0.4-1.5-0.6c-1.1-0.2-2.1-0.5-3.5-0.7
								c-0.5-0.1-1-0.2-1.4-0.2c-1.3-0.3-1.8-0.6-0.4-0.9c0.4-0.1,0.7-0.1,1-0.2c0.5-0.1,0.4-0.3-0.4-0.4c-0.5-0.1-1-0.2-1.2-0.3
								c-0.1-0.1,0-0.1,0.1-0.2h0.1c-0.1,0.1,0,0.2,0.4,0.3c0.3,0.1,0.5,0.1,0.8,0.2c1.2,0.2,1.1,0.4,0.5,0.5
								c-0.4,0.1-0.7,0.2-1.2,0.2c-1.1,0.2-0.6,0.6,0.7,0.8c0.6,0.1,1.2,0.2,1.8,0.3C16.1,76.7,17.5,76.9,18.4,77.3z"/>
							<path class="st1" d="M36.9,87.1c1.4,0,2.3-0.1,3.4-0.2c0.2,0,0.5-0.1,0.5-0.1l0.5,0.1c0,0-0.2,0-0.9,0.1
								c-2.9,0.2-6.2,0.2-9.8-0.1c-1.4-0.1-4-0.4-5.3-0.6c-1.5-0.3-3.4-0.7-4.6-1s-1.4-0.4-3.2-0.9c-0.8-0.2-2.4-0.5-3.1-0.6
								c-0.8-0.1-1.3-0.3-1.7-0.5c-0.5-0.3-1.1-0.6-0.9-0.8c0.2-0.3,0.8-0.4,1.8-0.6c0.9-0.1,2.9-0.3,3.7-0.7c0,0,0,0.1-0.1,0.1
								c0.2,0,0.3-0.1,0.4-0.1c-0.2,0.3-2.6,0.7-3.9,0.8c-0.6,0.1-1.4,0.3-1.6,0.5c-0.2,0.3,0.6,0.6,1.1,0.8
								c0.3,0.1,0.7,0.3,1.9,0.5c0.5,0.1,1.6,0.3,2.7,0.5c1.2,0.3,2.3,0.6,3.2,0.8c2.1,0.7,5.7,1.2,7.4,1.3c1.9,0.2,3.7,0.3,5.6,0.4
								C34.9,87.1,35.9,87.1,36.9,87.1z"/>
						</g>
					</g>
				</g>
			</g>
		</g>
		<g id="XMLID_27_">
			<g id="XMLID_116_">
				<path id="XMLID_118_" class="st2" d="M27.6,54.6C26.3,53,24,52.4,23.8,50c-0.1-1.7,0.1-3.6,1.2-5.1c0.1-0.1-0.1-0.2-0.1-0.1
					c-1.3,1.5-1.6,3.6-1.4,5.6c0.1,0.9,0.5,1.4,1.1,1.9c0.9,0.8,1.8,1.8,2.9,2.4C27.6,54.7,27.6,54.6,27.6,54.6z"/>
				<path id="XMLID_117_" class="st2" d="M23.5,52.9c-0.9-1-1.5-1.9-1.7-3.3h-0.1c0,1.3,0.5,2.7,1.6,3.4
					C23.5,53.1,23.6,53,23.5,52.9z"/>
			</g>
			<g id="XMLID_112_">
				<path id="XMLID_115_" class="st2" d="M56.7,52.2c-0.5-1.7-1.6-3.1-2.1-4.8c0-0.1-0.1,0-0.1,0c0.4,1.5,1.2,2.8,1.7,4.3
					c0.5,1.7,0.3,3.2,0.1,4.9c0,0.1,0.2,0.1,0.2,0C56.9,55.2,57.1,53.7,56.7,52.2z"/>
				<path id="XMLID_114_" class="st2" d="M58.3,51.2C58.3,51.1,58.1,51.1,58.3,51.2c0.2,1.1,0,2-0.2,3.1c0,0.1,0.1,0.1,0.1,0
					C58.8,53.4,58.7,52.2,58.3,51.2z"/>
				<path id="XMLID_113_" class="st2" d="M59.8,52.4c0-0.1-0.2-0.1-0.2,0c0,0.4-0.1,0.8-0.2,1.3c0,0.1,0.1,0.1,0.1,0.1
					C59.8,53.3,59.8,52.8,59.8,52.4z"/>
			</g>
			<g id="XMLID_109_">
				<path id="XMLID_111_" class="st2" d="M33.4,28.8c-1.4,0.8-3.1,1.8-3,3.6c0,0.1,0.1,0.1,0.1,0C30.7,30.7,32,29.7,33.4,28.8
					C33.4,28.9,33.4,28.8,33.4,28.8z"/>
				<path id="XMLID_110_" class="st2" d="M29.8,29.8c-0.1,0.1-0.1,0.2-0.2,0.3c-0.1,0.1-0.1,0.2-0.2,0.3c0,0.1,0.1,0.1,0.1,0.1
					c0.1-0.1,0.1-0.2,0.2-0.3l0.2-0.3C30,29.8,29.8,29.7,29.8,29.8z"/>
			</g>
			<g id="XMLID_106_">
				<path id="XMLID_108_" class="st2" d="M44.4,20.2c-0.1-0.1-0.2,0.1-0.1,0.1c0.9,0.8,1.8,1.8,1.8,3.1c0,0.1,0.1,0.1,0.2,0
					C46.9,22.2,45.3,20.8,44.4,20.2z"/>
				<path id="XMLID_107_" class="st2" d="M46.9,21.3C46.8,21.3,46.8,21.4,46.9,21.3c0.1,0.2,0.1,0.4,0.2,0.6c0,0.2,0,0.3,0.1,0.5
					c0,0.1,0.1,0.1,0.1,0C47.4,22.1,47.1,21.6,46.9,21.3z"/>
			</g>
			<g id="XMLID_28_">
				<g id="XMLID_29_">
					<g id="XMLID_52_">
						<path class="st3" d="M81.9,92.2c0.2,0.3,0,0.7,0,1.1c0,0.3-0.3,0.3-0.5,0.3c-0.4,0-0.4-0.1-0.4-0.4c0.1-0.4,0.3-0.6,0.6-0.8
							c0.1,0,0.3,0,0.2-0.1l0,0L81.9,92.2z"/>
						<path class="st4" d="M78.4,105.1c0.2,0.3,0.1,0.7-0.2,0.9c-0.7,0.4-1.4,0.5-2.2,0.6c-1.1,0.1-2.2,0.1-3.2,0.2
							c-0.4,0-0.8-0.1-1.2-0.1c0.5-0.5,0.5-0.9,0.1-1.5c0.9-0.3,1.9-0.5,2.8-0.7c0.8-0.1,1.6-0.2,2.4-0.2
							C77.5,104.3,78,104.6,78.4,105.1z"/>
						<path class="st3" d="M76.2,88.9c1.2,0.8,2.2,1.7,3.3,2.7c0.3,0.3,0.6,0.6,1,0.9c0.3,0.2,0.1,0.4,0,0.5c-0.2,0.3-0.3,0-0.4,0
							c-0.4-0.4-0.8-0.7-1.2-1.1c-1.4-1.3-2.8-2.6-4.2-3.9l0.1-0.1C75.2,88.1,75.7,88.5,76.2,88.9z"/>
						<path class="st5" d="M72.1,84c1.3,1.2,2.9,2.1,4,3.6C74.8,86.3,73.2,85.4,72.1,84z"/>
						<path class="st5" d="M70.3,82.6c0.6,0.2,0.9,0.7,1.3,1.2C71,83.5,70.7,83,70.3,82.6z"/>
						<path class="st5" d="M66,79c0.9,0.5,1.5,1.3,2.3,1.9C67.3,80.5,66.7,79.7,66,79z"/>
						<path class="st3" d="M76.1,87.5c-1.1-1.4-2.7-2.3-4-3.6C73.2,85.4,74.8,86.3,76.1,87.5z M66,79c0.7,0.6,1.3,1.5,2.3,1.9
							C67.4,80.4,66.9,79.5,66,79z M71.6,83.8c-0.4-0.5-0.7-0.9-1.3-1.2C70.7,83,71,83.5,71.6,83.8z M78.7,89.3c1,0.9,2,1.8,3,2.7
							c0.1,0.1,0.1,0.1,0.1,0.2h-0.1c0-0.1-0.2-0.1-0.3-0.1c-0.1,0-0.3,0-0.4,0c-0.3,0.4-0.5,0.1-0.7-0.1c-1.4-1.4-2.9-2.8-4.6-3.9
							c-0.7-0.5-1.3-1.2-2-1.7c-0.2-0.1-0.4-0.3-0.6-0.4c0.5,0.7,1,1.3,1.6,1.8l-0.1,0.1c-1.6-1.4-3.1-2.9-4.7-4.3
							c-2.4-2.2-4.8-4.4-7.3-6.6c-0.5-0.4-1-0.9-1.4-1.3l0.3-0.3c0.9,0.8,2,1.5,2.9,2.2c0.4,0.3,0.8,0.8,1.3,1.1
							c-0.5-0.7-1-1.3-1.7-1.7l0.3-0.4c0.7,0.5,1.4,1.1,2,1.7c1.1,1,2.2,2,3.3,3C72.7,83.9,75.7,86.6,78.7,89.3z"/>
						<path class="st5" d="M59,73c-0.9-0.8-1.7-1.7-2.4-2.6c0-0.1-0.1-0.1,0-0.3c0.2,0.2,0.4,0.4,0.6,0.6c0.2,0.2,0.4,0.4,0.6,0.6
							c1.9,2.1,4,4.1,6.3,5.6c0.7,0.5,1.2,1,1.7,1.7c-0.5-0.3-0.8-0.7-1.3-1.1c-1-0.8-2-1.4-2.9-2.2c-0.1-0.1-0.1-0.1-0.2-0.2
							C60.6,74.5,59.8,73.8,59,73z"/>
						<path class="st3" d="M55.8,70.3c-2.9-2.7-5.5-5.6-8.4-8.4c0.4-0.2,0.7-0.2,1,0.1c1.4,1.4,2.9,2.7,4.4,4
							c1.2,1.1,2.4,2.2,3.6,3.2c2.4,2,4.4,4.4,6.7,6.4c0.4,0.3,0.8,0.7,1.2,1L64.1,77c-2.4-1.6-4.5-3.5-6.3-5.6
							c-0.2-0.2-0.4-0.4-0.6-0.6c-0.2-0.2-0.4-0.4-0.6-0.6c0,0.1,0,0.2,0,0.3c0.7,1,1.5,1.8,2.4,2.6c0.8,0.7,1.6,1.4,2.4,2.2
							c0.1,0.1,0.1,0.1,0.2,0.2l-0.3,0.3c-2.2-2-4.5-4.1-6.7-6.1l0.2-0.2C55.1,69.6,55.4,70,55.8,70.3z"/>
						<path class="st2" d="M53,48.4c1.9,3.7,1.6,6.9,1,9.7c-0.3,1.7-1.9,4.4-3,5.6c0,0-0.1-0.1-0.3-0.3c-0.6-0.6-1.3-1.1-1.9-1.7
							c-0.1-0.1-0.2-0.2-0.3-0.3c-0.2-0.6-0.5-1.1-0.8-1.6c0.3-0.2,1.5-0.6,2.4-2.9c0.4-0.9,0.1-1.8-0.1-2.7
							c-0.1-0.8-0.6-1.4-0.9-2.1c-0.5-1.3-1.5-2.2-2.7-2.8c-2.2-1.1-4.6-1.1-7-0.6c-1.6,0.3-3.1,0.9-3.8,2.4c-0.9,2-0.3,3.9-0.2,5.2
							c0.1,1.1,0.5,2.1,1.4,2.8c0.5,0.5,1,1,1.5,1.4c1.2,1,3.6,2.3,6.5,1l0,0c0.8,0.6,1.6,1.2,2.3,1.9c0.9,0.8,1.3,1.1,2.2,2
							c0,0-0.4,0.2-0.5,0.2c-1.3,0.4-2.3,0.7-3.6,0.7c-1,0-2,0-2.9-0.2c-1.8-0.4-3.4-1.1-5.1-1.8c-1.5-0.7-4.4-3-5.7-5.9
							c-0.5-1.2-1.3-2.6-2.1-3.7c-0.8-1-1.6-1.9-2-2.4c-0.9-1.1-1.1-1.8-1.2-2.4c-0.2-0.9-0.5-2.5,0-3.7c0.5-1,1.6-2,2.3-2.2
							c1.5-0.5,4.2-1.9,4.9-3.4l0,0c0.6-1.1,0.4-3.1-0.6-3.9c-0.2-0.2-0.4-0.4-0.7-0.5c-0.6-0.4-0.9-1-0.7-1.7
							c0.3-1.1,0.9-2,1.8-2.5c1.4-0.8,2.9-1.4,4.4-2.1c0.9-0.5,1.5-1.2,1.7-2.2c0.1-0.5,0.1-0.9,0.1-1.4c0.1-1,0.2-2.1,0-3.1
							c-0.4-1.6-1.5-2.8-2.6-3.9c-0.5-0.4-1-0.8-1.4-1.2c-1-1.1-1.1-2.6,0.3-3.5c0.5-0.3,1-0.7,1.5-1.1c0.7-0.5,1.1-1.7,0.2-2.4
							c-0.2-0.2-0.4-0.5-0.6-0.7C36.5,10,36.6,9.3,36.9,9l0,0c0.8-0.9,1.9-0.9,2.9-0.8c0.1,0,0.2,0.1,0.3,0.2
							c0.4,0.5,0.5,0.8,0.5,1.3c0,0.3-0.4,0.8-0.6,0.9c-0.1,0.1-0.2,0.3-0.2,0.5c-0.2,0.6,0,1.2,0.1,1.7s0.2,1-0.3,1.4
							s-0.7,0.9-0.8,1.6c-0.1,1.1,0.5,1.8,1.2,2.4s1.5,1.1,2.2,1.7c1,1,2,2.1,2.5,3.5C45.3,25,45.3,26,44,27
							c-0.4,0.3-0.8,0.6-1.2,0.9c-1.5,0.9-2,2.3-2.1,3.9c-0.1,1.8,0.3,4,1.7,6c0.2,0.3,0.4,0.6,0.6,0.8c0.1,0.1,0.2,0.2,0.3,0.3
							c1.6,1.6,3.5,2.9,5.3,4.3C49.4,43.8,51.4,45.3,53,48.4z"/>
						<path class="st3" d="M47.3,62c2.4,2.5,4.8,5,7.4,7.3l-0.2,0.2c-0.4-0.3-0.7-0.7-1.1-1c-1.9-1.7-3.9-3.4-5.7-5.3
							C47.3,62.7,47.3,62.7,47.3,62z"/>
						<path class="st3" d="M50.7,103.2c-0.9,0.1-1.7,0.2-2.6,0.2c-0.3,0-0.6-0.1-1-0.1c-3.4,0-6.8,0-10.2,0v-0.5c1,0,2,0,2.9-0.1
							c2.4-0.2,4.8-0.1,7.1-0.1c1.9,0,3.8,0,5.7,0c0.7,0,1.3-0.2,2-0.1C53.3,102.8,52,103,50.7,103.2z"/>
						<path class="st4" d="M46.4,58.8c0.5,0.8,1,1.5,1.6,2.4c-0.9,0.1-1.2,0.3-1.3,0.9c-1.4-0.9-2.6-1.9-3.9-2.9
							c-0.9-0.8-1.6-1.7-2.1-2.8c0-0.1-0.1-0.2-0.1-0.3c0-0.4-0.2-0.9,0.1-1.2s0.6,0,0.9,0.1c0.2,0,0.4,0.1,0.7,0.2
							c-0.1,0.2-0.2,0.1-0.4,0.1c-0.5,0.2-0.6,0.7-0.2,1c0.4,0.4,0.9,0.6,1.4,0.6c0.3,0,0.6-0.1,0.6-0.4c0-0.1,0-0.2-0.1-0.3
							l0.1-0.2C44.8,56.8,45.7,57.7,46.4,58.8z"/>
						<path class="st6" d="M42,59.2c0.9,0.8,1.9,1.5,2.8,2.3l0,0c-0.4,0.2-2,0.4-3.5,0.1c-1.5-0.3-2.7-1.1-3.7-2.1
							c-0.8-0.8-1.7-1.4-1.8-2.6c-0.1-0.5-0.2-1-0.2-1.5c0-0.6-0.4-2.4,0.3-4.1c0.6-1.6,1.8-1.8,2.3-2c2.3-0.8,4.6-0.9,7-0.3
							c1.5,0.4,2.7,1.3,3.4,2.5c1.1,1.9,3,5.1-0.9,8.3c-0.5-0.8-1-1.5-1.6-2.2c-1.3-1.6-3-2.8-5.1-3.4c-0.6-0.1-0.8,0-1,0.6
							c-0.2,0.5-0.2,1,0,1.4C40.4,57.3,41,58.4,42,59.2z"/>
						<path class="st4" d="M43.5,55.9c0.1,0,0.1,0.1,0.2,0.1l-0.1,0.2c-0.1,0-0.2,0-0.3,0c-0.5,0.3-0.9,0.1-1.3-0.1
							c-0.1-0.1-0.2-0.2-0.2-0.3s0.2-0.2,0.3-0.2C42.6,55.5,43.1,55.6,43.5,55.9z"/>
						<path class="st2" d="M48.3,42.8c-1.8-1.4-3.7-2.7-5.3-4.3c-0.2-0.4-0.5-0.8-0.7-1.2c1.7,2,6.3,5.2,7.1,5.9
							c0.9,0.8,3,3.2,3.8,5c1.1,2.5,2,3.7,1.2,9.3c-0.3,2-2.1,5.4-3.2,6.4L51,63.7c1.1-1.1,2.7-3.9,3-5.6c0.6-2.9,0.9-6-1-9.7
							C51.4,45.3,49.4,43.8,48.3,42.8z"/>
						<path class="st7" d="M43,38.5c-0.1-0.1-0.2-0.2-0.3-0.3c-0.2-0.2-0.4-0.5-0.6-0.8C42.3,37.8,42.6,38.1,43,38.5z"/>
						<path class="st2" d="M42.3,37.3c0.2,0.4,0.4,0.8,0.7,1.2c-0.3-0.4-0.6-0.7-0.9-1.1c-0.2-0.3-0.3-0.6-0.3-1
							C41.8,36.6,42,37,42.3,37.3z"/>
						<path class="st5" d="M46.4,58.8c-0.7-1.1-1.6-2-2.7-2.7c-0.1,0-0.1-0.1-0.2-0.1c-0.4-0.3-0.9-0.4-1.4-0.3
							c-0.1,0-0.3,0.1-0.3,0.2c0,0.2,0.1,0.2,0.2,0.3c0.4,0.3,0.8,0.5,1.3,0.1c0.1-0.1,0.2-0.1,0.3,0s0.1,0.2,0.1,0.3
							C43.5,56.9,43.3,57,43,57c-0.6,0-1-0.3-1.4-0.6s-0.2-0.8,0.2-1c0.1-0.1,0.3,0,0.4-0.1c-0.2-0.1-0.4-0.2-0.7-0.2
							c-0.3-0.1-0.6-0.4-0.9-0.1c-0.3,0.3-0.2,0.8-0.1,1.2c0,0.1,0.1,0.2,0.1,0.3c0.5,1.1,1.2,2,2.1,2.8c1.3,1.1,2.5,2,3.9,2.9
							c0.2-0.6,0.4-0.9,1.3-0.9C47.4,60.3,46.9,59.5,46.4,58.8z M81.8,93.3c0-0.3,0.2-0.7,0-1.1c0-0.1-0.1-0.1-0.1-0.2
							c-1-0.9-2-1.8-3-2.7c-3-2.7-6-5.4-9-8c-1.1-1-2.2-1.9-3.3-3c-0.6-0.6-1.3-1.2-2-1.7c-0.4-0.3-0.8-0.6-1.2-1
							c-2.3-2-4.4-4.4-6.7-6.4c-1.2-1-2.4-2.2-3.6-3.2c-1.5-1.3-3-2.6-4.4-4c-0.3-0.3-0.6-0.4-1-0.1c2.8,2.8,5.5,5.7,8.4,8.4
							c-0.4-0.3-0.7-0.6-1.1-1c-2.5-2.3-4.9-4.7-7.4-7.3c-0.1,0.7,0,0.7,0.4,1.2c1.8,1.9,3.7,3.6,5.7,5.3c0.4,0.3,0.7,0.7,1.1,1
							c2.3,2,4.5,4.1,6.7,6.1c0.5,0.4,1,0.9,1.4,1.3c2.4,2.2,4.9,4.4,7.3,6.6c1.6,1.4,3.1,2.9,4.7,4.3c1.4,1.3,2.8,2.6,4.2,3.9
							c0.4,0.4,0.8,0.8,1.2,1.1c0.1,0.1,0.3,0.3,0.4,0c0.1-0.1,0.3-0.3,0-0.5c-0.4-0.3-0.7-0.6-1-0.9c-1.1-0.9-2.1-1.9-3.3-2.7
							c-0.5-0.3-1-0.7-1.4-1.1c-0.6-0.5-1.1-1.1-1.6-1.8c0.2,0.1,0.4,0.3,0.6,0.4c0.7,0.5,1.2,1.3,2,1.7c1.7,1.1,3.2,2.5,4.6,3.9
							c0.2,0.2,0.4,0.6,0.7,0.1c0.1-0.1,0.2,0,0.4,0c0.1,0,0.2,0,0.3,0.1l0,0c0,0.2-0.2,0.1-0.2,0.1c-0.3,0.2-0.6,0.4-0.6,0.8
							c0,0.3,0.1,0.5,0.4,0.4C81.5,93.6,81.8,93.5,81.8,93.3z M81.5,91.3c0.5,0.4,1,0.8,0.9,1.6c-0.1,0.7-0.5,1-1.2,1
							c-0.8-0.1-1.2-0.7-1.7-1.2c-1.9-1.7-3.9-3.5-5.8-5.2c-1.7-1.6-3.5-3.2-5.2-4.8c-2.1-1.9-4.3-3.8-6.4-5.8
							c-1.3-1.2-2.6-2.4-4-3.6c-2.2-2-4.3-4.1-6.6-6c-0.2-0.1-1.7-1.5-1.8-1.6l-0.4-0.3c-0.8-1-1.3-1.2-2.2-2
							c-0.7-0.7-1.5-1.3-2.3-1.9c-1-0.7-1.9-1.5-2.8-2.3c-1-0.9-1.6-1.9-2.1-3.1c-0.2-0.4-0.1-0.9,0-1.4c0.2-0.6,0.5-0.7,1-0.6
							c2.1,0.5,3.8,1.8,5.1,3.4c0.6,0.7,1.1,1.4,1.6,2.2c0.3,0.5,0.6,1.1,0.8,1.6c0.1,0.1,0.1,0.2,0.3,0.3c0.6,0.6,1.3,1.1,1.9,1.7
							c0.2,0.2,0.3,0.3,0.3,0.3l0.2,0.2c1.9,1.5,3.6,3.2,5.4,4.8c2.7,2.6,5.4,5.2,8.2,7.6c1.9,1.6,3.7,3.3,5.6,5
							c2.2,1.9,4.4,3.9,6.5,5.8C78.4,88.6,79.9,90,81.5,91.3z"/>
						<path class="st2" d="M45.1,24.8c0.1,0.9-0.4,1.5-1.1,2c-0.7,0.5-1.3,1-2,1.5c-0.8,0.6-1.1,1.5-1.2,2.5c-0.2,3,0.5,4.7,1.5,6.5
							c-0.3-0.4-0.5-0.7-0.6-0.9c0,0.4,0.2,0.7,0.3,1c-1.3-1.9-1.8-4.2-1.7-6c0.1-1.6,0.6-3,2.1-3.9c0.4-0.3,0.8-0.6,1.2-0.9
							c1.4-0.9,1.3-2,0.7-3.6C44,21.8,43,20.7,42,19.7c-0.7-0.7-1.4-1.1-2.2-1.7c-0.7-0.6-1.4-1.3-1.2-2.4c0.1-0.6,0.3-1.2,0.8-1.6
							c0.5-0.4,0.4-0.9,0.3-1.4c-0.1-0.6-0.2-1.1-0.1-1.7c0-0.2,0.1-0.4,0.2-0.5c0.2-0.2,0.6-0.6,0.6-0.9c0-0.6-0.1-0.8-0.5-1.3
							c0-0.1-0.1-0.2-0.2-0.2c-1.1-0.1-2.1,0-2.9,0.8l-0.1-0.1c0.4-0.5,0.9-0.8,1.4-0.9c0.1,0,1-0.5,1.7-0.1
							c0.7,0.4,1.2,2.2,0.3,2.7c-0.6,0.3-0.5,1-0.4,1.5s0.2,1,0.2,1.6c0,0.2,0,0.3-0.2,0.5c-1.4,1.2-1.2,2.3-0.1,3.4
							c0.5,0.6,1.3,0.9,1.8,1.5c1.4,1.2,2.6,2.7,3.4,4.4C45.1,23.7,45.1,24.3,45.1,24.8z"/>
						<path class="st3" d="M36.9,102.9v0.5c-1.2,0-2.3,0-3.5,0c-2,0-4,0.1-6.1,0.2c-1.6,0.1-3.2,0.1-4.8,0.2
							c-1.8,0.1-3.7,0.1-5.5,0.2c-0.7,0-1.4,0-2.2,0.1c-0.2,0-0.6,0.1-0.6-0.3c0-0.3,0.4-0.7,0.7-0.7c0.4,0,0.8,0,1.3,0
							c2.9-0.2,5.9,0,8.8,0c2.6,0,5.1-0.2,7.7-0.2C34.1,102.8,35.5,102.9,36.9,102.9z"/>
						<path class="st8" d="M48.6,51.5c-0.7-1.2-1.9-2.1-3.4-2.5c-2.4-0.7-4.7-0.5-7,0.3c-0.6,0.2-1.7,0.4-2.3,2
							c-0.7,1.7-0.3,3.5-0.3,4.1c0,0.5,0.1,1,0.2,1.5c0.2,1.2,1,1.9,1.8,2.6c1,1,2.2,1.8,3.7,2.1s3.1,0,3.5-0.1
							c-2.8,1.3-5.3-0.1-6.5-1c-0.5-0.4-1-1-1.5-1.4c-0.9-0.7-1.2-1.7-1.4-2.8c-0.1-1.3-0.7-3.2,0.2-5.2c0.7-1.5,2.2-2.1,3.8-2.4
							c2.4-0.5,4.8-0.4,7,0.6c1.2,0.6,2.2,1.4,2.7,2.8c0.3,0.7,0.8,1.3,0.9,2.1c0.1,0.9,0.4,1.8,0.1,2.7c-0.9,2.3-2.1,2.7-2.4,2.9
							C51.6,56.7,49.7,53.4,48.6,51.5z"/>
						<path class="st2" d="M33.4,40c0,0.2-0.1,0.4-0.1,0.6l0,0c-0.1,0.3-0.3,0.5-0.5,0.6c0.1-0.1,0.1-0.3,0.2-0.4
							C33,40.5,33.2,40.3,33.4,40z"/>
						<path class="st2" d="M36.7,10.3c0.2,0.3,0.4,0.5,0.6,0.7c1,0.7,0.5,1.9-0.2,2.4c-0.5,0.4-1,0.7-1.5,1.1
							c-1.4,0.9-1.3,2.4-0.3,3.5c0.4,0.5,0.9,0.8,1.4,1.2c1.2,1.1,2.2,2.3,2.6,3.9c0.3,1,0.2,2.1,0,3.1c0,0.5,0,0.9-0.1,1.4
							c-0.2,1-0.8,1.8-1.7,2.2c-1.5,0.7-3,1.3-4.4,2.1c-1,0.5-1.5,1.5-1.8,2.5c-0.2,0.7,0.1,1.3,0.7,1.7c0.2,0.2,0.4,0.4,0.7,0.5
							c1,0.8,1.2,2.8,0.6,3.9c0.1-0.2,0.1-0.4,0.1-0.6c-0.1,0.3-0.3,0.5-0.5,0.8c0.2-0.5,0.3-1.1,0.3-1.7c0.1-1.1-0.5-1.9-1.3-2.5
							c-1.1-0.8-1.3-1.5-0.7-2.9c0.5-1.3,1.6-2.1,2.8-2.6c1.1-0.5,2.2-1,3.3-1.5c1-0.5,1.5-1.4,1.6-2.6c0.1-1,0.2-1.6,0.3-2.6
							c0-0.7-0.4-1.9-0.7-2.4c-0.7-1.1-1.5-2.2-2.6-3c-0.4-0.3-0.8-0.7-1.1-1.1c-0.9-1.1-0.9-2.8,0.8-3.9c0.4-0.3,0.9-0.6,1.3-1
							c0.7-0.6,0.7-1.1,0.1-1.8c-0.4-0.5-0.8-0.9-0.8-1.5c0-0.3,0.2-0.6,0.4-1l0.1,0.1l0,0C36.5,9.2,36.4,9.9,36.7,10.3z"/>
						<path class="st3" d="M33.5,111.2c-1.6,0.3-3.2,0.5-4.8,0.6c-0.6,0.1-1.1,0.2-1.7,0.2c-0.5,0-0.6-0.2-0.4-0.7
							c0.2-0.6,0.6-0.8,1.2-0.7c1.6,0,3.2-0.1,4.8-0.3c1.1-0.1,2.2-0.2,3.3-0.4c1.1-0.1,2.2-0.3,3.3-0.4c1-0.1,2-0.2,3-0.4
							c1.2-0.1,2.4-0.3,3.6-0.4c1.2-0.1,2.4-0.3,3.6-0.4c1.2-0.1,2.4-0.3,3.5-0.4c1.2-0.1,2.5-0.3,3.7-0.4c1.3-0.1,2.5-0.3,3.8-0.5
							s2.6-0.4,4-0.5c1.2-0.1,2.5-0.4,3.7-0.5c0.8-0.1,1.6-0.2,2.4-0.3c0.3,0,0.6,0,0.8-0.3c0-0.1,0.1-0.1,0.2,0
							c0.2,0.1,0.3,0.4,0.3,0.6s-0.2,0.4-0.4,0.4c-1.4,0.2-2.8,0.4-4.1,0.5c-0.9,0.1-1.8,0.1-2.8,0.3c-1.6,0.2-3.2,0.3-4.8,0.6
							c-1.2,0.2-2.5,0.4-3.7,0.5c-1,0.1-2,0.3-3,0.5c-0.9,0.1-1.9,0.3-2.8,0.4c-0.9,0.1-1.7,0.2-2.6,0.3c-0.4,0-0.9,0.1-1.3,0.1l0,0
							c-1.1,0.1-2.1,0.3-3.2,0.3c-1,0.1-2,0.3-3,0.4s-2,0.2-3,0.4C35.7,110.9,34.6,111,33.5,111.2z"/>
						<path class="st5" d="M78.2,106c0.3-0.2,0.4-0.6,0.2-0.9c-0.4-0.5-0.9-0.8-1.6-0.8c-0.8,0-1.6,0.1-2.4,0.2
							c-1,0.1-1.9,0.3-2.8,0.7c0.4,0.6,0.4,0.9-0.1,1.5c0.4,0,0.8,0.1,1.2,0.1c1.1,0,2.2,0,3.2-0.2C76.7,106.5,77.5,106.3,78.2,106z
							 M49.1,107.9c0.9-0.1,1.8-0.2,2.7-0.3c1.1-0.1,2.1-0.2,3.2-0.4c0.8-0.1,1.6-0.2,2.3-0.3c1-0.1,1.9-0.2,2.9-0.4
							c1.1-0.1,2.2-0.4,3.3-0.5s2.1-0.3,3.1-0.4c0.9-0.1,1.9-0.2,2.8-0.4c0.6-0.1,1.2,0,1.7-0.3s1-0.4,1.5-0.5
							c1.5-0.4,3.1-0.6,4.6-0.5c0.8,0,1.4,0.5,1.8,1.2c0,0.3,0,0.6,0,0.9c-0.6,0.6-1.4,0.8-2.2,0.9c-1.5,0.3-3,0.3-4.5,0.2
							c-0.5,0-1-0.1-1.5-0.3c-0.4-0.2-0.9,0-1.3,0.1c-1.1,0.1-2.2,0.3-3.3,0.4c-1.2,0.1-2.3,0.3-3.5,0.4c-1.4,0.1-2.8,0.4-4.2,0.5
							c-1,0.1-1.9,0.3-2.9,0.4c-1,0.2-2.1,0.3-3.1,0.5c-1.5,0.2-3,0.4-4.5,0.6c-1.1,0.1-2.1,0.2-3.2,0.3c-1.1,0.1-2.3,0.2-3.4,0.4
							c-0.8,0.1-1.5,0.2-2.3,0.3c-1.1,0.1-2.2,0.4-3.3,0.6c-1.9,0.2-3.9,0.7-5.8,0.8c-0.9,0-1.8,0.2-2.7,0.3c0,0-0.1,0-0.1,0.1
							c-0.3,0-0.6,0-0.8,0c-0.4-0.4-0.3-0.8-0.1-1.2c0.2-0.5,0.6-0.9,1.2-0.9c1.4,0,2.8-0.2,4.2-0.3c1.2-0.1,2.5-0.3,3.7-0.5
							c1.1-0.1,2.1-0.2,3.2-0.4c1.5-0.2,2.9-0.3,4.4-0.6c1-0.2,2-0.2,3-0.4C46.8,108.2,47.9,108,49.1,107.9z M46.1,109.6
							c0.4,0,0.9-0.1,1.3-0.1c0.9-0.1,1.7-0.2,2.6-0.3c0.9-0.1,1.9-0.2,2.8-0.4c1-0.1,2-0.3,3-0.5c1.2-0.2,2.5-0.3,3.7-0.5
							c1.6-0.3,3.2-0.4,4.8-0.6c0.9-0.1,1.8-0.2,2.8-0.3c1.4-0.2,2.8-0.4,4.1-0.5c0.3,0,0.4-0.2,0.4-0.4c0-0.3-0.1-0.5-0.3-0.6
							c-0.1,0-0.2,0-0.2,0c-0.2,0.3-0.5,0.3-0.8,0.3c-0.8,0.1-1.6,0.2-2.4,0.3c-1.2,0.2-2.5,0.4-3.7,0.5c-1.3,0.1-2.7,0.4-4,0.5
							c-1.3,0.2-2.5,0.3-3.8,0.5c-1.2,0.1-2.5,0.3-3.7,0.4s-2.4,0.3-3.5,0.4c-1.2,0.1-2.4,0.3-3.6,0.4c-1.2,0.1-2.4,0.3-3.6,0.4
							c-1,0.1-2,0.2-3,0.4c-1.1,0.1-2.2,0.3-3.3,0.4s-2.2,0.2-3.3,0.4c-1.6,0.2-3.2,0.3-4.8,0.3c-0.6,0-0.9,0.2-1.2,0.7
							c-0.2,0.4-0.1,0.7,0.4,0.7c0.6,0,1.2-0.1,1.7-0.2c1.6-0.1,3.2-0.3,4.8-0.6c1.1-0.2,2.3-0.3,3.4-0.6c1-0.2,2-0.3,3-0.4
							s2-0.3,3-0.4C43.9,109.8,45,109.7,46.1,109.6C46.1,109.5,46.1,109.6,46.1,109.6z"/>
						<path class="st2" d="M45.1,66.3c1.4,0,2.3-0.3,3.6-0.7c0.2-0.1,0.5-0.2,0.5-0.2l0.4,0.3c0,0-0.2,0.1-1,0.3
							c-3.3,1.1-6.5,0.9-9.6-0.5c-1.2-0.5-3.6-1.6-4.6-2.5c-1.2-1.1-2.6-3-3.3-4.4c-0.8-1.4-0.8-2-2.1-3.8c-0.6-0.8-1.8-2-2.4-2.6
							s-0.9-1.5-1-2.3c-0.1-1.2-0.4-2.5,0.1-3.7c0.7-1.5,1.4-2,2.5-2.5s3.3-1.3,4.5-2.9c-0.1,0.1-0.1,0.3-0.2,0.4
							c0.2-0.1,0.4-0.3,0.5-0.6c-0.7,1.5-3.4,2.9-4.9,3.4c-0.7,0.3-1.8,1.2-2.3,2.2c-0.6,1.2-0.2,2.8,0,3.7c0.1,0.6,0.3,1.3,1.2,2.4
							c0.4,0.5,1.2,1.3,2,2.4c0.9,1.1,1.6,2.5,2.1,3.7c1.3,2.9,4.2,5.2,5.7,5.9c1.7,0.7,3.3,1.4,5.1,1.8
							C43.1,66.3,44.1,66.3,45.1,66.3z"/>
						<path class="st3" d="M23.1,105.9c0.2,0,0.3,0,0.5,0c0.5,0,0.9,0,1.4,0c1.5,0,3-0.2,4.4-0.3c1-0.1,2-0.1,3-0.2
							c1.2-0.1,2.5-0.2,3.7-0.3c0.8-0.1,1.5-0.1,2.3-0.2c0.9-0.1,1.8-0.2,2.8-0.3c1-0.1,1.9-0.2,2.9-0.3c1.3-0.1,2.7-0.3,4-0.4
							c0.9-0.1,1.9-0.1,2.8-0.3c1.3-0.2,2.5-0.4,3.8-0.5c1.1-0.2,2.2-0.3,3.2-0.5c0.9-0.1,1.8-0.2,2.7-0.3c0.3,0,0.6,0,0.9,0.1
							c0.1,0,0.2,0.1,0.2,0.3c0,0.1,0,0.3-0.2,0.3c-0.2,0.1-0.5,0.2-0.7,0.2c-0.3,0.1-0.6,0.1-0.9,0.4c-0.1,0.1-0.4,0.1-0.6,0.1
							c-1.2,0.1-2.3,0.2-3.5,0.4c-1.3,0.1-2.7,0.3-4,0.5c-1,0.1-2,0.2-2.9,0.3c-1.1,0.1-2.2,0.2-3.3,0.3c-0.7,0.1-1.4,0.1-2.1,0.2
							c-1,0.1-2,0.2-3,0.3c-0.7,0.1-1.3,0.1-2,0.2c-1.1,0.1-2.3,0.2-3.4,0.3c-0.7,0.1-1.5,0.1-2.2,0.2c-1.7,0.1-3.4,0.2-5.1,0.3
							c-1.3,0.1-2.6,0.2-4,0.3c-0.2,0-0.3,0.1-0.5,0.1c-0.1,0-0.2,0-0.3-0.1c-0.1-0.1,0-0.5,0-0.7C23.2,106.2,23.1,106.1,23.1,105.9
							z"/>
						<path class="st4" d="M22.5,106.2c0.2,0,0.2,0.2,0.1,0.4c-0.1,0.3-0.4,0.4-0.7,0.5c-0.6,0.2-1.2,0.3-1.8,0.3
							c-0.8,0-1.5,0.3-2.2,0.4c-1.7,0.3-3.3,0.5-5,0c-0.5-0.1-0.6-0.5-0.3-0.9c0.2-0.3,0.6-0.4,0.9-0.6c1.1-0.4,2.3-0.6,3.3-0.5
							c1.4,0,2.7,0.2,4,0.1C21.4,105.8,21.9,106.1,22.5,106.2z"/>
						<path class="st4" d="M14,104.2c0.1,0.1-0.1,0.1-0.2,0.2c-0.6,0.1-1.2,0.2-1.8,0.3c-1.3,0.2-2.7,0.2-4,0.2
							c-0.7,0-1.5-0.1-2.2-0.2c-0.1,0-0.2-0.1-0.2-0.3c0-0.5,0.2-0.8,0.6-1.1c0.5-0.3,1.1-0.4,1.7-0.5c1.4-0.2,2.7-0.1,4.1-0.1
							c0.7,0,1.4,0,2.1,0.3C13.9,103.4,13.6,103.8,14,104.2z"/>
						<path class="st5" d="M22.6,106.6c0.1-0.2,0.1-0.3-0.1-0.4c-0.6-0.1-1.1-0.4-1.7-0.4c-1.3,0.1-2.5-0.1-4-0.1
							c-1-0.1-2.2,0.1-3.3,0.5c-0.3,0.1-0.7,0.3-0.9,0.6c-0.3,0.4-0.2,0.8,0.3,0.9c1.7,0.5,3.3,0.4,5,0c0.7-0.1,1.4-0.4,2.2-0.4
							c0.6,0,1.2-0.1,1.8-0.3C22.2,107.1,22.5,107,22.6,106.6z M12,107.5c0-0.6,0.2-1,0.7-1.3c0.8-0.5,1.6-0.7,2.4-0.8
							c1.4-0.2,2.8-0.1,4.2,0.1h0.1c1.4,0,2.8,0.1,4.2,0.1v0.3c-0.1,0-0.3,0-0.5,0c0,0.1,0.1,0.2,0,0.3c0,0.2-0.1,0.6,0,0.7
							s0.2,0.1,0.3,0.1v0.3c-0.2,0-0.4,0-0.5,0.1c-0.5,0.1-1,0.3-1.6,0.3c-1.5,0.2-3,0.5-4.5,0.7c-1.3,0.2-2.7,0.2-4-0.2
							C12.4,108.2,12,108.1,12,107.5z"/>
						<path class="st5" d="M12,104.7c0.6-0.1,1.2-0.2,1.8-0.3c0.1,0,0.3,0,0.2-0.2c-0.4-0.5,0-0.8,0.2-1.2c-0.7-0.3-1.4-0.2-2.1-0.3
							c-1.4,0-2.7-0.1-4.1,0.1c-0.6,0.1-1.2,0.1-1.7,0.5c-0.4,0.2-0.6,0.6-0.6,1.1c0,0.2,0.1,0.3,0.2,0.3c0.7,0.1,1.4,0.2,2.2,0.2
							C9.3,104.8,10.7,104.8,12,104.7z M46.9,102.7c-2.4,0-4.7-0.1-7.1,0.1c-1,0.1-2,0.1-2.9,0.1c-1.4,0-2.7,0-4.1,0
							c-2.6,0-5.1,0.2-7.7,0.2c-2.9,0-5.9-0.2-8.8,0c-0.4,0-0.8,0-1.3,0c-0.3,0-0.8,0.4-0.7,0.7c0.1,0.4,0.5,0.3,0.6,0.3
							c0.7-0.1,1.4-0.1,2.2-0.1c1.8-0.1,3.7-0.1,5.5-0.2c1.6-0.1,3.2-0.1,4.8-0.2c2-0.1,4-0.2,6.1-0.2c1.2,0,2.3,0,3.5,0
							c3.4,0,6.8,0,10.2,0c0.3,0,0.6,0.1,1,0.1c0.9,0,1.7-0.1,2.6-0.2c1.3-0.2,2.7-0.4,4-0.6c-0.7-0.1-1.4,0.1-2,0.1
							C50.7,102.7,48.8,102.7,46.9,102.7z M45.7,105.2c1.1-0.1,2.2-0.2,3.3-0.3c1-0.1,2-0.1,2.9-0.3c1.3-0.2,2.7-0.3,4-0.5
							c1.2-0.1,2.3-0.2,3.5-0.4c0.2,0,0.5,0,0.6-0.1c0.3-0.3,0.6-0.3,0.9-0.4c0.3,0,0.5-0.1,0.7-0.2s0.2-0.2,0.2-0.3
							c0-0.2-0.1-0.2-0.2-0.3c-0.3-0.1-0.6-0.1-0.9-0.1c-0.9,0.1-1.8,0.2-2.7,0.3c-1.1,0.1-2.2,0.3-3.2,0.5
							c-1.3,0.2-2.5,0.4-3.8,0.5c-0.9,0.1-1.9,0.2-2.8,0.3c-1.3,0.1-2.7,0.3-4,0.4c-0.9,0.1-1.9,0.2-2.9,0.3
							c-0.9,0.1-1.8,0.2-2.8,0.3c-0.8,0.1-1.5,0.1-2.3,0.2c-1.2,0.1-2.5,0.2-3.7,0.3c-1,0.1-2,0.1-3,0.2c-1.5,0.1-3,0.3-4.4,0.3
							c-0.4,0-0.9,0-1.4,0v-0.3c0.5,0,1,0,1.5,0c1.4-0.1,2.9-0.3,4.3-0.4c0.5,0,0.9-0.1,1.4-0.1c1-0.1,2.1-0.1,3.1-0.2
							c1.5-0.1,3-0.3,4.5-0.4c1.6-0.1,3.2-0.4,4.8-0.5c0,0,0.1,0,0.1-0.1c-1,0-2,0-3,0c-2.8,0-5.7,0-8.5,0.1c-2.5,0-5,0.2-7.5,0.2
							c-2.8,0.1-5.7,0.2-8.5,0.2c-0.4,0-0.8,0.1-1.2,0.3c-0.4,0.2-0.9,0.2-1.3,0.3c-2.1,0.3-4.2,0.5-6.3,0.3
							c-0.7-0.1-1.4-0.1-1.9-0.5c0-0.3,0-0.6,0-0.8c0.5-1,1.4-1.3,2.4-1.4c1.7-0.3,3.4-0.2,5.1-0.1c0.9,0,1.7,0.2,2.6,0.4
							c0.5,0.1,1,0.1,1.5,0c1.7-0.2,3.4-0.1,5-0.1c2.1,0,4.2,0.1,6.4,0c1.6-0.1,3.1,0,4.7-0.1c2.3-0.2,4.7,0,7.1-0.1
							c4.3-0.2,8.7-0.1,13-0.2c1.1,0,2.3-0.1,3.4,0c1.2,0.1,2.3-0.3,3.5-0.3c0.6,0,1.2-0.2,1.9,0c0.3,0.1,0.7,0.2,0.7,0.6
							c0,0.7,0,0.8-0.6,1c-1.2,0.5-2.4,0.6-3.6,0.7c-1.3,0.1-2.6,0.3-4,0.4s-2.7,0.3-4.1,0.4c-2,0.2-4.1,0.4-6.1,0.6
							c-1.5,0.1-3,0.3-4.5,0.4c-1.7,0.2-3.4,0.4-5.1,0.5c-1.4,0.1-2.8,0.2-4.2,0.3c-1.8,0.1-3.6,0.2-5.4,0.3c-0.5,0-0.9,0.1-1.4,0.1
							v-0.3c0.2,0,0.3-0.1,0.5-0.1c1.3-0.1,2.6-0.3,4-0.3c1.7-0.1,3.4-0.1,5.1-0.3c0.7-0.1,1.5-0.1,2.2-0.2c1.1-0.1,2.3-0.2,3.4-0.3
							c0.7-0.1,1.3-0.1,2-0.2c1-0.1,2-0.2,3-0.3C44.3,105.3,45,105.2,45.7,105.2z"/>
					</g>
					<g id="XMLID_51_">
					</g>
				</g>
			</g>
		</g>
	</g>
	<g>
		<g>
			<g>
				<path class="st9" d="M284.8,13.2h4.8v0.9h-3.9v2.6h3.6v0.9h-3.6V21h-0.9V13.2z"/>
				<path class="st9" d="M290.9,12.7h0.9V21h-0.9V12.7z"/>
				<path class="st9" d="M293.4,16.5c0.3-0.3,0.6-0.5,0.9-0.6s0.7-0.2,1.1-0.2c0.8,0,1.3,0.2,1.7,0.5c0.3,0.4,0.5,0.9,0.5,1.6V20
					c0,0.1,0,0.3,0,0.5s0,0.3,0.1,0.4h-0.8c0-0.1,0-0.2,0-0.4s0-0.3,0-0.4l0,0c-0.2,0.3-0.4,0.5-0.7,0.6c-0.3,0.2-0.6,0.3-1,0.3
					c-0.3,0-0.5,0-0.7-0.1s-0.4-0.2-0.6-0.3c-0.2-0.1-0.3-0.3-0.4-0.5s-0.2-0.4-0.2-0.7c0-0.4,0.1-0.8,0.3-1
					c0.2-0.2,0.5-0.4,0.8-0.5s0.7-0.2,1.1-0.2s0.7,0,1,0h0.3v-0.2c0-0.4-0.1-0.7-0.3-0.8c-0.2-0.2-0.5-0.3-0.9-0.3
					c-0.3,0-0.6,0-0.8,0.1c-0.3,0.1-0.5,0.2-0.7,0.4L293.4,16.5z M295.9,18.6c-0.6,0-1,0.1-1.3,0.2c-0.3,0.2-0.5,0.4-0.5,0.8
					c0,0.3,0.1,0.6,0.3,0.7c0.2,0.1,0.5,0.2,0.8,0.2c0.2,0,0.5,0,0.7-0.1s0.3-0.2,0.5-0.3c0.1-0.1,0.2-0.3,0.3-0.5
					c0.1-0.2,0.1-0.4,0.1-0.6v-0.3h-0.9V18.6z"/>
				<path class="st9" d="M299.1,17.1c0-0.2,0-0.5,0-0.7s0-0.4,0-0.6h0.8c0,0.1,0,0.3,0,0.4s0,0.3,0,0.4l0,0c0.1-0.1,0.1-0.2,0.2-0.4
					c0.1-0.1,0.2-0.2,0.4-0.3s0.3-0.2,0.5-0.2c0.2-0.1,0.4-0.1,0.6-0.1c0.3,0,0.5,0,0.7,0.1s0.3,0.2,0.5,0.3
					c0.1,0.1,0.2,0.2,0.3,0.3c0.1,0.1,0.1,0.2,0.2,0.3c0.2-0.3,0.4-0.5,0.7-0.7s0.6-0.3,1-0.3s0.7,0,0.9,0.1
					c0.2,0.1,0.5,0.2,0.6,0.4c0.1,0.2,0.3,0.4,0.3,0.7s0.1,0.6,0.1,0.9V21H306v-3c0-0.2,0-0.3-0.1-0.5c0-0.2-0.1-0.3-0.2-0.5
					c-0.1-0.1-0.2-0.2-0.4-0.3c-0.2-0.1-0.4-0.1-0.6-0.1s-0.4,0-0.5,0.1s-0.3,0.2-0.4,0.3c-0.1,0.1-0.2,0.3-0.3,0.5
					c-0.1,0.2-0.1,0.4-0.1,0.6v3h-0.9v-2.9c0-0.6-0.1-1-0.2-1.2c-0.2-0.2-0.4-0.4-0.8-0.4c-0.3,0-0.5,0-0.7,0.1s-0.4,0.2-0.5,0.4
					c-0.1,0.2-0.2,0.4-0.3,0.6s-0.1,0.5-0.1,0.8V21H299v-3.9H299.1z"/>
				<path class="st9" d="M313.1,20.1c-0.3,0.4-0.6,0.7-1,0.8c-0.4,0.2-0.8,0.2-1.3,0.2c-0.4,0-0.8-0.1-1.1-0.2
					c-0.3-0.1-0.6-0.3-0.8-0.6c-0.2-0.2-0.4-0.5-0.5-0.9s-0.2-0.7-0.2-1.1s0.1-0.8,0.2-1.1s0.3-0.6,0.5-0.9c0.2-0.2,0.5-0.4,0.8-0.6
					c0.3-0.1,0.7-0.2,1.1-0.2s0.7,0.1,1,0.2c0.3,0.1,0.6,0.3,0.8,0.5c0.2,0.2,0.4,0.5,0.5,0.8s0.2,0.7,0.2,1.1v0.3h-4.2
					c0,0.2,0.1,0.4,0.2,0.6s0.2,0.4,0.4,0.5s0.3,0.3,0.5,0.4s0.4,0.1,0.6,0.1c0.4,0,0.7-0.1,0.9-0.2c0.3-0.1,0.5-0.3,0.7-0.6
					L313.1,20.1z M312.4,18c0-0.4-0.2-0.8-0.4-1.1c-0.3-0.3-0.6-0.4-1.1-0.4s-0.9,0.1-1.2,0.4c-0.3,0.3-0.5,0.6-0.5,1.1H312.4z"/>
				<path class="st9" d="M314.6,12.7h0.9v3.9l0,0c0.2-0.3,0.5-0.5,0.8-0.6c0.3-0.2,0.7-0.2,1-0.2c0.4,0,0.8,0.1,1.1,0.2
					c0.3,0.1,0.6,0.3,0.9,0.6c0.2,0.2,0.4,0.5,0.5,0.9s0.2,0.7,0.2,1.1s-0.1,0.7-0.2,1.1s-0.3,0.6-0.5,0.9c-0.2,0.2-0.5,0.4-0.8,0.6
					c-0.3,0.1-0.7,0.2-1,0.2c-0.5,0-0.9-0.1-1.2-0.3c-0.3-0.2-0.6-0.4-0.8-0.7l0,0V21h-0.9V12.7z M315.4,18.5c0,0.3,0,0.5,0.1,0.8
					c0.1,0.2,0.2,0.4,0.4,0.6s0.4,0.3,0.6,0.4s0.5,0.1,0.8,0.1s0.5,0,0.8-0.1s0.4-0.2,0.6-0.4s0.3-0.4,0.4-0.6s0.1-0.5,0.1-0.8
					s0-0.5-0.1-0.8s-0.2-0.4-0.4-0.6c-0.2-0.2-0.4-0.3-0.6-0.4s-0.5-0.1-0.8-0.1s-0.5,0-0.8,0.1c-0.2,0.1-0.4,0.2-0.6,0.4
					c-0.2,0.2-0.3,0.4-0.4,0.6C315.5,17.9,315.4,18.2,315.4,18.5z"/>
				<path class="st9" d="M321.4,12.7h0.9V21h-0.9V12.7z"/>
				<path class="st9" d="M323.7,18.5c0-0.4,0.1-0.8,0.2-1.1c0.1-0.3,0.3-0.6,0.6-0.9s0.5-0.4,0.9-0.6s0.7-0.2,1.1-0.2
					s0.8,0.1,1.1,0.2c0.3,0.1,0.6,0.3,0.9,0.6c0.2,0.2,0.4,0.5,0.6,0.9c0.1,0.3,0.2,0.7,0.2,1.1s-0.1,0.8-0.2,1.1
					c-0.1,0.3-0.3,0.6-0.6,0.9c-0.2,0.2-0.5,0.4-0.9,0.6c-0.3,0.1-0.7,0.2-1.1,0.2s-0.8-0.1-1.1-0.2c-0.3-0.1-0.6-0.3-0.9-0.6
					s-0.4-0.5-0.6-0.9C323.8,19.2,323.7,18.9,323.7,18.5z M324.6,18.5c0,0.3,0,0.5,0.1,0.8s0.2,0.4,0.4,0.6c0.2,0.2,0.4,0.3,0.6,0.4
					s0.5,0.1,0.8,0.1s0.5,0,0.8-0.1s0.4-0.2,0.6-0.4s0.3-0.4,0.4-0.6s0.1-0.5,0.1-0.8s0-0.5-0.1-0.8c-0.1-0.2-0.2-0.4-0.4-0.6
					c-0.2-0.2-0.4-0.3-0.6-0.4s-0.5-0.1-0.8-0.1s-0.5,0-0.8,0.1c-0.2,0.1-0.4,0.2-0.6,0.4c-0.2,0.2-0.3,0.4-0.4,0.6
					S324.6,18.2,324.6,18.5z"/>
				<path class="st9" d="M334.2,17.2c-0.2-0.2-0.4-0.4-0.6-0.5s-0.4-0.1-0.7-0.1c-0.3,0-0.5,0-0.8,0.1c-0.2,0.1-0.4,0.2-0.5,0.4
					c-0.1,0.2-0.3,0.4-0.3,0.6s-0.1,0.5-0.1,0.7c0,0.3,0,0.5,0.1,0.7s0.2,0.4,0.4,0.6c0.1,0.2,0.3,0.3,0.5,0.4s0.5,0.1,0.7,0.1
					c0.6,0,1-0.2,1.3-0.6l0.6,0.6c-0.2,0.3-0.5,0.5-0.9,0.6c-0.3,0.1-0.7,0.2-1.1,0.2s-0.8-0.1-1.1-0.2c-0.3-0.1-0.6-0.3-0.8-0.6
					c-0.2-0.2-0.4-0.5-0.5-0.9c-0.1-0.3-0.2-0.7-0.2-1.1s0.1-0.7,0.2-1.1c0.1-0.3,0.3-0.6,0.5-0.9c0.2-0.2,0.5-0.4,0.8-0.6
					c0.3-0.1,0.7-0.2,1.1-0.2s0.7,0.1,1.1,0.2s0.6,0.3,0.9,0.6L334.2,17.2z"/>
				<path class="st9" d="M345.7,20.5c-0.4,0.2-0.9,0.4-1.4,0.5s-1,0.2-1.5,0.2c-0.6,0-1.2-0.1-1.7-0.3c-0.5-0.2-0.9-0.5-1.3-0.8
					s-0.7-0.8-0.9-1.3c-0.2-0.5-0.3-1.1-0.3-1.7s0.1-1.2,0.3-1.7c0.2-0.5,0.5-0.9,0.9-1.3c0.4-0.4,0.8-0.6,1.3-0.8s1.1-0.3,1.6-0.3
					s1,0.1,1.5,0.2c0.5,0.2,0.9,0.4,1.3,0.8l-0.7,0.7c-0.3-0.3-0.6-0.5-1-0.7s-0.8-0.2-1.2-0.2c-0.4,0-0.9,0.1-1.2,0.2
					c-0.4,0.2-0.7,0.4-1,0.7s-0.5,0.6-0.7,1c-0.2,0.4-0.2,0.8-0.2,1.3s0.1,0.9,0.2,1.3c0.2,0.4,0.4,0.7,0.7,1c0.3,0.3,0.6,0.5,1,0.7
					s0.8,0.2,1.3,0.2c0.3,0,0.6,0,1-0.1c0.3-0.1,0.7-0.2,0.9-0.3v-2.4h-1.8v-0.9h2.7v4H345.7z"/>
				<path class="st9" d="M351.3,14.6c-0.2-0.2-0.4-0.4-0.6-0.5s-0.5-0.2-0.8-0.2c-0.2,0-0.4,0-0.6,0.1s-0.4,0.1-0.5,0.2
					c-0.2,0.1-0.3,0.2-0.4,0.4s-0.1,0.4-0.1,0.6c0,0.2,0,0.3,0.1,0.5c0.1,0.1,0.1,0.3,0.3,0.4c0.1,0.1,0.3,0.2,0.5,0.3
					c0.2,0.1,0.5,0.2,0.8,0.3c0.3,0.1,0.6,0.2,0.9,0.3s0.5,0.2,0.7,0.4c0.2,0.2,0.4,0.4,0.5,0.6c0.1,0.3,0.2,0.6,0.2,1
					s-0.1,0.7-0.2,1c-0.2,0.3-0.4,0.5-0.6,0.7s-0.5,0.3-0.9,0.4s-0.7,0.1-1,0.1c-0.2,0-0.5,0-0.7-0.1c-0.2,0-0.4-0.1-0.7-0.2
					c-0.2-0.1-0.4-0.2-0.6-0.3c-0.2-0.1-0.3-0.3-0.5-0.5l0.8-0.6c0.2,0.3,0.4,0.5,0.7,0.6s0.6,0.2,1,0.2c0.2,0,0.4,0,0.6-0.1
					s0.4-0.1,0.5-0.3s0.3-0.3,0.4-0.4c0.1-0.2,0.2-0.4,0.2-0.6s0-0.4-0.1-0.6s-0.2-0.3-0.4-0.4c-0.2-0.1-0.4-0.2-0.6-0.3
					s-0.6-0.2-0.9-0.3c-0.3-0.1-0.5-0.2-0.8-0.3s-0.4-0.3-0.6-0.4s-0.3-0.4-0.4-0.6c-0.1-0.2-0.1-0.5-0.1-0.8c0-0.4,0.1-0.7,0.2-1
					s0.3-0.5,0.6-0.7c0.2-0.2,0.5-0.3,0.8-0.4s0.6-0.1,1-0.1s0.8,0.1,1.2,0.2c0.4,0.1,0.7,0.4,1,0.7L351.3,14.6z"/>
				<path class="st9" d="M359.8,21h-0.9v-6.6l0,0l-1.4,1.2l-0.5-0.7l2.1-1.7h0.8V21H359.8z"/>
				<path class="st9" d="M362.3,17.1c0-0.4,0-0.9,0.1-1.4s0.2-0.9,0.4-1.3c0.2-0.4,0.5-0.7,0.8-1s0.8-0.4,1.3-0.4s1,0.1,1.3,0.4
					c0.3,0.3,0.6,0.6,0.8,1c0.2,0.4,0.3,0.8,0.4,1.3s0.1,0.9,0.1,1.4s0,0.9-0.1,1.4s-0.2,0.9-0.4,1.3c-0.2,0.4-0.5,0.7-0.8,1
					s-0.8,0.4-1.3,0.4s-1-0.1-1.3-0.4s-0.6-0.6-0.8-1c-0.2-0.4-0.3-0.8-0.4-1.3C362.4,18,362.3,17.6,362.3,17.1z M363.3,17.1
					c0,0.2,0,0.4,0,0.6s0,0.5,0.1,0.7s0.1,0.5,0.2,0.7s0.2,0.4,0.3,0.6c0.1,0.2,0.3,0.3,0.5,0.4s0.4,0.2,0.7,0.2s0.5-0.1,0.7-0.2
					s0.3-0.2,0.5-0.4c0.1-0.2,0.2-0.4,0.3-0.6c0.1-0.2,0.1-0.5,0.2-0.7c0-0.2,0.1-0.5,0.1-0.7s0-0.4,0-0.6s0-0.4,0-0.6
					s0-0.5-0.1-0.7c0-0.2-0.1-0.5-0.2-0.7s-0.2-0.4-0.3-0.6c-0.1-0.2-0.3-0.3-0.5-0.4c-0.2-0.1-0.4-0.2-0.7-0.2s-0.5,0.1-0.7,0.2
					c-0.2,0.1-0.3,0.2-0.5,0.4c-0.1,0.2-0.2,0.4-0.3,0.6c-0.1,0.2-0.1,0.5-0.2,0.7c0,0.2-0.1,0.5-0.1,0.7S363.3,17,363.3,17.1z"/>
				<path class="st9" d="M372,21h-0.9v-6.6l0,0l-1.4,1.2l-0.5-0.7l2.1-1.7h0.8V21H372z"/>
			</g>
		</g>
		<g>
			<g>
				<path class="st9" d="M284.8,34.4h4.8v0.9h-3.9v2.6h3.6v0.9h-3.6v3.5h-0.9V34.4z"/>
				<path class="st9" d="M290.9,33.9h0.9v8.3h-0.9V33.9z"/>
				<path class="st9" d="M293.4,37.7c0.3-0.3,0.6-0.5,0.9-0.6s0.7-0.2,1.1-0.2c0.8,0,1.3,0.2,1.7,0.5c0.3,0.4,0.5,0.9,0.5,1.6v2.2
					c0,0.1,0,0.3,0,0.5s0,0.3,0.1,0.4h-0.8c0-0.1,0-0.2,0-0.4s0-0.3,0-0.4l0,0c-0.2,0.3-0.4,0.5-0.7,0.6c-0.3,0.2-0.6,0.3-1,0.3
					c-0.3,0-0.5,0-0.7-0.1s-0.4-0.2-0.6-0.3s-0.3-0.3-0.4-0.5s-0.2-0.4-0.2-0.7c0-0.4,0.1-0.8,0.3-1c0.2-0.2,0.5-0.4,0.8-0.5
					s0.7-0.2,1.1-0.2s0.7,0,1,0h0.3v-0.2c0-0.4-0.1-0.7-0.3-0.8c-0.2-0.2-0.5-0.3-0.9-0.3c-0.3,0-0.6,0-0.8,0.1
					c-0.3,0.1-0.5,0.2-0.7,0.4L293.4,37.7z M295.9,39.7c-0.6,0-1,0.1-1.3,0.2c-0.3,0.2-0.5,0.4-0.5,0.8c0,0.3,0.1,0.6,0.3,0.7
					c0.2,0.1,0.5,0.2,0.8,0.2c0.2,0,0.5,0,0.7-0.1s0.3-0.2,0.5-0.3c0.1-0.1,0.2-0.3,0.3-0.5c0.1-0.2,0.1-0.4,0.1-0.6v-0.3h-0.9V39.7
					z"/>
				<path class="st9" d="M299.1,38.3c0-0.2,0-0.5,0-0.7s0-0.4,0-0.6h0.8c0,0.1,0,0.3,0,0.4c0,0.1,0,0.3,0,0.4l0,0
					c0.1-0.1,0.1-0.2,0.2-0.4c0.1-0.1,0.2-0.2,0.4-0.3s0.3-0.2,0.5-0.2c0.2-0.1,0.4-0.1,0.6-0.1c0.3,0,0.5,0,0.7,0.1
					s0.3,0.2,0.5,0.3c0.1,0.1,0.2,0.2,0.3,0.3c0.1,0.1,0.1,0.2,0.2,0.3c0.2-0.3,0.4-0.5,0.7-0.7s0.6-0.3,1-0.3s0.7,0,0.9,0.1
					c0.2,0.1,0.5,0.2,0.6,0.4s0.3,0.4,0.3,0.7s0.1,0.6,0.1,0.9V42H306v-3.1c0-0.2,0-0.3-0.1-0.5c0-0.2-0.1-0.3-0.2-0.5
					c-0.1-0.1-0.2-0.2-0.4-0.3c-0.2-0.1-0.4-0.1-0.6-0.1s-0.4,0-0.5,0.1s-0.3,0.2-0.4,0.3s-0.2,0.3-0.3,0.5
					c-0.1,0.2-0.1,0.4-0.1,0.6v3h-0.9v-2.9c0-0.6-0.1-1-0.2-1.2c-0.2-0.2-0.4-0.4-0.8-0.4c-0.3,0-0.5,0-0.7,0.1s-0.4,0.2-0.5,0.4
					s-0.2,0.4-0.3,0.6s-0.1,0.5-0.1,0.8v2.5H299v-3.6H299.1z"/>
				<path class="st9" d="M313.1,41.2c-0.3,0.4-0.6,0.7-1,0.8c-0.4,0.2-0.8,0.2-1.3,0.2c-0.4,0-0.8-0.1-1.1-0.2
					c-0.3-0.1-0.6-0.3-0.8-0.6c-0.2-0.2-0.4-0.5-0.5-0.9s-0.2-0.7-0.2-1.1c0-0.4,0.1-0.8,0.2-1.1s0.3-0.6,0.5-0.9
					c0.2-0.2,0.5-0.4,0.8-0.6c0.3-0.1,0.7-0.2,1.1-0.2s0.7,0.1,1,0.2c0.3,0.1,0.6,0.3,0.8,0.5c0.2,0.2,0.4,0.5,0.5,0.8
					s0.2,0.7,0.2,1.1v0.3h-4.2c0,0.2,0.1,0.4,0.2,0.6c0.1,0.2,0.2,0.4,0.4,0.5s0.3,0.3,0.5,0.4c0.2,0.1,0.4,0.1,0.6,0.1
					c0.4,0,0.7-0.1,0.9-0.2c0.3-0.1,0.5-0.3,0.7-0.6L313.1,41.2z M312.4,39.1c0-0.4-0.2-0.8-0.4-1.1c-0.3-0.3-0.6-0.4-1.1-0.4
					s-0.9,0.1-1.2,0.4c-0.3,0.3-0.5,0.6-0.5,1.1H312.4z"/>
				<path class="st9" d="M314.6,33.9h0.9v3.9l0,0c0.2-0.3,0.5-0.5,0.8-0.6c0.3-0.2,0.7-0.2,1-0.2c0.4,0,0.8,0.1,1.1,0.2
					c0.3,0.1,0.6,0.3,0.9,0.6c0.2,0.2,0.4,0.5,0.5,0.9s0.2,0.7,0.2,1.1c0,0.4-0.1,0.7-0.2,1.1s-0.3,0.6-0.5,0.9
					c-0.2,0.2-0.5,0.4-0.8,0.6c-0.3,0.1-0.7,0.2-1,0.2c-0.5,0-0.9-0.1-1.2-0.3c-0.3-0.2-0.6-0.4-0.8-0.7l0,0v0.9h-0.9V33.9z
					 M315.4,39.6c0,0.3,0,0.5,0.1,0.8c0.1,0.2,0.2,0.4,0.4,0.6s0.4,0.3,0.6,0.4s0.5,0.1,0.8,0.1s0.5,0,0.8-0.1s0.4-0.2,0.6-0.4
					s0.3-0.4,0.4-0.6s0.1-0.5,0.1-0.8s0-0.5-0.1-0.8s-0.2-0.4-0.4-0.6c-0.2-0.2-0.4-0.3-0.6-0.4c-0.2-0.1-0.5-0.1-0.8-0.1
					s-0.5,0-0.8,0.1c-0.2,0.1-0.4,0.2-0.6,0.4s-0.3,0.4-0.4,0.6C315.5,39.1,315.4,39.3,315.4,39.6z"/>
				<path class="st9" d="M321.4,33.9h0.9v8.3h-0.9V33.9z"/>
				<path class="st9" d="M323.7,39.6c0-0.4,0.1-0.8,0.2-1.1s0.3-0.6,0.6-0.9s0.5-0.4,0.9-0.6s0.7-0.2,1.1-0.2s0.8,0.1,1.1,0.2
					c0.3,0.1,0.6,0.3,0.9,0.6c0.2,0.2,0.4,0.5,0.6,0.9c0.1,0.3,0.2,0.7,0.2,1.1c0,0.4-0.1,0.8-0.2,1.1s-0.3,0.6-0.6,0.9
					c-0.2,0.2-0.5,0.4-0.9,0.6c-0.3,0.1-0.7,0.2-1.1,0.2s-0.8-0.1-1.1-0.2c-0.3-0.1-0.6-0.3-0.9-0.6s-0.4-0.5-0.6-0.9
					C323.8,40.4,323.7,40,323.7,39.6z M324.6,39.6c0,0.3,0,0.5,0.1,0.8s0.2,0.4,0.4,0.6c0.2,0.2,0.4,0.3,0.6,0.4s0.5,0.1,0.8,0.1
					s0.5,0,0.8-0.1s0.4-0.2,0.6-0.4s0.3-0.4,0.4-0.6c0.1-0.2,0.1-0.5,0.1-0.8s0-0.5-0.1-0.8c-0.1-0.2-0.2-0.4-0.4-0.6
					c-0.2-0.2-0.4-0.3-0.6-0.4c-0.2-0.1-0.5-0.1-0.8-0.1s-0.5,0-0.8,0.1c-0.2,0.1-0.4,0.2-0.6,0.4s-0.3,0.4-0.4,0.6
					S324.6,39.3,324.6,39.6z"/>
				<path class="st9" d="M334.2,38.3c-0.2-0.2-0.4-0.4-0.6-0.5s-0.4-0.1-0.7-0.1c-0.3,0-0.5,0-0.8,0.1c-0.2,0.1-0.4,0.2-0.5,0.4
					s-0.3,0.4-0.3,0.6s-0.1,0.5-0.1,0.7c0,0.3,0,0.5,0.1,0.7s0.2,0.4,0.4,0.6c0.1,0.2,0.3,0.3,0.5,0.4s0.5,0.1,0.7,0.1
					c0.6,0,1-0.2,1.3-0.6l0.6,0.6c-0.2,0.3-0.5,0.5-0.9,0.6c-0.3,0.1-0.7,0.2-1.1,0.2s-0.8-0.1-1.1-0.2c-0.3-0.1-0.6-0.3-0.8-0.6
					c-0.2-0.2-0.4-0.5-0.5-0.9c-0.1-0.3-0.2-0.7-0.2-1.1c0-0.4,0.1-0.7,0.2-1.1c0.1-0.3,0.3-0.6,0.5-0.9c0.2-0.2,0.5-0.4,0.8-0.6
					c0.3-0.1,0.7-0.2,1.1-0.2s0.7,0.1,1.1,0.2s0.6,0.3,0.9,0.6L334.2,38.3z"/>
				<path class="st9" d="M345.7,41.7c-0.4,0.2-0.9,0.4-1.4,0.5s-1,0.2-1.5,0.2c-0.6,0-1.2-0.1-1.7-0.3s-0.9-0.5-1.3-0.8
					s-0.7-0.8-0.9-1.3c-0.2-0.5-0.3-1.1-0.3-1.7c0-0.6,0.1-1.2,0.3-1.7c0.2-0.5,0.5-0.9,0.9-1.3c0.4-0.4,0.8-0.6,1.3-0.8
					s1.1-0.3,1.6-0.3s1,0.1,1.5,0.2c0.5,0.2,0.9,0.4,1.3,0.8l-0.7,0.7c-0.3-0.3-0.6-0.5-1-0.7S343,35,342.6,35
					c-0.4,0-0.9,0.1-1.2,0.2c-0.4,0.2-0.7,0.4-1,0.7s-0.5,0.6-0.7,1s-0.2,0.8-0.2,1.3s0.1,0.9,0.2,1.3c0.2,0.4,0.4,0.7,0.7,1
					c0.3,0.3,0.6,0.5,1,0.7s0.8,0.2,1.3,0.2c0.3,0,0.6,0,1-0.1c0.3-0.1,0.7-0.2,0.9-0.3v-2.4h-1.8v-0.9h2.7v4H345.7z"/>
				<path class="st9" d="M351.3,35.8c-0.2-0.2-0.4-0.4-0.6-0.5s-0.5-0.2-0.8-0.2c-0.2,0-0.4,0-0.6,0.1s-0.4,0.1-0.5,0.2
					c-0.2,0.1-0.3,0.2-0.4,0.4s-0.1,0.4-0.1,0.6c0,0.2,0,0.3,0.1,0.5c0.1,0.1,0.1,0.3,0.3,0.4c0.1,0.1,0.3,0.2,0.5,0.3
					s0.5,0.2,0.8,0.3s0.6,0.2,0.9,0.3s0.5,0.2,0.7,0.4s0.4,0.4,0.5,0.6c0.1,0.3,0.2,0.6,0.2,1s-0.1,0.7-0.2,1
					c-0.2,0.3-0.4,0.5-0.6,0.7s-0.5,0.3-0.9,0.4s-0.7,0.1-1,0.1c-0.2,0-0.5,0-0.7-0.1c-0.2,0-0.4-0.1-0.7-0.2
					c-0.2-0.1-0.4-0.2-0.6-0.3s-0.3-0.3-0.5-0.5l0.8-0.6c0.2,0.3,0.4,0.5,0.7,0.6s0.6,0.2,1,0.2c0.2,0,0.4,0,0.6-0.1
					s0.4-0.1,0.5-0.3s0.3-0.3,0.4-0.4c0.1-0.2,0.2-0.4,0.2-0.6c0-0.2,0-0.4-0.1-0.6c-0.1-0.2-0.2-0.3-0.4-0.4
					c-0.2-0.1-0.4-0.2-0.6-0.3s-0.6-0.2-0.9-0.3s-0.5-0.2-0.8-0.3s-0.4-0.3-0.6-0.4s-0.3-0.4-0.4-0.6c-0.1-0.2-0.1-0.5-0.1-0.8
					c0-0.4,0.1-0.7,0.2-1s0.3-0.5,0.6-0.7c0.2-0.2,0.5-0.3,0.8-0.4s0.6-0.1,1-0.1s0.8,0.1,1.2,0.2c0.4,0.1,0.7,0.4,1,0.7L351.3,35.8
					z"/>
				<path class="st9" d="M356.4,41.1l2.9-2.9c0.2-0.2,0.3-0.3,0.5-0.5c0.1-0.2,0.3-0.3,0.3-0.4c0.1-0.1,0.2-0.3,0.2-0.4
					c0-0.2,0.1-0.3,0.1-0.5s0-0.4-0.1-0.5s-0.2-0.3-0.3-0.4c-0.1-0.1-0.3-0.2-0.5-0.3s-0.4-0.1-0.6-0.1c-0.4,0-0.7,0.1-1,0.3
					s-0.4,0.5-0.5,0.9l-1-0.1c0.1-0.3,0.1-0.6,0.3-0.8c0.1-0.2,0.3-0.4,0.5-0.6c0.2-0.2,0.5-0.3,0.7-0.4s0.6-0.1,0.9-0.1
					s0.6,0,0.9,0.1s0.5,0.2,0.8,0.4c0.2,0.2,0.4,0.4,0.5,0.7s0.2,0.6,0.2,0.9c0,0.3,0,0.6-0.1,0.8s-0.2,0.5-0.3,0.7
					c-0.1,0.2-0.3,0.4-0.5,0.6s-0.4,0.4-0.6,0.6l-2.4,2.3l0,0h4v0.9h-5v-1.2H356.4z"/>
				<path class="st9" d="M362.3,38.3c0-0.4,0-0.9,0.1-1.4s0.2-0.9,0.4-1.3c0.2-0.4,0.5-0.7,0.8-1s0.8-0.4,1.3-0.4s1,0.1,1.3,0.4
					c0.3,0.3,0.6,0.6,0.8,1c0.2,0.4,0.3,0.8,0.4,1.3s0.1,0.9,0.1,1.4s0,0.9-0.1,1.4s-0.2,0.9-0.4,1.3c-0.2,0.4-0.5,0.7-0.8,1
					s-0.8,0.4-1.3,0.4s-1-0.1-1.3-0.4c-0.3-0.3-0.6-0.6-0.8-1c-0.2-0.4-0.3-0.8-0.4-1.3C362.4,39.2,362.3,38.7,362.3,38.3z
					 M363.3,38.3c0,0.2,0,0.4,0,0.6s0,0.5,0.1,0.7s0.1,0.5,0.2,0.7s0.2,0.4,0.3,0.6c0.1,0.2,0.3,0.3,0.5,0.4
					c0.2,0.1,0.4,0.2,0.7,0.2s0.5-0.1,0.7-0.2s0.3-0.2,0.5-0.4c0.1-0.2,0.2-0.4,0.3-0.6c0.1-0.2,0.1-0.5,0.2-0.7
					c0-0.2,0.1-0.5,0.1-0.7s0-0.4,0-0.6c0-0.2,0-0.4,0-0.6c0-0.2,0-0.5-0.1-0.7c0-0.2-0.1-0.5-0.2-0.7s-0.2-0.4-0.3-0.6
					c-0.1-0.2-0.3-0.3-0.5-0.4c-0.2-0.1-0.4-0.2-0.7-0.2s-0.5,0.1-0.7,0.2c-0.2,0.1-0.3,0.2-0.5,0.4c-0.1,0.2-0.2,0.4-0.3,0.6
					c-0.1,0.2-0.1,0.5-0.2,0.7c0,0.2-0.1,0.5-0.1,0.7S363.3,38.1,363.3,38.3z"/>
				<path class="st9" d="M368.5,38.3c0-0.4,0-0.9,0.1-1.4s0.2-0.9,0.4-1.3c0.2-0.4,0.5-0.7,0.8-1s0.8-0.4,1.3-0.4s1,0.1,1.3,0.4
					c0.3,0.3,0.6,0.6,0.8,1c0.2,0.4,0.3,0.8,0.4,1.3s0.1,0.9,0.1,1.4s0,0.9-0.1,1.4s-0.2,0.9-0.4,1.3c-0.2,0.4-0.5,0.7-0.8,1
					s-0.8,0.4-1.3,0.4s-1-0.1-1.3-0.4c-0.3-0.3-0.6-0.6-0.8-1c-0.2-0.4-0.3-0.8-0.4-1.3S368.5,38.7,368.5,38.3z M369.4,38.3
					c0,0.2,0,0.4,0,0.6s0,0.5,0.1,0.7s0.1,0.5,0.2,0.7s0.2,0.4,0.3,0.6c0.1,0.2,0.3,0.3,0.5,0.4c0.2,0.1,0.4,0.2,0.7,0.2
					s0.5-0.1,0.7-0.2s0.3-0.2,0.5-0.4c0.1-0.2,0.2-0.4,0.3-0.6c0.1-0.2,0.1-0.5,0.2-0.7c0-0.2,0.1-0.5,0.1-0.7s0-0.4,0-0.6
					c0-0.2,0-0.4,0-0.6c0-0.2,0-0.5-0.1-0.7c0-0.2-0.1-0.5-0.2-0.7s-0.2-0.4-0.3-0.6c-0.1-0.2-0.3-0.3-0.5-0.4
					c-0.2-0.1-0.4-0.2-0.7-0.2s-0.5,0.1-0.7,0.2c-0.2,0.1-0.3,0.2-0.5,0.4c-0.1,0.2-0.2,0.4-0.3,0.6c-0.1,0.2-0.1,0.5-0.2,0.7
					c0,0.2-0.1,0.5-0.1,0.7S369.4,38.1,369.4,38.3z"/>
			</g>
		</g>
		<g>
			<g>
				<path class="st9" d="M284.8,55.5h4.8v0.9h-3.9V59h3.6v0.9h-3.6v3.5h-0.9V55.5z"/>
				<path class="st9" d="M290.9,55h0.9v8.3h-0.9V55z"/>
				<path class="st9" d="M293.4,58.8c0.3-0.3,0.6-0.5,0.9-0.6s0.7-0.2,1.1-0.2c0.8,0,1.3,0.2,1.7,0.5c0.3,0.4,0.5,0.9,0.5,1.6v2.2
					c0,0.1,0,0.3,0,0.5s0,0.3,0.1,0.4h-0.8c0-0.1,0-0.2,0-0.4c0-0.1,0-0.3,0-0.4l0,0c-0.2,0.3-0.4,0.5-0.7,0.6
					c-0.3,0.2-0.6,0.3-1,0.3c-0.3,0-0.5,0-0.7-0.1s-0.4-0.2-0.6-0.3s-0.3-0.3-0.4-0.5s-0.2-0.4-0.2-0.7c0-0.4,0.1-0.8,0.3-1
					c0.2-0.2,0.5-0.4,0.8-0.5s0.7-0.2,1.1-0.2s0.7,0,1,0h0.3v0c0-0.4-0.1-0.7-0.3-0.8c-0.2-0.2-0.5-0.3-0.9-0.3
					c-0.3,0-0.6,0-0.8,0.1c-0.3,0.1-0.5,0.2-0.7,0.4L293.4,58.8z M295.9,60.8c-0.6,0-1,0.1-1.3,0.2c-0.3,0.2-0.5,0.4-0.5,0.8
					c0,0.3,0.1,0.6,0.3,0.7c0.2,0.1,0.5,0.2,0.8,0.2c0.2,0,0.5,0,0.7-0.1s0.3-0.2,0.5-0.3c0.1-0.1,0.2-0.3,0.3-0.5
					c0.1-0.2,0.1-0.4,0.1-0.6v-0.3h-0.9V60.8z"/>
				<path class="st9" d="M299.1,59.4c0-0.2,0-0.5,0-0.7s0-0.4,0-0.6h0.8c0,0.1,0,0.3,0,0.4c0,0.1,0,0.3,0,0.4l0,0
					c0.1-0.1,0.1-0.2,0.2-0.4c0.1-0.1,0.2-0.2,0.4-0.3s0.3-0.2,0.5-0.2c0.2-0.1,0.4-0.1,0.6-0.1c0.3,0,0.5,0,0.7,0.1
					s0.3,0.2,0.5,0.3c0.1,0.1,0.2,0.2,0.3,0.3c0.1,0.1,0.1,0.2,0.2,0.3c0.2-0.3,0.4-0.5,0.7-0.7s0.6-0.3,1-0.3s0.7,0,0.9,0.1
					c0.2,0.1,0.5,0.2,0.6,0.4s0.3,0.4,0.3,0.7s0.1,0.6,0.1,0.9v3.1H306V60c0-0.2,0-0.3-0.1-0.5c0-0.2-0.1-0.3-0.2-0.5
					c-0.1-0.1-0.2-0.2-0.4-0.3c-0.2-0.1-0.4-0.1-0.6-0.1s-0.4,0-0.5,0.1s-0.3,0.2-0.4,0.3s-0.2,0.3-0.3,0.5
					c-0.1,0.2-0.1,0.4-0.1,0.6v3h-0.9v-2.9c0-0.6-0.1-1-0.2-1.2c-0.2-0.2-0.4-0.4-0.8-0.4c-0.3,0-0.5,0-0.7,0.1s-0.4,0.2-0.5,0.4
					s-0.2,0.4-0.3,0.6s-0.1,0.5-0.1,0.8V63H299v-3.6H299.1z"/>
				<path class="st9" d="M313.1,62.4c-0.3,0.4-0.6,0.7-1,0.8c-0.4,0.2-0.8,0.2-1.3,0.2c-0.4,0-0.8-0.1-1.1-0.2
					c-0.3-0.1-0.6-0.3-0.8-0.6c-0.2-0.2-0.4-0.5-0.5-0.9s-0.2-0.7-0.2-1.1c0-0.4,0.1-0.8,0.2-1.1s0.3-0.6,0.5-0.9
					c0.2-0.2,0.5-0.4,0.8-0.6c0.3-0.1,0.7-0.2,1.1-0.2s0.7,0.1,1,0.2c0.3,0.1,0.6,0.3,0.8,0.5c0.2,0.2,0.4,0.5,0.5,0.8
					s0.2,0.7,0.2,1.1V61h-4.2c0,0.2,0.1,0.4,0.2,0.6c0.1,0.2,0.2,0.4,0.4,0.5s0.3,0.3,0.5,0.4c0.2,0.1,0.4,0.1,0.6,0.1
					c0.4,0,0.7-0.1,0.9-0.2c0.3-0.1,0.5-0.3,0.7-0.6L313.1,62.4z M312.4,60.3c0-0.4-0.2-0.8-0.4-1.1c-0.3-0.3-0.6-0.4-1.1-0.4
					s-0.9,0.1-1.2,0.4c-0.3,0.3-0.5,0.6-0.5,1.1H312.4z"/>
				<path class="st9" d="M314.6,55h0.9v3.9l0,0c0.2-0.3,0.5-0.5,0.8-0.6c0.3-0.2,0.7-0.2,1-0.2c0.4,0,0.8,0.1,1.1,0.2
					c0.3,0.1,0.6,0.3,0.9,0.6c0.2,0.2,0.4,0.5,0.5,0.9s0.2,0.7,0.2,1.1c0,0.4-0.1,0.7-0.2,1.1s-0.3,0.6-0.5,0.9
					c-0.2,0.2-0.5,0.4-0.8,0.6s-0.7,0.2-1,0.2c-0.5,0-0.9-0.1-1.2-0.3c-0.3-0.2-0.6-0.4-0.8-0.7l0,0v0.9h-0.9V55z M315.4,60.7
					c0,0.3,0,0.5,0.1,0.8c0.1,0.2,0.2,0.4,0.4,0.6c0.2,0.2,0.4,0.3,0.6,0.4c0.2,0.1,0.5,0.1,0.8,0.1s0.5,0,0.8-0.1
					c0.2-0.1,0.4-0.2,0.6-0.4s0.3-0.4,0.4-0.6c0.1-0.2,0.1-0.5,0.1-0.8s0-0.5-0.1-0.8s-0.2-0.4-0.4-0.6c-0.2-0.2-0.4-0.3-0.6-0.4
					c-0.2-0.1-0.5-0.1-0.8-0.1s-0.5,0-0.8,0.1c-0.2,0.1-0.4,0.2-0.6,0.4s-0.3,0.4-0.4,0.6C315.5,60.2,315.4,60.5,315.4,60.7z"/>
				<path class="st9" d="M321.4,55h0.9v8.3h-0.9V55z"/>
				<path class="st9" d="M323.7,60.7c0-0.4,0.1-0.8,0.2-1.1s0.3-0.6,0.6-0.9s0.5-0.4,0.9-0.6s0.7-0.2,1.1-0.2s0.8,0.1,1.1,0.2
					c0.3,0.1,0.6,0.3,0.9,0.6c0.2,0.2,0.4,0.5,0.6,0.9c0.1,0.3,0.2,0.7,0.2,1.1c0,0.4-0.1,0.8-0.2,1.1s-0.3,0.6-0.6,0.9
					c-0.2,0.2-0.5,0.4-0.9,0.6c-0.3,0.1-0.7,0.2-1.1,0.2s-0.8-0.1-1.1-0.2c-0.3-0.1-0.6-0.3-0.9-0.6s-0.4-0.5-0.6-0.9
					C323.8,61.5,323.7,61.2,323.7,60.7z M324.6,60.7c0,0.3,0,0.5,0.1,0.8c0.1,0.2,0.2,0.4,0.4,0.6c0.2,0.2,0.4,0.3,0.6,0.4
					c0.2,0.1,0.5,0.1,0.8,0.1s0.5,0,0.8-0.1c0.2-0.1,0.4-0.2,0.6-0.4s0.3-0.4,0.4-0.6c0.1-0.2,0.1-0.5,0.1-0.8s0-0.5-0.1-0.8
					c-0.1-0.2-0.2-0.4-0.4-0.6c-0.2-0.2-0.4-0.3-0.6-0.4c-0.2-0.1-0.5-0.1-0.8-0.1s-0.5,0-0.8,0.1c-0.2,0.1-0.4,0.2-0.6,0.4
					s-0.3,0.4-0.4,0.6S324.6,60.5,324.6,60.7z"/>
				<path class="st9" d="M334.2,59.5c-0.2-0.2-0.4-0.4-0.6-0.5s-0.4-0.1-0.7-0.1c-0.3,0-0.5,0-0.8,0.1c-0.2,0.1-0.4,0.2-0.5,0.4
					s-0.3,0.4-0.3,0.6s-0.1,0.5-0.1,0.7c0,0.3,0,0.5,0.1,0.7s0.2,0.4,0.4,0.6c0.1,0.2,0.3,0.3,0.5,0.4c0.2,0.1,0.5,0.1,0.7,0.1
					c0.6,0,1-0.2,1.3-0.6l0.6,0.6c-0.2,0.3-0.5,0.5-0.9,0.6c-0.3,0.1-0.7,0.2-1.1,0.2s-0.8-0.1-1.1-0.2c-0.3-0.1-0.6-0.3-0.8-0.6
					c-0.2-0.2-0.4-0.5-0.5-0.9c-0.1-0.3-0.2-0.7-0.2-1.1c0-0.4,0.1-0.7,0.2-1.1c0.1-0.3,0.3-0.6,0.5-0.9c0.2-0.2,0.5-0.4,0.8-0.6
					c0.3-0.1,0.7-0.2,1.1-0.2s0.7,0.1,1.1,0.2s0.6,0.3,0.9,0.6L334.2,59.5z"/>
				<path class="st9" d="M345.7,62.8c-0.4,0.2-0.9,0.4-1.4,0.5s-1,0.2-1.5,0.2c-0.6,0-1.2-0.1-1.7-0.3s-0.9-0.5-1.3-0.8
					s-0.7-0.8-0.9-1.3c-0.2-0.5-0.3-1.1-0.3-1.7c0-0.6,0.1-1.2,0.3-1.7c0.2-0.5,0.5-0.9,0.9-1.3c0.4-0.4,0.8-0.6,1.3-0.8
					s1.1-0.3,1.6-0.3s1,0.1,1.5,0.2c0.5,0.2,0.9,0.4,1.3,0.8l-0.7,0.7c-0.3-0.3-0.6-0.5-1-0.7s-0.8-0.2-1.2-0.2
					c-0.4,0-0.9,0.1-1.2,0.2c-0.4,0.2-0.7,0.4-1,0.7s-0.5,0.6-0.7,1s-0.2,0.8-0.2,1.3s0.1,0.9,0.2,1.3c0.2,0.4,0.4,0.7,0.7,1
					s0.6,0.5,1,0.7s0.8,0.2,1.3,0.2c0.3,0,0.6,0,1-0.1s0.7-0.2,0.9-0.3v-2.4h-1.8V59h2.7v3.8H345.7z"/>
				<path class="st9" d="M351.3,56.9c-0.2-0.2-0.4-0.4-0.6-0.5s-0.5-0.2-0.8-0.2c-0.2,0-0.4,0-0.6,0.1s-0.4,0.1-0.5,0.2
					c-0.2,0.1-0.3,0.2-0.4,0.4s-0.1,0.4-0.1,0.6c0,0.2,0,0.3,0.1,0.5c0.1,0.1,0.1,0.3,0.3,0.4c0.1,0.1,0.3,0.2,0.5,0.3
					s0.5,0.2,0.8,0.3s0.6,0.2,0.9,0.3s0.5,0.2,0.7,0.4s0.4,0.4,0.5,0.6c0.1,0.3,0.2,0.6,0.2,1s-0.1,0.7-0.2,1
					c-0.2,0.3-0.4,0.5-0.6,0.7c-0.3,0.2-0.5,0.3-0.9,0.4s-0.7,0.1-1,0.1c-0.2,0-0.5,0-0.7-0.1s-0.4-0.1-0.7-0.2
					c-0.2-0.1-0.4-0.2-0.6-0.3s-0.3-0.3-0.5-0.5l0.8-0.6c0.2,0.3,0.4,0.5,0.7,0.6s0.6,0.2,1,0.2c0.2,0,0.4,0,0.6-0.1
					s0.4-0.1,0.5-0.3c0.2-0.1,0.3-0.3,0.4-0.4s0.2-0.4,0.2-0.6c0-0.2,0-0.4-0.1-0.6c-0.1-0.2-0.2-0.3-0.4-0.4
					c-0.2-0.1-0.4-0.2-0.6-0.3s-0.6-0.2-0.9-0.3s-0.5-0.2-0.8-0.3s-0.4-0.3-0.6-0.4s-0.3-0.4-0.4-0.6c-0.1-0.2-0.1-0.5-0.1-0.8
					c0-0.4,0.1-0.7,0.2-1s0.3-0.5,0.6-0.7c0.2-0.2,0.5-0.3,0.8-0.4s0.6-0.1,1-0.1s0.8,0.1,1.2,0.2c0.4,0.1,0.7,0.4,1,0.7L351.3,56.9
					z"/>
				<path class="st9" d="M361,56.4h-3.2v2.1c0.1-0.1,0.3-0.1,0.5-0.1s0.4,0,0.5,0c0.4,0,0.7,0.1,1,0.2c0.3,0.1,0.6,0.3,0.8,0.5
					c0.2,0.2,0.4,0.5,0.5,0.8s0.2,0.7,0.2,1c0,0.4-0.1,0.7-0.2,1.1c-0.1,0.3-0.3,0.6-0.6,0.8s-0.5,0.4-0.8,0.5s-0.7,0.2-1.1,0.2
					c-0.6,0-1.1-0.1-1.4-0.4c-0.4-0.3-0.7-0.6-0.9-1l0.9-0.4c0.1,0.3,0.3,0.5,0.6,0.7c0.3,0.2,0.5,0.3,0.9,0.3c0.2,0,0.5,0,0.7-0.1
					s0.4-0.2,0.5-0.4c0.2-0.2,0.3-0.3,0.4-0.6c0.1-0.2,0.1-0.5,0.1-0.7c0-0.3,0-0.5-0.1-0.8c-0.1-0.2-0.2-0.4-0.4-0.6
					c-0.2-0.1-0.4-0.3-0.6-0.3c-0.2-0.1-0.5-0.1-0.8-0.1s-0.5,0-0.8,0.1s-0.5,0.2-0.8,0.3l0.1-4h4.1v0.9H361z"/>
				<path class="st9" d="M362.3,59.4c0-0.4,0-0.9,0.1-1.4s0.2-0.9,0.4-1.3c0.2-0.4,0.5-0.7,0.8-1s0.8-0.4,1.3-0.4s1,0.1,1.3,0.4
					c0.3,0.3,0.6,0.6,0.8,1c0.2,0.4,0.3,0.8,0.4,1.3s0.1,0.9,0.1,1.4s0,0.9-0.1,1.4s-0.2,0.9-0.4,1.3c-0.2,0.4-0.5,0.7-0.8,1
					s-0.8,0.4-1.3,0.4s-1-0.1-1.3-0.4c-0.3-0.3-0.6-0.6-0.8-1c-0.2-0.4-0.3-0.8-0.4-1.3C362.4,60.3,362.3,59.9,362.3,59.4z
					 M363.3,59.4c0,0.2,0,0.4,0,0.6s0,0.5,0.1,0.7c0,0.2,0.1,0.5,0.2,0.7s0.2,0.4,0.3,0.6c0.1,0.2,0.3,0.3,0.5,0.4
					c0.2,0.1,0.4,0.2,0.7,0.2s0.5-0.1,0.7-0.2s0.3-0.2,0.5-0.4c0.1-0.2,0.2-0.4,0.3-0.6s0.1-0.5,0.2-0.7c0-0.2,0.1-0.5,0.1-0.7
					s0-0.4,0-0.6c0-0.2,0-0.4,0-0.6c0-0.2,0-0.5-0.1-0.7c0-0.2-0.1-0.5-0.2-0.7s-0.2-0.4-0.3-0.6c-0.1-0.2-0.3-0.3-0.5-0.4
					c-0.2-0.1-0.4-0.2-0.7-0.2s-0.5,0.1-0.7,0.2c-0.2,0.1-0.3,0.2-0.5,0.4c-0.1,0.2-0.2,0.4-0.3,0.6c-0.1,0.2-0.1,0.5-0.2,0.7
					c0,0.2-0.1,0.5-0.1,0.7C363.3,59,363.3,59.2,363.3,59.4z"/>
				<path class="st9" d="M368.5,59.4c0-0.4,0-0.9,0.1-1.4s0.2-0.9,0.4-1.3c0.2-0.4,0.5-0.7,0.8-1s0.8-0.4,1.3-0.4s1,0.1,1.3,0.4
					c0.3,0.3,0.6,0.6,0.8,1c0.2,0.4,0.3,0.8,0.4,1.3s0.1,0.9,0.1,1.4s0,0.9-0.1,1.4s-0.2,0.9-0.4,1.3c-0.2,0.4-0.5,0.7-0.8,1
					s-0.8,0.4-1.3,0.4s-1-0.1-1.3-0.4c-0.3-0.3-0.6-0.6-0.8-1c-0.2-0.4-0.3-0.8-0.4-1.3C368.5,60.3,368.5,59.9,368.5,59.4z
					 M369.4,59.4c0,0.2,0,0.4,0,0.6s0,0.5,0.1,0.7c0,0.2,0.1,0.5,0.2,0.7s0.2,0.4,0.3,0.6c0.1,0.2,0.3,0.3,0.5,0.4
					c0.2,0.1,0.4,0.2,0.7,0.2s0.5-0.1,0.7-0.2s0.3-0.2,0.5-0.4c0.1-0.2,0.2-0.4,0.3-0.6s0.1-0.5,0.2-0.7c0-0.2,0.1-0.5,0.1-0.7
					s0-0.4,0-0.6c0-0.2,0-0.4,0-0.6c0-0.2,0-0.5-0.1-0.7c0-0.2-0.1-0.5-0.2-0.7s-0.2-0.4-0.3-0.6c-0.1-0.2-0.3-0.3-0.5-0.4
					c-0.2-0.1-0.4-0.2-0.7-0.2s-0.5,0.1-0.7,0.2c-0.2,0.1-0.3,0.2-0.5,0.4c-0.1,0.2-0.2,0.4-0.3,0.6c-0.1,0.2-0.1,0.5-0.2,0.7
					c0,0.2-0.1,0.5-0.1,0.7C369.4,59,369.4,59.2,369.4,59.4z"/>
			</g>
		</g>
		<g>
			<g>
				<path class="st9" d="M284.8,76.7h2.4c0.3,0,0.6,0,0.9,0.1s0.6,0.2,0.8,0.3s0.4,0.3,0.6,0.6c0.2,0.2,0.2,0.5,0.2,0.9
					c0,0.5-0.1,0.8-0.4,1.1c-0.2,0.3-0.6,0.5-1,0.6l0,0c0.2,0,0.5,0.1,0.7,0.2s0.4,0.2,0.6,0.4c0.2,0.2,0.3,0.4,0.4,0.6
					s0.1,0.5,0.1,0.7c0,0.4-0.1,0.8-0.3,1.1c-0.2,0.3-0.4,0.5-0.7,0.7c-0.3,0.2-0.6,0.3-1,0.3c-0.4,0.1-0.7,0.1-1.1,0.1h-2.3
					L284.8,76.7L284.8,76.7z M285.8,80h1.3c0.2,0,0.4,0,0.6,0s0.4-0.1,0.6-0.2s0.3-0.2,0.4-0.4s0.2-0.4,0.2-0.7c0-0.2,0-0.4-0.1-0.6
					s-0.2-0.3-0.4-0.4c-0.2-0.1-0.3-0.1-0.5-0.2c-0.2,0-0.4,0-0.6,0h-1.4V80H285.8z M285.8,83.6h1.6c0.2,0,0.5,0,0.7-0.1
					c0.2,0,0.4-0.1,0.6-0.2s0.3-0.2,0.4-0.4s0.2-0.4,0.2-0.6c0-0.3-0.1-0.5-0.2-0.7s-0.2-0.3-0.4-0.4c-0.2-0.1-0.4-0.2-0.6-0.2
					s-0.5-0.1-0.7-0.1h-1.6V83.6z"/>
				<path class="st9" d="M296.1,83.2c0,0.2,0,0.5,0,0.7s0,0.4,0,0.6h-0.8c0-0.1,0-0.3,0-0.4s0-0.3,0-0.4l0,0
					c-0.1,0.1-0.1,0.2-0.2,0.4s-0.2,0.2-0.4,0.3c-0.1,0.1-0.3,0.2-0.5,0.2c-0.2,0.1-0.4,0.1-0.6,0.1c-0.3,0-0.6-0.1-0.9-0.2
					s-0.4-0.2-0.6-0.4c-0.2-0.2-0.3-0.4-0.4-0.7s-0.1-0.5-0.1-0.9v-3.2h0.9v3.1c0,0.4,0.1,0.8,0.3,1c0.2,0.3,0.5,0.4,0.9,0.4
					c0.3,0,0.5,0,0.7-0.1s0.4-0.2,0.5-0.4s0.2-0.4,0.3-0.6s0.1-0.5,0.1-0.8v-2.5h0.9L296.1,83.2L296.1,83.2z"/>
				<path class="st9" d="M297.8,76.2h0.9v8.3h-0.9V76.2z"/>
				<path class="st9" d="M300.3,80c0.3-0.3,0.6-0.5,0.9-0.6c0.4-0.1,0.7-0.2,1.1-0.2c0.8,0,1.3,0.2,1.7,0.5c0.3,0.4,0.5,0.9,0.5,1.6
					v2.2c0,0.1,0,0.3,0,0.5s0,0.3,0.1,0.4h-0.8c0-0.1,0-0.2,0-0.4c0-0.1,0-0.3,0-0.4l0,0c-0.2,0.3-0.4,0.5-0.7,0.6
					c-0.3,0.2-0.6,0.3-1,0.3c-0.3,0-0.5,0-0.7-0.1s-0.4-0.2-0.6-0.3c-0.2-0.1-0.3-0.3-0.4-0.5s-0.2-0.4-0.2-0.7c0-0.4,0.1-0.8,0.3-1
					c0.2-0.2,0.5-0.4,0.8-0.5s0.7-0.2,1.1-0.2s0.7,0,1,0h0.3V81c0-0.4-0.1-0.7-0.3-0.8c-0.2-0.2-0.5-0.3-0.9-0.3
					c-0.3,0-0.6,0-0.8,0.1c-0.3,0.1-0.5,0.2-0.7,0.4L300.3,80z M302.8,82c-0.6,0-1,0.1-1.3,0.2c-0.3,0.2-0.5,0.4-0.5,0.8
					c0,0.3,0.1,0.6,0.3,0.7c0.2,0.1,0.5,0.2,0.8,0.2c0.2,0,0.5,0,0.7-0.1s0.3-0.2,0.5-0.3c0.1-0.1,0.2-0.3,0.3-0.5
					c0.1-0.2,0.1-0.4,0.1-0.6V82H302.8z"/>
				<path class="st9" d="M306,76.2h0.9v3.9l0,0c0.2-0.3,0.5-0.5,0.8-0.6s0.7-0.2,1-0.2c0.4,0,0.8,0.1,1.1,0.2s0.6,0.3,0.9,0.6
					s0.4,0.5,0.5,0.9s0.2,0.7,0.2,1.1s-0.1,0.7-0.2,1.1s-0.3,0.6-0.5,0.9c-0.2,0.2-0.5,0.4-0.8,0.6s-0.7,0.2-1,0.2
					c-0.5,0-0.9-0.1-1.2-0.3c-0.3-0.2-0.6-0.4-0.8-0.7l0,0v0.9H306V76.2z M306.9,81.9c0,0.3,0,0.5,0.1,0.8c0.1,0.2,0.2,0.4,0.4,0.6
					c0.2,0.2,0.4,0.3,0.6,0.4s0.5,0.1,0.8,0.1s0.5,0,0.8-0.1c0.2-0.1,0.4-0.2,0.6-0.4c0.2-0.2,0.3-0.4,0.4-0.6s0.1-0.5,0.1-0.8
					s0-0.5-0.1-0.8c-0.1-0.2-0.2-0.4-0.4-0.6c-0.2-0.2-0.4-0.3-0.6-0.4s-0.5-0.1-0.8-0.1s-0.5,0-0.8,0.1c-0.2,0.1-0.4,0.2-0.6,0.4
					c-0.2,0.2-0.3,0.4-0.4,0.6C306.9,81.4,306.9,81.6,306.9,81.9z"/>
				<path class="st9" d="M320.3,77.5h-3.2v2.1c0.1-0.1,0.3-0.1,0.5-0.1s0.4,0,0.5,0c0.4,0,0.7,0.1,1,0.2s0.6,0.3,0.8,0.5
					c0.2,0.2,0.4,0.5,0.5,0.8s0.2,0.7,0.2,1c0,0.4-0.1,0.7-0.2,1.1c-0.1,0.3-0.3,0.6-0.6,0.8s-0.5,0.4-0.8,0.5s-0.7,0.2-1.1,0.2
					c-0.6,0-1.1-0.1-1.4-0.4c-0.4-0.3-0.7-0.6-0.9-1l0.9-0.4c0.1,0.3,0.3,0.5,0.6,0.7c0.3,0.2,0.5,0.3,0.9,0.3c0.2,0,0.5,0,0.7-0.1
					s0.4-0.2,0.5-0.4c0.2-0.2,0.3-0.3,0.4-0.6c0.1-0.2,0.1-0.5,0.1-0.7c0-0.3,0-0.5-0.1-0.8c-0.1-0.2-0.2-0.4-0.4-0.6
					c-0.2-0.1-0.4-0.3-0.6-0.3c-0.2-0.1-0.5-0.1-0.8-0.1s-0.5,0-0.8,0.1s-0.5,0.2-0.8,0.3l0.1-4h4.1v0.9H320.3z"/>
				<path class="st9" d="M321.6,80.6c0-0.4,0-0.9,0.1-1.4s0.2-0.9,0.4-1.3c0.2-0.4,0.5-0.7,0.8-1s0.8-0.4,1.3-0.4s1,0.1,1.3,0.4
					s0.6,0.6,0.8,1c0.2,0.4,0.3,0.8,0.4,1.3s0.1,0.9,0.1,1.4c0,0.4,0,0.9-0.1,1.4s-0.2,0.9-0.4,1.3c-0.2,0.4-0.5,0.7-0.8,1
					s-0.8,0.4-1.3,0.4s-1-0.1-1.3-0.4s-0.6-0.6-0.8-1c-0.2-0.4-0.3-0.8-0.4-1.3S321.6,81,321.6,80.6z M322.5,80.6c0,0.2,0,0.4,0,0.6
					s0,0.5,0.1,0.7s0.1,0.5,0.2,0.7s0.2,0.4,0.3,0.6c0.1,0.2,0.3,0.3,0.5,0.4s0.4,0.2,0.7,0.2s0.5-0.1,0.7-0.2s0.3-0.2,0.5-0.4
					c0.1-0.2,0.2-0.4,0.3-0.6s0.1-0.5,0.2-0.7c0-0.2,0.1-0.5,0.1-0.7s0-0.4,0-0.6s0-0.4,0-0.6s0-0.5-0.1-0.7c0-0.2-0.1-0.5-0.2-0.7
					s-0.2-0.4-0.3-0.6c-0.1-0.2-0.3-0.3-0.5-0.4s-0.4-0.2-0.7-0.2s-0.5,0.1-0.7,0.2s-0.3,0.2-0.5,0.4c-0.1,0.2-0.2,0.4-0.3,0.6
					c-0.1,0.2-0.1,0.5-0.2,0.7s-0.1,0.5-0.1,0.7S322.5,80.4,322.5,80.6z"/>
				<path class="st9" d="M331.2,84.5h-0.9v-6.6l0,0l-1.4,1.2l-0.5-0.7l2.1-1.7h0.8v7.8H331.2z"/>
			</g>
		</g>
		<g>
			<g>
				<path class="st9" d="M284.8,97.8h2.4c0.3,0,0.6,0,0.9,0.1s0.6,0.2,0.8,0.3s0.4,0.3,0.6,0.6c0.2,0.2,0.2,0.5,0.2,0.9
					c0,0.5-0.1,0.8-0.4,1.1c-0.2,0.3-0.6,0.5-1,0.6l0,0c0.2,0,0.5,0.1,0.7,0.2s0.4,0.2,0.6,0.4c0.2,0.2,0.3,0.4,0.4,0.6
					s0.1,0.5,0.1,0.7c0,0.4-0.1,0.8-0.3,1.1c-0.2,0.3-0.4,0.5-0.7,0.7c-0.3,0.2-0.6,0.3-1,0.3c-0.4,0.1-0.7,0.1-1.1,0.1h-2.3
					L284.8,97.8L284.8,97.8z M285.8,101.1h1.3c0.2,0,0.4,0,0.6,0s0.4-0.1,0.6-0.2s0.3-0.2,0.4-0.4s0.2-0.4,0.2-0.7
					c0-0.2,0-0.4-0.1-0.6s-0.2-0.3-0.4-0.4c-0.2-0.1-0.3-0.1-0.5-0.2c-0.2,0-0.4,0-0.6,0h-1.4v2.5H285.8z M285.8,104.8h1.6
					c0.2,0,0.5,0,0.7-0.1c0.2,0,0.4-0.1,0.6-0.2s0.3-0.2,0.4-0.4s0.2-0.4,0.2-0.6c0-0.3-0.1-0.5-0.2-0.7s-0.2-0.3-0.4-0.4
					c-0.2-0.1-0.4-0.2-0.6-0.2s-0.5-0.1-0.7-0.1h-1.6V104.8z"/>
				<path class="st9" d="M296.1,104.4c0,0.2,0,0.5,0,0.7s0,0.4,0,0.6h-0.8c0-0.1,0-0.3,0-0.4s0-0.3,0-0.4l0,0
					c-0.1,0.1-0.1,0.2-0.2,0.4s-0.2,0.2-0.4,0.3c-0.1,0.1-0.3,0.2-0.5,0.2c-0.2,0.1-0.4,0.1-0.6,0.1c-0.3,0-0.6-0.1-0.9-0.2
					s-0.4-0.2-0.6-0.4c-0.2-0.2-0.3-0.4-0.4-0.7s-0.1-0.5-0.1-0.9v-3.2h0.9v3.1c0,0.4,0.1,0.8,0.3,1c0.2,0.3,0.5,0.4,0.9,0.4
					c0.3,0,0.5,0,0.7-0.1s0.4-0.2,0.5-0.4s0.2-0.4,0.3-0.6s0.1-0.5,0.1-0.8v-2.5h0.9L296.1,104.4L296.1,104.4z"/>
				<path class="st9" d="M297.8,104.3c0.2,0.2,0.4,0.4,0.6,0.5s0.5,0.2,0.8,0.2c0.1,0,0.3,0,0.4,0s0.3-0.1,0.4-0.1
					c0.1-0.1,0.2-0.1,0.3-0.2c0.1-0.1,0.1-0.2,0.1-0.4c0-0.1,0-0.3-0.1-0.3s-0.1-0.2-0.2-0.2c-0.1-0.1-0.2-0.1-0.4-0.1
					c-0.1,0-0.3-0.1-0.4-0.1c-0.2-0.1-0.5-0.1-0.7-0.2s-0.4-0.2-0.6-0.3s-0.3-0.2-0.4-0.4c-0.1-0.2-0.1-0.4-0.1-0.6s0.1-0.5,0.2-0.7
					s0.3-0.3,0.4-0.5c0.2-0.1,0.4-0.2,0.6-0.3c0.2-0.1,0.5-0.1,0.7-0.1c0.4,0,0.7,0.1,1,0.2s0.6,0.4,0.7,0.7l-0.7,0.5
					c-0.1-0.2-0.3-0.3-0.4-0.4c-0.2-0.1-0.4-0.2-0.7-0.2c-0.1,0-0.2,0-0.4,0s-0.2,0.1-0.3,0.1c-0.1,0.1-0.2,0.1-0.2,0.2
					c-0.1,0.1-0.1,0.2-0.1,0.3c0,0.1,0,0.2,0.1,0.3c0.1,0.1,0.2,0.1,0.3,0.2c0.1,0.1,0.3,0.1,0.4,0.2c0.2,0,0.3,0.1,0.5,0.1
					s0.4,0.1,0.6,0.2s0.4,0.2,0.5,0.3c0.2,0.1,0.3,0.3,0.4,0.4s0.1,0.4,0.1,0.6c0,0.3-0.1,0.5-0.2,0.7s-0.3,0.4-0.5,0.5
					s-0.4,0.2-0.7,0.3c-0.2,0.1-0.5,0.1-0.8,0.1c-0.4,0-0.8-0.1-1.1-0.2s-0.6-0.4-0.9-0.8L297.8,104.3z"/>
				<path class="st9" d="M302.3,101.1c0.3-0.3,0.6-0.5,0.9-0.6c0.4-0.1,0.7-0.2,1.1-0.2c0.8,0,1.3,0.2,1.7,0.5
					c0.3,0.4,0.5,0.9,0.5,1.6v2.2c0,0.1,0,0.3,0,0.5s0,0.3,0.1,0.4h-0.8c0-0.1,0-0.2,0-0.4c0-0.1,0-0.3,0-0.4l0,0
					c-0.2,0.3-0.4,0.5-0.7,0.6c-0.3,0.2-0.6,0.3-1,0.3c-0.3,0-0.5,0-0.7-0.1s-0.4-0.2-0.6-0.3c-0.2-0.1-0.3-0.3-0.4-0.5
					s-0.2-0.4-0.2-0.7c0-0.4,0.1-0.8,0.3-1c0.2-0.2,0.5-0.4,0.8-0.5s0.7-0.2,1.1-0.2s0.7,0,1,0h0.3v-0.2c0-0.4-0.1-0.7-0.3-0.8
					c-0.2-0.2-0.5-0.3-0.9-0.3c-0.3,0-0.6,0-0.8,0.1c-0.3,0.1-0.5,0.2-0.7,0.4L302.3,101.1z M304.8,103.1c-0.6,0-1,0.1-1.3,0.2
					c-0.3,0.2-0.5,0.4-0.5,0.8c0,0.3,0.1,0.6,0.3,0.7c0.2,0.1,0.5,0.2,0.8,0.2c0.2,0,0.5,0,0.7-0.1s0.3-0.2,0.5-0.3
					c0.1-0.1,0.2-0.3,0.3-0.5c0.1-0.2,0.1-0.4,0.1-0.6v-0.3L304.8,103.1L304.8,103.1z"/>
				<path class="st9" d="M308.1,101.7c0-0.2,0-0.5,0-0.7s0-0.4,0-0.6h0.8c0,0.1,0,0.3,0,0.4s0,0.3,0,0.4l0,0
					c0.1-0.1,0.1-0.2,0.2-0.4c0.1-0.1,0.2-0.2,0.4-0.3s0.3-0.2,0.5-0.2s0.4-0.1,0.6-0.1c0.3,0,0.6,0.1,0.9,0.2
					c0.2,0.1,0.4,0.2,0.6,0.4c0.2,0.2,0.3,0.4,0.4,0.7c0.1,0.3,0.1,0.5,0.1,0.9v3.2h-0.9v-3.1c0-0.4-0.1-0.8-0.3-1
					c-0.2-0.3-0.5-0.4-0.9-0.4c-0.3,0-0.5,0-0.7,0.1s-0.4,0.2-0.5,0.4c-0.1,0.2-0.2,0.4-0.3,0.6s-0.1,0.5-0.1,0.8v2.5H308
					L308.1,101.7L308.1,101.7z"/>
				<path class="st9" d="M320.4,105.6h-0.9V99l0,0l-1.4,1.2l-0.5-0.7l2.1-1.7h0.8v7.8H320.4z"/>
				<path class="st9" d="M326.6,105.6h-0.9V99l0,0l-1.4,1.2l-0.5-0.7l2.1-1.7h0.8v7.8H326.6z"/>
				<path class="st9" d="M329.2,102.6h2.7v0.8h-2.7V102.6z"/>
				<path class="st9" d="M333.3,97.8h1.4l2.6,6.1l0,0l2.7-6.1h1.3v7.8h-0.9v-6.5l0,0l-2.8,6.5H337l-2.8-6.5l0,0v6.5h-0.9L333.3,97.8
					L333.3,97.8z"/>
				<path class="st9" d="M346.3,105.6h-0.9V99l0,0l-1.4,1.2l-0.5-0.7l2.1-1.7h0.8v7.8H346.3z"/>
			</g>
		</g>
	</g>
	<g>
		<polyline class="st10" points="229.6,55.8 259.1,55.8 281.1,18.3 		"/>
		<polyline class="st10" points="281.1,59.8 259.1,55.8 281.1,38.8 		"/>
		<polyline class="st10" points="281.1,101.8 259.1,55.8 281.1,79.8 		"/>
	</g>
</g>
</svg>
