<?xml version="1.0" encoding="utf-8"?>
<!-- Generator: Adobe Illustrator 21.1.0, SVG Export Plug-In . SVG Version: 6.00 Build 0)  -->
<svg version="1.1" id="Layer_1" xmlns="http://www.w3.org/2000/svg" xmlns:xlink="http://www.w3.org/1999/xlink" x="0px" y="0px"
	 viewBox="0 0 133.3 44.4" style="enable-background:new 0 0 133.3 44.4;" xml:space="preserve">
<style type="text/css">
	.st0{fill:#535353;}
</style>
<g>
	<g>
		<path class="st0" d="M0.3,23.8V3.4H14V6H3.1v6.1h9.5v2.5H3.1v9.2H0.3L0.3,23.8z M16.6,23.8V3.4h2.5v20.4H16.6L16.6,23.8z
			 M32.2,21.8c-0.8,0.8-1.6,1.4-2.5,1.8c-0.9,0.4-1.8,0.6-2.8,0.6c-1.5,0-2.7-0.4-3.5-1.2c-0.9-0.8-1.3-1.9-1.3-3.3
			c0-1.4,0.4-2.4,1.3-3.2c0.8-0.8,2.1-1.3,3.8-1.5c0.4,0,1-0.1,1.8-0.2c1.3-0.1,2-0.3,2.3-0.4c0.3-0.1,0.5-0.3,0.6-0.4
			c0.1-0.2,0.1-0.6,0.1-1.2c0-0.8-0.3-1.3-0.8-1.7c-0.6-0.4-1.4-0.6-2.5-0.6c-1.2,0-2,0.2-2.6,0.7s-0.9,1.1-0.9,2.1h-2.4v-0.1
			c0-1.5,0.5-2.7,1.6-3.6c1.1-0.9,2.5-1.3,4.3-1.3c2,0,3.4,0.4,4.4,1.1c0.9,0.7,1.4,1.9,1.4,3.5v7.4c0,0.6,0.1,1,0.2,1.2
			c0.1,0.2,0.4,0.3,0.7,0.3c0.1,0,0.2,0,0.3,0s0.2,0,0.4-0.1v1.9c-0.3,0.1-0.6,0.1-0.8,0.2c-0.2,0-0.4,0-0.6,0
			c-0.8,0-1.5-0.2-1.9-0.5C32.4,23.1,32.2,22.6,32.2,21.8L32.2,21.8L32.2,21.8z M31.9,16.2c-0.7,0.4-1.8,0.6-3.4,0.8
			c-0.6,0.1-1,0.1-1.3,0.2c-0.9,0.1-1.6,0.4-2,0.8c-0.4,0.4-0.6,1-0.6,1.7s0.2,1.3,0.7,1.7s1.1,0.6,2,0.6c1.3,0,2.4-0.3,3.3-1
			s1.3-1.5,1.3-2.6V16.2L31.9,16.2z M56.5,23.8v-9.1c0-1.5-0.2-2.5-0.6-3.1c-0.4-0.5-1.1-0.8-2.1-0.8c-1.2,0-2.1,0.4-2.8,1.1
			c-0.7,0.7-1,1.8-1,3.1v8.8h-2.5v-9.1c0-1.5-0.2-2.5-0.6-3.1c-0.4-0.5-1.1-0.8-2.1-0.8c-1.2,0-2.1,0.4-2.8,1.1
			c-0.7,0.8-1,1.8-1,3.1v8.8h-2.5V8.9h2.4V11c0.6-0.8,1.2-1.5,2-1.9s1.6-0.6,2.7-0.6c0.9,0,1.7,0.2,2.4,0.6c0.7,0.4,1.2,1,1.7,1.8
			c0.6-0.8,1.4-1.4,2.1-1.8c0.8-0.4,1.6-0.6,2.6-0.6s1.8,0.2,2.5,0.5s1.3,0.8,1.6,1.5c0.2,0.4,0.4,0.8,0.5,1.4
			c0.1,0.5,0.1,1.4,0.1,2.5v0.4v8.9L56.5,23.8L56.5,23.8z M64.6,15h8.1c0-1.4-0.4-2.5-1.1-3.2c-0.7-0.8-1.7-1.1-2.9-1.1
			s-2.2,0.4-2.9,1.1C65.2,12.5,64.8,13.6,64.6,15L64.6,15z M72.7,19h2.5c-0.3,1.6-1,2.9-2.1,3.9c-1.2,0.9-2.6,1.4-4.4,1.4
			c-2.1,0-3.7-0.7-4.9-2.1c-1.2-1.4-1.8-3.3-1.8-5.7c0-2.5,0.6-4.5,1.8-5.9s2.8-2.1,4.9-2.1c2.1,0,3.8,0.7,5,2s1.8,3.2,1.8,5.6
			c0,0.3,0,0.5,0,0.7c0,0.1,0,0.3,0,0.4H64.7c0,1.6,0.4,2.8,1.2,3.6c0.7,0.9,1.8,1.3,3.1,1.3c1,0,1.9-0.3,2.5-0.8
			C72.1,20.7,72.5,19.9,72.7,19L72.7,19z M80.7,16.2c0,1.8,0.4,3.3,1.1,4.3c0.8,1,1.8,1.5,3.2,1.5s2.4-0.5,3.2-1.5s1.2-2.3,1.2-4
			c0-1.9-0.4-3.3-1.1-4.3c-0.8-1-1.8-1.5-3.2-1.5c-1.5,0-2.6,0.5-3.3,1.4C81,13,80.7,14.4,80.7,16.2L80.7,16.2z M78.3,23.8V3.4h2.4
			V11c0.6-0.8,1.3-1.5,2.1-1.9s1.7-0.6,2.7-0.6c2,0,3.5,0.7,4.7,2.2c1.2,1.4,1.8,3.4,1.8,5.8c0,2.4-0.6,4.3-1.8,5.7
			s-2.8,2.1-4.7,2.1c-1,0-2-0.2-2.7-0.6c-0.8-0.4-1.5-1-2.1-1.8v1.9L78.3,23.8L78.3,23.8z M95.1,23.8V3.4h2.5v20.4H95.1L95.1,23.8z
			 M103.3,16.3c0,1.8,0.4,3.2,1.2,4.2s1.9,1.5,3.4,1.5s2.6-0.5,3.4-1.5c0.8-1,1.2-2.4,1.2-4.2s-0.4-3.2-1.2-4.2s-1.9-1.5-3.4-1.5
			s-2.6,0.5-3.4,1.5C103.7,13.1,103.3,14.5,103.3,16.3L103.3,16.3z M100.8,16.3c0-2.5,0.6-4.4,1.9-5.8c1.2-1.4,3-2.1,5.2-2.1
			c2.3,0,4,0.7,5.2,2.1c1.2,1.4,1.9,3.3,1.9,5.8s-0.6,4.4-1.9,5.8c-1.2,1.4-3,2.1-5.2,2.1c-2.3,0-4-0.7-5.2-2.1
			C101.4,20.8,100.8,18.8,100.8,16.3L100.8,16.3z M127.8,13.9c-0.1-1-0.4-1.8-1.1-2.3c-0.7-0.5-1.6-0.8-2.7-0.8
			c-1.3,0-2.4,0.5-3.1,1.5c-0.7,1-1.1,2.4-1.1,4.2s0.4,3.2,1.1,4.2c0.7,1,1.7,1.5,3,1.5c1.2,0,2.1-0.3,2.8-0.9
			c0.7-0.6,1.1-1.5,1.3-2.6h2.4c-0.1,1.8-0.8,3.2-1.9,4.3c-1.2,1-2.7,1.5-4.7,1.5s-3.6-0.7-4.8-2.1c-1.2-1.4-1.7-3.3-1.7-5.7
			c0-2.5,0.6-4.4,1.8-5.8c1.2-1.4,2.9-2.1,5-2.1c1.9,0,3.4,0.5,4.5,1.5s1.7,2.3,1.8,4h-2.6V13.9z"/>
		<path class="st0" d="M0,44.2V33.9h6.9v1.3H1.4v3.1h4.8v1.3H1.4v4.6H0L0,44.2z M11.9,35.3v-1.4h1.3v1.4H11.9L11.9,35.3z M11.9,44.2
			v-7.5h1.3v7.5H11.9L11.9,44.2z M18.8,44.2v-7.5H20V38c0.2-0.5,0.5-0.9,0.8-1.1s0.8-0.4,1.3-0.4c0.1,0,0.2,0,0.2,0h0.1v1.3h-0.1
			c0,0-0.1,0-0.2,0c-0.7,0-1.2,0.2-1.5,0.5c-0.3,0.4-0.5,0.9-0.5,1.6v4.3H18.8L18.8,44.2z M28.2,39.7h4.1c0-0.7-0.2-1.2-0.5-1.6
			s-0.8-0.6-1.5-0.6c-0.6,0-1.1,0.2-1.5,0.6C28.5,38.5,28.3,39,28.2,39.7L28.2,39.7z M32.3,41.8h1.2c-0.1,0.8-0.5,1.5-1.1,1.9
			c-0.6,0.5-1.3,0.7-2.2,0.7c-1,0-1.8-0.3-2.4-1s-0.9-1.7-0.9-2.9c0-1.3,0.3-2.3,0.9-3s1.4-1.1,2.5-1.1s1.9,0.3,2.5,1
			s0.9,1.6,0.9,2.8c0,0.2,0,0.3,0,0.3c0,0.1,0,0.1,0,0.2h-5.4c0,0.8,0.2,1.4,0.6,1.8s0.9,0.6,1.6,0.6c0.5,0,0.9-0.1,1.3-0.4
			C32,42.6,32.2,42.2,32.3,41.8L32.3,41.8z M44.2,35.1v3.5h2.4c0.9,0,1.5-0.1,1.8-0.4c0.4-0.3,0.5-0.7,0.5-1.4c0-0.6-0.2-1-0.5-1.3
			c-0.3-0.2-1-0.4-1.9-0.4L44.2,35.1L44.2,35.1z M42.8,33.9h4c0.6,0,1.1,0,1.4,0.1c0.3,0.1,0.6,0.1,0.8,0.3c0.4,0.2,0.8,0.6,1,1
			s0.3,0.9,0.3,1.5s-0.1,1-0.4,1.4c-0.2,0.4-0.6,0.7-1.1,0.9c0.4,0.1,0.7,0.3,0.9,0.6C49.9,40,50,40.4,50,41l0.1,1.7
			c0,0.4,0.1,0.6,0.1,0.8c0.1,0.2,0.2,0.3,0.3,0.4v0.3h-1.6c-0.1-0.2-0.2-0.7-0.3-1.4l0,0l-0.1-1.3c0-0.7-0.2-1.1-0.4-1.3
			c-0.2-0.2-0.9-0.3-1.8-0.3H44v4.3h-1.4V33.9H42.8z M56.8,39.7h4.1c0-0.7-0.2-1.2-0.5-1.6s-0.8-0.6-1.5-0.6c-0.6,0-1.1,0.2-1.5,0.6
			C57.1,38.5,56.9,39,56.8,39.7L56.8,39.7z M60.9,41.8h1.2c-0.1,0.8-0.5,1.5-1.1,1.9c-0.6,0.5-1.3,0.7-2.2,0.7c-1,0-1.8-0.3-2.4-1
			c-0.6-0.7-0.9-1.7-0.9-2.9c0-1.3,0.3-2.3,0.9-3c0.6-0.7,1.4-1.1,2.5-1.1s1.9,0.3,2.5,1s0.9,1.6,0.9,2.8c0,0.2,0,0.3,0,0.3
			c0,0.1,0,0.1,0,0.2h-5.4c0,0.8,0.2,1.4,0.6,1.8c0.4,0.4,0.9,0.6,1.6,0.6c0.5,0,0.9-0.1,1.3-0.4C60.6,42.6,60.8,42.2,60.9,41.8
			L60.9,41.8z M68.9,42.3c0,0.3,0,0.6,0.1,0.7s0.3,0.2,0.5,0.2c0.1,0,0.2,0,0.3,0s0.2,0,0.4,0v1c-0.2,0-0.4,0.1-0.6,0.1
			c-0.2,0-0.3,0-0.4,0c-0.6,0-1-0.1-1.2-0.3c-0.2-0.2-0.4-0.6-0.4-1.2v-5h-1.1v-1h1.1v-2.1h1.3v2.1h1.3v1h-1.3L68.9,42.3L68.9,42.3z
			 M79.7,43.2c-0.4,0.4-0.8,0.7-1.2,0.9c-0.4,0.2-0.9,0.3-1.4,0.3c-0.8,0-1.4-0.2-1.8-0.6c-0.4-0.4-0.6-0.9-0.6-1.6s0.2-1.2,0.6-1.6
			c0.4-0.4,1.1-0.6,1.9-0.7c0.2,0,0.5-0.1,0.9-0.1c0.6-0.1,1-0.1,1.2-0.2c0.1-0.1,0.2-0.1,0.3-0.2c0-0.1,0.1-0.3,0.1-0.6
			c0-0.4-0.1-0.7-0.4-0.9c-0.3-0.2-0.7-0.3-1.3-0.3s-1,0.1-1.3,0.3c-0.3,0.2-0.4,0.6-0.4,1h-1.2v-0.1c0-0.8,0.3-1.4,0.8-1.8
			s1.3-0.7,2.2-0.7c1,0,1.7,0.2,2.2,0.6s0.7,1,0.7,1.8v3.7c0,0.3,0,0.5,0.1,0.6s0.2,0.1,0.4,0.1h0.1c0.1,0,0.1,0,0.2,0v1
			c-0.2,0-0.3,0.1-0.4,0.1c-0.1,0-0.2,0-0.3,0c-0.4,0-0.7-0.1-0.9-0.3C79.8,43.9,79.7,43.6,79.7,43.2L79.7,43.2L79.7,43.2z
			 M79.6,40.4c-0.3,0.2-0.9,0.3-1.7,0.4c-0.3,0-0.5,0.1-0.6,0.1c-0.5,0.1-0.8,0.2-1,0.4c-0.2,0.2-0.3,0.5-0.3,0.9s0.1,0.7,0.3,0.9
			c0.2,0.2,0.6,0.3,1,0.3c0.7,0,1.2-0.2,1.7-0.5c0.4-0.3,0.6-0.8,0.6-1.3V40.4L79.6,40.4z M86.6,44.2v-7.5h1.2V38
			c0.2-0.5,0.5-0.9,0.8-1.1s0.8-0.4,1.3-0.4c0.1,0,0.2,0,0.2,0h0.1v1.3h-0.1c0,0-0.1,0-0.2,0c-0.7,0-1.2,0.2-1.5,0.5
			c-0.3,0.4-0.5,0.9-0.5,1.6v4.3H86.6L86.6,44.2z M100.4,40.4c0-0.9-0.2-1.6-0.6-2.1c-0.4-0.5-0.9-0.7-1.7-0.7
			c-0.7,0-1.3,0.3-1.6,0.8c-0.4,0.5-0.6,1.2-0.6,2.2c0,0.9,0.2,1.5,0.6,2s0.9,0.7,1.6,0.7c0.7,0,1.2-0.2,1.6-0.8
			C100.2,42,100.4,41.3,100.4,40.4L100.4,40.4z M101.5,33.9v10.3h-1.2v-1c-0.3,0.4-0.7,0.7-1.1,0.9c-0.4,0.2-0.8,0.3-1.3,0.3
			c-1,0-1.8-0.4-2.4-1.1c-0.6-0.7-0.9-1.7-0.9-2.9c0-1.2,0.3-2.2,0.9-2.9c0.6-0.7,1.4-1.1,2.4-1.1c0.5,0,1,0.1,1.4,0.3
			c0.4,0.2,0.7,0.5,1,0.9v-3.7L101.5,33.9L101.5,33.9z M111.8,43.2c-0.4,0.4-0.8,0.7-1.2,0.9c-0.4,0.2-0.9,0.3-1.4,0.3
			c-0.8,0-1.4-0.2-1.8-0.6c-0.4-0.4-0.6-0.9-0.6-1.6s0.2-1.2,0.6-1.6c0.4-0.4,1.1-0.6,1.9-0.7c0.2,0,0.5-0.1,0.9-0.1
			c0.6-0.1,1-0.1,1.2-0.2c0.1-0.1,0.2-0.1,0.3-0.2c0-0.1,0.1-0.3,0.1-0.6c0-0.4-0.1-0.7-0.4-0.9c-0.3-0.2-0.7-0.3-1.3-0.3
			s-1,0.1-1.3,0.3c-0.3,0.2-0.4,0.6-0.4,1h-1.2v-0.1c0-0.8,0.3-1.4,0.8-1.8s1.3-0.7,2.2-0.7c1,0,1.7,0.2,2.2,0.6s0.7,1,0.7,1.8v3.7
			c0,0.3,0,0.5,0.1,0.6s0.2,0.1,0.4,0.1h0.1c0.1,0,0.1,0,0.2,0v1c-0.2,0-0.3,0.1-0.4,0.1c-0.1,0-0.2,0-0.3,0c-0.4,0-0.7-0.1-0.9-0.3
			C111.9,43.9,111.8,43.6,111.8,43.2L111.8,43.2L111.8,43.2z M111.7,40.4c-0.3,0.2-0.9,0.3-1.7,0.4c-0.3,0-0.5,0.1-0.6,0.1
			c-0.5,0.1-0.8,0.2-1,0.4c-0.2,0.2-0.3,0.5-0.3,0.9s0.1,0.7,0.3,0.9c0.2,0.2,0.6,0.3,1,0.3c0.7,0,1.2-0.2,1.7-0.5
			c0.4-0.3,0.6-0.8,0.6-1.3V40.4L111.7,40.4z M123.6,44.2v-4.6c0-0.7-0.1-1.2-0.3-1.5s-0.6-0.4-1.2-0.4c-0.7,0-1.2,0.2-1.6,0.6
			c-0.4,0.4-0.6,1-0.6,1.7v4.2h-1.2v-7.5h1.2v1.1c0.3-0.4,0.6-0.8,1-1s0.9-0.3,1.4-0.3c0.6,0,1,0.1,1.4,0.3c0.4,0.2,0.7,0.4,0.9,0.8
			c0.1,0.2,0.2,0.4,0.3,0.6s0.1,0.6,0.1,1.2v0.4v4.4H123.6L123.6,44.2z M132,42.3c0,0.3,0,0.6,0.1,0.7s0.3,0.2,0.5,0.2
			c0.1,0,0.2,0,0.3,0s0.2,0,0.4,0v1c-0.2,0-0.4,0.1-0.6,0.1c-0.2,0-0.3,0-0.4,0c-0.6,0-1-0.1-1.2-0.3c-0.2-0.2-0.4-0.6-0.4-1.2v-5
			h-1.1v-1h1.1v-2.1h1.3v2.1h1.3v1H132L132,42.3L132,42.3z"/>
	</g>
	<g>
		<path class="st0" d="M132.9,1.7c-0.1-0.3-0.3-0.6-0.6-0.9c-0.2-0.2-0.6-0.5-0.9-0.6S130.7,0,130.3,0c-0.4,0-0.7,0.1-1.1,0.2
			c-0.3,0.1-0.6,0.3-0.9,0.6c-0.2,0.2-0.5,0.6-0.6,0.9c-0.1,0.4-0.2,0.7-0.2,1.1c0,0.4,0.1,0.8,0.2,1.1c0.1,0.3,0.3,0.6,0.6,0.9
			c0.3,0.2,0.6,0.5,0.9,0.6c0.4,0.1,0.7,0.2,1.1,0.2c0.4,0,0.8-0.1,1.1-0.2c0.3-0.1,0.6-0.3,0.9-0.6c0.3-0.3,0.5-0.6,0.6-0.9
			c0.1-0.4,0.2-0.7,0.2-1.1S133,2,132.9,1.7z M132.4,3.7c-0.1,0.2-0.2,0.5-0.5,0.7c-0.2,0.2-0.5,0.4-0.7,0.5s-0.6,0.2-0.9,0.2
			c-0.3,0-0.6-0.1-0.9-0.2c-0.2-0.1-0.5-0.3-0.7-0.5s-0.4-0.5-0.5-0.7S128,3.1,128,2.8c0-0.3,0.1-0.6,0.2-0.9
			c0.1-0.2,0.3-0.6,0.5-0.7c0.2-0.2,0.5-0.4,0.7-0.5c0.3-0.1,0.6-0.2,0.9-0.2c0.3,0,0.6,0.1,0.9,0.2c0.2,0.1,0.6,0.3,0.7,0.5
			c0.2,0.2,0.4,0.5,0.5,0.7s0.2,0.6,0.2,0.9C132.5,3.1,132.5,3.4,132.4,3.7z"/>
	</g>
	<g>
		<path class="st0" d="M131.4,2.6c0.1-0.2,0.2-0.4,0.2-0.6c0-0.3-0.1-0.6-0.3-0.7c-0.2-0.1-0.6-0.2-0.9-0.2h-1.2v3.1h0.6V2.9h0.6
			l0.7,1.3h0.7l-0.7-1.4C131.1,2.8,131.3,2.8,131.4,2.6z M130.9,2.5c-0.1,0.1-0.3,0.1-0.6,0.1h-0.5v-1h0.5c0.3,0,0.5,0,0.6,0.2
			c0.1,0.1,0.2,0.2,0.2,0.4S130.9,2.4,130.9,2.5z"/>
	</g>
</g>
</svg>
