<?xml version="1.0" encoding="utf-8"?>
<!-- Generator: Adobe Illustrator 21.1.0, SVG Export Plug-In . SVG Version: 6.00 Build 0)  -->
<svg version="1.1" id="Layer_1" xmlns="http://www.w3.org/2000/svg" xmlns:xlink="http://www.w3.org/1999/xlink" x="0px" y="0px"
	 viewBox="0 0 200 150" style="enable-background:new 0 0 200 150;" xml:space="preserve">
<style type="text/css">
	.st0{fill:#FFFFFF;}
	.st1{fill:#8A5E3C;}
	.st2{fill:#C3996B;}
</style>
<g>
	<g>
		<path class="st0" d="M10.4,145.8v-10.2h1.9v10.2H10.4z"/>
		<path class="st0" d="M14.1,145.8v-10.2h2l2.7,7.2l-0.1-7.2h1.8v10.2h-1.9l-2.7-7.2l0.1,7.2H14.1z"/>
		<path class="st0" d="M22.2,145.8v-10.2h2l2.7,7.2l-0.1-7.2h1.8v10.2h-1.9l-2.7-7.2l0.1,7.2H22.2z"/>
		<path class="st0" d="M30.1,140.7c0-1.1,0.1-2,0.2-2.6c0.1-0.6,0.3-1.1,0.5-1.5c0.3-0.5,0.7-0.8,1.1-1c0.4-0.2,1-0.3,1.6-0.3
			s1.2,0.1,1.6,0.3c0.4,0.2,0.8,0.5,1.1,1c0.2,0.3,0.4,0.8,0.5,1.5c0.1,0.6,0.1,1.5,0.1,2.6c0,1.1-0.1,1.9-0.2,2.6
			c-0.1,0.6-0.3,1.1-0.5,1.5c-0.3,0.5-0.7,0.8-1.1,1c-0.4,0.2-1,0.3-1.6,0.3s-1.2-0.1-1.6-0.3s-0.8-0.5-1.1-1
			c-0.2-0.3-0.4-0.8-0.5-1.5C30.1,142.6,30.1,141.8,30.1,140.7z M32,140.7c0,1.7,0.1,2.7,0.3,3.2c0.2,0.4,0.6,0.7,1.1,0.7
			c0.5,0,0.9-0.2,1.1-0.6c0.2-0.4,0.3-1.5,0.3-3.2c0-1.7-0.1-2.8-0.3-3.2c-0.2-0.4-0.6-0.7-1.1-0.7s-0.9,0.2-1.1,0.7
			C32.1,137.9,32,139,32,140.7z"/>
		<path class="st0" d="M39.9,145.8l-2.3-10.2h2l1.5,8.2l1.4-8.2h2l-2.1,10.2H39.9z"/>
		<path class="st0" d="M45,145.8l2.3-10.2h2.6l2.3,10.2h-2.1l-0.5-2.6h-2.2l-0.5,2.6H45z M47.7,141.7h1.6l-0.8-4.3L47.7,141.7z"/>
		<path class="st0" d="M54.6,145.8v-8.5h-2.2v-1.7h6.3v1.7h-2.2v8.5H54.6z"/>
		<path class="st0" d="M59.7,145.8v-10.2h1.9v10.2H59.7z"/>
		<path class="st0" d="M65,145.8l-2.3-10.2h2l1.5,8.2l1.4-8.2h2l-2.1,10.2H65z"/>
		<path class="st0" d="M75.7,145.8v-8.5h-2.2v-1.7h6.3v1.7h-2.2v8.5H75.7z"/>
		<path class="st0" d="M80.8,145.8v-10.2H86v1.7h-3.4v2.4h3.1v1.6h-3.1v2.8h3.4v1.7H80.8z"/>
		<path class="st0" d="M91.6,142.1h1.9c0,0,0,0.1,0,0.2c0,0.1,0,0.2,0,0.2c0,1.2-0.2,2.1-0.7,2.6c-0.5,0.6-1.3,0.9-2.3,0.9
			c-0.5,0-0.9-0.1-1.3-0.2s-0.7-0.3-0.9-0.6c-0.3-0.4-0.6-0.8-0.7-1.5c-0.1-0.6-0.2-1.7-0.2-3.2c0-1.1,0-1.9,0.1-2.5
			c0.1-0.6,0.2-1.1,0.4-1.4c0.3-0.5,0.6-0.8,1-1c0.4-0.2,0.9-0.3,1.6-0.3c1,0,1.8,0.3,2.3,0.8c0.5,0.5,0.7,1.4,0.7,2.6h-1.8v-0.2
			c0-0.6-0.1-1-0.3-1.2c-0.2-0.3-0.5-0.4-0.8-0.4c-0.5,0-0.8,0.2-0.9,0.6c-0.2,0.4-0.2,1.4-0.2,3.1c0,1.8,0.1,3,0.2,3.4
			s0.5,0.6,0.9,0.6c0.4,0,0.7-0.2,0.9-0.5s0.3-0.9,0.3-1.7V142.1z"/>
		<path class="st0" d="M95,145.8v-10.2h1.9v4h2.6v-4h1.9v10.2h-1.9v-4.6h-2.6v4.6H95z"/>
		<path class="st0" d="M103.1,145.8v-10.2h2l2.7,7.2l-0.1-7.2h1.8v10.2h-1.9l-2.7-7.2l0.1,7.2H103.1z"/>
		<path class="st0" d="M111,140.7c0-1.1,0.1-2,0.2-2.6c0.1-0.6,0.3-1.1,0.5-1.5c0.3-0.5,0.7-0.8,1.1-1c0.4-0.2,1-0.3,1.6-0.3
			c0.7,0,1.2,0.1,1.6,0.3c0.4,0.2,0.8,0.5,1.1,1c0.2,0.3,0.4,0.8,0.5,1.5c0.1,0.6,0.1,1.5,0.1,2.6c0,1.1-0.1,1.9-0.2,2.6
			c-0.1,0.6-0.3,1.1-0.5,1.5c-0.3,0.5-0.7,0.8-1.1,1s-1,0.3-1.6,0.3c-0.7,0-1.2-0.1-1.6-0.3s-0.8-0.5-1.1-1
			c-0.2-0.3-0.4-0.8-0.5-1.5C111.1,142.6,111,141.8,111,140.7z M113,140.7c0,1.7,0.1,2.7,0.3,3.2c0.2,0.4,0.6,0.7,1.1,0.7
			c0.5,0,0.9-0.2,1.1-0.6c0.2-0.4,0.3-1.5,0.3-3.2c0-1.7-0.1-2.8-0.3-3.2c-0.2-0.4-0.6-0.7-1.1-0.7c-0.5,0-0.9,0.2-1.1,0.7
			C113.1,137.9,113,139,113,140.7z"/>
		<path class="st0" d="M119.2,145.8v-10.2h1.9v8.5h3.4v1.7H119.2z"/>
		<path class="st0" d="M125.9,145.8v-10.2h1.9v8.5h3.4v1.7H125.9z"/>
		<path class="st0" d="M132.3,140.7c0-1.1,0.1-2,0.2-2.6c0.1-0.6,0.3-1.1,0.5-1.5c0.3-0.5,0.7-0.8,1.1-1c0.4-0.2,1-0.3,1.6-0.3
			s1.2,0.1,1.6,0.3c0.4,0.2,0.8,0.5,1.1,1c0.2,0.3,0.4,0.8,0.5,1.5c0.1,0.6,0.1,1.5,0.1,2.6c0,1.1-0.1,1.9-0.2,2.6
			c-0.1,0.6-0.3,1.1-0.5,1.5c-0.3,0.5-0.7,0.8-1.1,1c-0.4,0.2-1,0.3-1.6,0.3s-1.2-0.1-1.6-0.3c-0.4-0.2-0.8-0.5-1.1-1
			c-0.2-0.3-0.4-0.8-0.5-1.5S132.3,141.8,132.3,140.7z M134.2,140.7c0,1.7,0.1,2.7,0.3,3.2c0.2,0.4,0.6,0.7,1.1,0.7
			c0.5,0,0.9-0.2,1.1-0.6c0.2-0.4,0.3-1.5,0.3-3.2c0-1.7-0.1-2.8-0.3-3.2c-0.2-0.4-0.6-0.7-1.1-0.7s-0.9,0.2-1.1,0.7
			C134.3,137.9,134.2,139,134.2,140.7z"/>
		<path class="st0" d="M145.5,145.8l-0.1-1.1c-0.2,0.5-0.5,0.8-0.8,1.1c-0.3,0.2-0.8,0.3-1.4,0.3c-1.1,0-1.8-0.4-2.3-1.2
			c-0.4-0.8-0.7-2.3-0.7-4.5c0-1,0.1-1.8,0.2-2.4c0.1-0.6,0.3-1.1,0.5-1.4c0.3-0.4,0.6-0.7,1.1-0.9c0.4-0.2,1-0.3,1.6-0.3
			c1.1,0,1.9,0.3,2.4,0.8c0.5,0.5,0.8,1.3,0.8,2.4v0.3H145v-0.1c0-0.6-0.1-1.1-0.3-1.4c-0.2-0.3-0.6-0.5-1-0.5
			c-0.6,0-0.9,0.2-1.1,0.6c-0.2,0.4-0.3,1.6-0.3,3.4c0,1.4,0.1,2.4,0.3,2.9c0.2,0.5,0.5,0.7,1.1,0.7c0.5,0,0.9-0.2,1.1-0.5
			c0.2-0.3,0.3-0.9,0.3-1.8v-0.4h-1.3v-1.6h3.2v5.6H145.5z"/>
		<path class="st0" d="M148.5,145.8v-10.2h1.9v10.2H148.5z"/>
		<path class="st0" d="M152.1,145.8v-10.2h5.3v1.7H154v2.4h3.1v1.6H154v2.8h3.4v1.7H152.1z"/>
		<path class="st0" d="M158.7,142.2h1.9v0.7c0,0.6,0.1,1.1,0.2,1.3c0.2,0.2,0.4,0.3,0.8,0.3c0.4,0,0.7-0.1,0.9-0.3s0.3-0.5,0.3-0.9
			c0-0.3-0.1-0.6-0.2-0.8c-0.1-0.2-0.5-0.5-0.9-0.8l-1-0.7c-0.8-0.6-1.4-1.1-1.6-1.4c-0.2-0.4-0.3-0.9-0.3-1.4c0-0.9,0.3-1.5,0.8-2
			c0.5-0.5,1.2-0.7,2.1-0.7c0.9,0,1.7,0.3,2.2,0.8c0.5,0.5,0.8,1.3,0.8,2.2c0,0.1,0,0.2,0,0.2c0,0.1,0,0.1,0,0.1h-1.8v-0.3
			c0-0.6-0.1-0.9-0.3-1.2c-0.2-0.2-0.5-0.4-0.9-0.4c-0.3,0-0.5,0.1-0.7,0.3c-0.2,0.2-0.3,0.4-0.3,0.7c0,0.4,0.4,0.9,1.2,1.4l0,0
			l1.1,0.7c0.7,0.5,1.3,1,1.5,1.4c0.3,0.4,0.4,1,0.4,1.7c0,0.9-0.3,1.6-0.8,2.2c-0.5,0.5-1.3,0.8-2.3,0.8c-1,0-1.8-0.3-2.3-0.8
			s-0.8-1.3-0.8-2.4C158.7,142.7,158.7,142.5,158.7,142.2L158.7,142.2z"/>
		<path class="st0" d="M169.7,145.8v-10.2h1.9v8.5h3.4v1.7H169.7z"/>
		<path class="st0" d="M176.4,145.8v-10.2h1.9v8.5h3.4v1.7H176.4z"/>
		<path class="st0" d="M183,145.8v-10.2h3.3c1,0,1.7,0.2,2.2,0.7c0.4,0.5,0.7,1.2,0.7,2.2c0,1-0.2,1.8-0.7,2.3
			c-0.5,0.5-1.2,0.7-2.2,0.7h-1.4v4.3H183z M184.9,140h0.8c0.6,0,1-0.1,1.3-0.3c0.2-0.2,0.4-0.6,0.4-1.2c0-0.6-0.1-1-0.3-1.2
			c-0.2-0.2-0.6-0.3-1.3-0.3h-0.8V140z"/>
	</g>
	<g>
		<path class="st0" d="M13.8,125.5L3.1,87.2h4.6l8.6,33l8.8-33h4.3l-10.5,38.3H13.8z"/>
		<path class="st0" d="M33,125.5V87.2h19v4H37.3v12.3h13.8v3.9H37.3v14.1h14.9v4H33z"/>
		<path class="st0" d="M58,125.5V87.2h10.7c4,0,6.9,0.8,8.8,2.4c1.9,1.6,2.9,4.1,2.9,7.4c0,2.6-0.6,4.6-1.7,6.2
			c-1.2,1.5-2.9,2.6-5.4,3.2c2.1,0.2,3.7,0.9,4.8,2.1c1.1,1.2,1.7,3,1.9,5.5c0.1,0.9,0.2,2.2,0.3,3.9c0.3,4.2,0.9,6.7,2,7.6H77
			c-0.5-0.9-0.9-3-1-6.2c-0.1-1.6-0.2-2.9-0.2-3.9c-0.2-2.6-0.9-4.4-2.1-5.4c-1.1-1-3.2-1.5-6.1-1.5h-5.4v17H58z M62.2,104.8h5.2
			c3,0,5.2-0.6,6.6-1.7c1.4-1.2,2.1-2.9,2.1-5.4c0-2.3-0.6-4-1.9-5.1C73,91.5,71,91,68.2,91h-6V104.8z"/>
		<path class="st0" d="M114.7,125.5l10.4-38.3h5.4l10.6,38.3h-4.3l-2.9-11h-12.1l-2.8,11H114.7z M122.8,110.6H133l-5.1-20.1
			L122.8,110.6z"/>
		<path class="st0" d="M145.3,125.5V87.2h5.7l13.3,32.8l-0.4-32.8h4.1v38.3h-5.5l-13.5-33.8l0.3,33.8H145.3z"/>
		<path class="st0" d="M181.9,125.5V91.2h-9.8v-3.9h23.3v3.9h-9.2v34.3H181.9z"/>
		<g>
			<path class="st0" d="M106.2,99.8c0.2,1.8,0.3,4,0.3,6.6c0,3.5-0.2,6.3-0.6,8.2s-1,3.6-1.9,4.9c-0.6,0.8-1.3,1.4-2.3,1.8
				c-1,0.4-2.4,0.5-4.2,0.5H92v-21.7l-4.3-7.4v32.8h9.9c2.6,0,4.5-0.2,5.8-0.7c1.3-0.5,2.5-1.3,3.5-2.4c1.5-1.6,2.6-3.9,3.3-6.6
				c0.7-2.8,1.1-6.3,1.1-10.6c0-4.5-0.6-8.2-1.7-11L106.2,99.8z"/>
		</g>
	</g>
	<g>
		<polygon class="st1" points="41.8,2.8 39.7,1.7 39.1,2.7 56.5,32.7 66.1,16 		"/>
		<polygon class="st2" points="41.8,2.8 66.1,16 74.8,0.7 46.5,0.7 44.6,4.3 		"/>
		<polygon class="st2" points="117.5,0.7 88.5,0.7 77,21.9 72.2,19.3 72.2,19.3 98.5,33.7 		"/>
		<polygon class="st1" points="72.2,19.3 60.5,39.6 77.8,69.6 98.5,33.7 		"/>
		<polygon class="st2" points="130.9,51.3 160,0.9 159.6,0.7 130.5,0.7 109.4,39.6 		"/>
		<polygon class="st1" points="109.4,39.6 109.4,39.6 104.6,37 81.8,76.6 99,106.3 99.1,106.4 130.9,51.3 		"/>
	</g>
</g>
</svg>
